{"glyphs":{"0":{"ha":556,"x_min":0,"x_max":0,"o":"m 278 556 b 208 625 239 556 208 586 b 278 694 208 664 239 694 b 347 625 317 694 347 664 b 278 556 347 586 317 556 m 139 417 b 69 486 100 417 69 447 b 139 556 69 525 100 556 b 208 486 178 556 208 525 b 139 417 208 447 178 417 m 417 417 b 347 486 378 417 347 447 b 417 556 347 525 378 556 b 486 486 456 556 486 525 b 417 417 486 447 456 417 m 139 278 b 69 347 100 278 69 308 b 139 417 69 386 100 417 b 208 347 178 417 208 386 b 139 278 208 308 178 278 m 417 278 b 347 347 378 278 347 308 b 417 417 347 386 378 417 b 486 347 456 417 486 386 b 417 278 486 308 456 278 m 139 139 b 69 208 100 139 69 169 b 139 278 69 247 100 278 b 208 208 178 278 208 247 b 139 139 208 169 178 139 m 417 139 b 347 208 378 139 347 169 b 417 278 347 247 378 278 b 486 208 456 278 486 247 b 417 139 486 169 456 139 m 278 0 b 208 69 239 0 208 31 b 278 139 208 108 239 139 b 347 69 317 139 347 108 b 278 0 347 31 317 0 "},"1":{"ha":417,"x_min":0,"x_max":0,"o":"m 278 556 b 208 625 239 556 208 586 b 278 694 208 664 239 694 b 347 625 317 694 347 664 b 278 556 347 586 317 556 m 139 417 b 69 486 100 417 69 447 b 139 556 69 525 100 556 b 208 486 178 556 208 525 b 139 417 208 447 178 417 m 278 417 b 208 486 239 417 208 447 b 278 556 208 525 239 556 b 347 486 317 556 347 525 b 278 417 347 447 317 417 m 278 278 b 208 347 239 278 208 308 b 278 417 208 386 239 417 b 347 347 317 417 347 386 b 278 278 347 308 317 278 m 278 139 b 208 208 239 139 208 169 b 278 278 208 247 239 278 b 347 208 317 278 347 247 b 278 139 347 169 317 139 m 278 0 b 208 69 239 0 208 31 b 278 139 208 108 239 139 b 347 69 317 139 347 108 b 278 0 347 31 317 0 "},"2":{"ha":556,"x_min":0,"x_max":0,"o":"m 139 556 b 69 625 100 556 69 586 b 139 694 69 664 100 694 b 208 625 178 694 208 664 b 139 556 208 586 178 556 m 278 556 b 208 625 239 556 208 586 b 278 694 208 664 239 694 b 347 625 317 694 347 664 b 278 556 347 586 317 556 m 417 417 b 347 486 378 417 347 447 b 417 556 347 525 378 556 b 486 486 456 556 486 525 b 417 417 486 447 456 417 m 278 278 b 208 347 239 278 208 308 b 278 417 208 386 239 417 b 347 347 317 417 347 386 b 278 278 347 308 317 278 m 139 139 b 69 208 100 139 69 169 b 139 278 69 247 100 278 b 208 208 178 278 208 247 b 139 139 208 169 178 139 m 139 0 b 69 69 100 0 69 31 b 139 139 69 108 100 139 b 208 69 178 139 208 108 b 139 0 208 31 178 0 m 278 0 b 208 69 239 0 208 31 b 278 139 208 108 239 139 b 347 69 317 139 347 108 b 278 0 347 31 317 0 m 417 0 b 347 69 378 0 347 31 b 417 139 347 108 378 139 b 486 69 456 139 486 108 b 417 0 486 31 456 0 "},"3":{"ha":556,"x_min":0,"x_max":0,"o":"m 139 556 b 69 625 100 556 69 586 b 139 694 69 664 100 694 b 208 625 178 694 208 664 b 139 556 208 586 178 556 m 278 556 b 208 625 239 556 208 586 b 278 694 208 664 239 694 b 347 625 317 694 347 664 b 278 556 347 586 317 556 m 417 417 b 347 486 378 417 347 447 b 417 556 347 525 378 556 b 486 486 456 556 486 525 b 417 417 486 447 456 417 m 278 278 b 208 347 239 278 208 308 b 278 417 208 386 239 417 b 347 347 317 417 347 386 b 278 278 347 308 317 278 m 417 139 b 347 208 378 139 347 169 b 417 278 347 247 378 278 b 486 208 456 278 486 247 b 417 139 486 169 456 139 m 139 0 b 69 69 100 0 69 31 b 139 139 69 108 100 139 b 208 69 178 139 208 108 b 139 0 208 31 178 0 m 278 0 b 208 69 239 0 208 31 b 278 139 208 108 239 139 b 347 69 317 139 347 108 b 278 0 347 31 317 0 "},"4":{"ha":556,"x_min":0,"x_max":0,"o":"m 417 556 b 347 625 378 556 347 586 b 417 694 347 664 378 694 b 486 625 456 694 486 664 b 417 556 486 586 456 556 m 278 417 b 208 486 239 417 208 447 b 278 556 208 525 239 556 b 347 486 317 556 347 525 b 278 417 347 447 317 417 m 417 417 b 347 486 378 417 347 447 b 417 556 347 525 378 556 b 486 486 456 556 486 525 b 417 417 486 447 456 417 m 139 278 b 69 347 100 278 69 308 b 139 417 69 386 100 417 b 208 347 178 417 208 386 b 139 278 208 308 178 278 m 417 278 b 347 347 378 278 347 308 b 417 417 347 386 378 417 b 486 347 456 417 486 386 b 417 278 486 308 456 278 m 139 139 b 69 208 100 139 69 169 b 139 278 69 247 100 278 b 208 208 178 278 208 247 b 139 139 208 169 178 139 m 278 139 b 208 208 239 139 208 169 b 278 278 208 247 239 278 b 347 208 317 278 347 247 b 278 139 347 169 317 139 m 417 139 b 347 208 378 139 347 169 b 417 278 347 247 378 278 b 486 208 456 278 486 247 b 417 139 486 169 456 139 m 417 0 b 347 69 378 0 347 31 b 417 139 347 108 378 139 b 486 69 456 139 486 108 b 417 0 486 31 456 0 "},"5":{"ha":556,"x_min":0,"x_max":0,"o":"m 139 556 b 69 625 100 556 69 586 b 139 694 69 664 100 694 b 208 625 178 694 208 664 b 139 556 208 586 178 556 m 278 556 b 208 625 239 556 208 586 b 278 694 208 664 239 694 b 347 625 317 694 347 664 b 278 556 347 586 317 556 m 417 556 b 347 625 378 556 347 586 b 417 694 347 664 378 694 b 486 625 456 694 486 664 b 417 556 486 586 456 556 m 139 417 b 69 486 100 417 69 447 b 139 556 69 525 100 556 b 208 486 178 556 208 525 b 139 417 208 447 178 417 m 139 278 b 69 347 100 278 69 308 b 139 417 69 386 100 417 b 208 347 178 417 208 386 b 139 278 208 308 178 278 m 278 278 b 208 347 239 278 208 308 b 278 417 208 386 239 417 b 347 347 317 417 347 386 b 278 278 347 308 317 278 m 417 139 b 347 208 378 139 347 169 b 417 278 347 247 378 278 b 486 208 456 278 486 247 b 417 139 486 169 456 139 m 139 0 b 69 69 100 0 69 31 b 139 139 69 108 100 139 b 208 69 178 139 208 108 b 139 0 208 31 178 0 m 278 0 b 208 69 239 0 208 31 b 278 139 208 108 239 139 b 347 69 317 139 347 108 b 278 0 347 31 317 0 "},"6":{"ha":556,"x_min":0,"x_max":0,"o":"m 278 556 b 208 625 239 556 208 586 b 278 694 208 664 239 694 b 347 625 317 694 347 664 b 278 556 347 586 317 556 m 417 556 b 347 625 378 556 347 586 b 417 694 347 664 378 694 b 486 625 456 694 486 664 b 417 556 486 586 456 556 m 139 417 b 69 486 100 417 69 447 b 139 556 69 525 100 556 b 208 486 178 556 208 525 b 139 417 208 447 178 417 m 139 278 b 69 347 100 278 69 308 b 139 417 69 386 100 417 b 208 347 178 417 208 386 b 139 278 208 308 178 278 m 278 278 b 208 347 239 278 208 308 b 278 417 208 386 239 417 b 347 347 317 417 347 386 b 278 278 347 308 317 278 m 139 139 b 69 208 100 139 69 169 b 139 278 69 247 100 278 b 208 208 178 278 208 247 b 139 139 208 169 178 139 m 417 139 b 347 208 378 139 347 169 b 417 278 347 247 378 278 b 486 208 456 278 486 247 b 417 139 486 169 456 139 m 278 0 b 208 69 239 0 208 31 b 278 139 208 108 239 139 b 347 69 317 139 347 108 b 278 0 347 31 317 0 "},"7":{"ha":556,"x_min":0,"x_max":0,"o":"m 139 556 b 69 625 100 556 69 586 b 139 694 69 664 100 694 b 208 625 178 694 208 664 b 139 556 208 586 178 556 m 278 556 b 208 625 239 556 208 586 b 278 694 208 664 239 694 b 347 625 317 694 347 664 b 278 556 347 586 317 556 m 417 556 b 347 625 378 556 347 586 b 417 694 347 664 378 694 b 486 625 456 694 486 664 b 417 556 486 586 456 556 m 417 417 b 347 486 378 417 347 447 b 417 556 347 525 378 556 b 486 486 456 556 486 525 b 417 417 486 447 456 417 m 278 278 b 208 347 239 278 208 308 b 278 417 208 386 239 417 b 347 347 317 417 347 386 b 278 278 347 308 317 278 m 278 139 b 208 208 239 139 208 169 b 278 278 208 247 239 278 b 347 208 317 278 347 247 b 278 139 347 169 317 139 m 139 0 b 69 69 100 0 69 31 b 139 139 69 108 100 139 b 208 69 178 139 208 108 b 139 0 208 31 178 0 "},"8":{"ha":556,"x_min":0,"x_max":0,"o":"m 278 556 b 208 625 239 556 208 586 b 278 694 208 664 239 694 b 347 625 317 694 347 664 b 278 556 347 586 317 556 m 139 417 b 69 486 100 417 69 447 b 139 556 69 525 100 556 b 208 486 178 556 208 525 b 139 417 208 447 178 417 m 417 417 b 347 486 378 417 347 447 b 417 556 347 525 378 556 b 486 486 456 556 486 525 b 417 417 486 447 456 417 m 278 278 b 208 347 239 278 208 308 b 278 417 208 386 239 417 b 347 347 317 417 347 386 b 278 278 347 308 317 278 m 139 139 b 69 208 100 139 69 169 b 139 278 69 247 100 278 b 208 208 178 278 208 247 b 139 139 208 169 178 139 m 417 139 b 347 208 378 139 347 169 b 417 278 347 247 378 278 b 486 208 456 278 486 247 b 417 139 486 169 456 139 m 278 0 b 208 69 239 0 208 31 b 278 139 208 108 239 139 b 347 69 317 139 347 108 b 278 0 347 31 317 0 "},"9":{"ha":556,"x_min":0,"x_max":0,"o":"m 278 556 b 208 625 239 556 208 586 b 278 694 208 664 239 694 b 347 625 317 694 347 664 b 278 556 347 586 317 556 m 139 417 b 69 486 100 417 69 447 b 139 556 69 525 100 556 b 208 486 178 556 208 525 b 139 417 208 447 178 417 m 417 417 b 347 486 378 417 347 447 b 417 556 347 525 378 556 b 486 486 456 556 486 525 b 417 417 486 447 456 417 m 278 278 b 208 347 239 278 208 308 b 278 417 208 386 239 417 b 347 347 317 417 347 386 b 278 278 347 308 317 278 m 417 278 b 347 347 378 278 347 308 b 417 417 347 386 378 417 b 486 347 456 417 486 386 b 417 278 486 308 456 278 m 417 139 b 347 208 378 139 347 169 b 417 278 347 247 378 278 b 486 208 456 278 486 247 b 417 139 486 169 456 139 m 139 0 b 69 69 100 0 69 31 b 139 139 69 108 100 139 b 208 69 178 139 208 108 b 139 0 208 31 178 0 m 278 0 b 208 69 239 0 208 31 b 278 139 208 108 239 139 b 347 69 317 139 347 108 b 278 0 347 31 317 0 "}," ":{"ha":278,"x_min":0,"x_max":0,"o":""},"A":{"ha":556,"x_min":0,"x_max":0,"o":"m 278 556 b 208 625 239 556 208 586 b 278 694 208 664 239 694 b 347 625 317 694 347 664 b 278 556 347 586 317 556 m 139 417 b 69 486 100 417 69 447 b 139 556 69 525 100 556 b 208 486 178 556 208 525 b 139 417 208 447 178 417 m 417 417 b 347 486 378 417 347 447 b 417 556 347 525 378 556 b 486 486 456 556 486 525 b 417 417 486 447 456 417 m 139 278 b 69 347 100 278 69 308 b 139 417 69 386 100 417 b 208 347 178 417 208 386 b 139 278 208 308 178 278 m 278 278 b 208 347 239 278 208 308 b 278 417 208 386 239 417 b 347 347 317 417 347 386 b 278 278 347 308 317 278 m 417 278 b 347 347 378 278 347 308 b 417 417 347 386 378 417 b 486 347 456 417 486 386 b 417 278 486 308 456 278 m 139 139 b 69 208 100 139 69 169 b 139 278 69 247 100 278 b 208 208 178 278 208 247 b 139 139 208 169 178 139 m 417 139 b 347 208 378 139 347 169 b 417 278 347 247 378 278 b 486 208 456 278 486 247 b 417 139 486 169 456 139 m 139 0 b 69 69 100 0 69 31 b 139 139 69 108 100 139 b 208 69 178 139 208 108 b 139 0 208 31 178 0 m 417 0 b 347 69 378 0 347 31 b 417 139 347 108 378 139 b 486 69 456 139 486 108 b 417 0 486 31 456 0 "},"Á":{"ha":556,"x_min":0,"x_max":0,"o":"m 417 972 b 347 1042 378 972 347 1003 b 417 1111 347 1081 378 1111 b 486 1042 456 1111 486 1081 b 417 972 486 1003 456 972 m 278 833 b 208 903 239 833 208 864 b 278 972 208 942 239 972 b 347 903 317 972 347 942 b 278 833 347 864 317 833 m 278 556 b 208 625 239 556 208 586 b 278 694 208 664 239 694 b 347 625 317 694 347 664 b 278 556 347 586 317 556 m 139 417 b 69 486 100 417 69 447 b 139 556 69 525 100 556 b 208 486 178 556 208 525 b 139 417 208 447 178 417 m 417 417 b 347 486 378 417 347 447 b 417 556 347 525 378 556 b 486 486 456 556 486 525 b 417 417 486 447 456 417 m 139 278 b 69 347 100 278 69 308 b 139 417 69 386 100 417 b 208 347 178 417 208 386 b 139 278 208 308 178 278 m 278 278 b 208 347 239 278 208 308 b 278 417 208 386 239 417 b 347 347 317 417 347 386 b 278 278 347 308 317 278 m 417 278 b 347 347 378 278 347 308 b 417 417 347 386 378 417 b 486 347 456 417 486 386 b 417 278 486 308 456 278 m 139 139 b 69 208 100 139 69 169 b 139 278 69 247 100 278 b 208 208 178 278 208 247 b 139 139 208 169 178 139 m 417 139 b 347 208 378 139 347 169 b 417 278 347 247 378 278 b 486 208 456 278 486 247 b 417 139 486 169 456 139 m 139 0 b 69 69 100 0 69 31 b 139 139 69 108 100 139 b 208 69 178 139 208 108 b 139 0 208 31 178 0 m 417 0 b 347 69 378 0 347 31 b 417 139 347 108 378 139 b 486 69 456 139 486 108 b 417 0 486 31 456 0 "},"Ă":{"ha":556,"x_min":0,"x_max":0,"o":"m 139 972 b 69 1042 100 972 69 1003 b 139 1111 69 1081 100 1111 b 208 1042 178 1111 208 1081 b 139 972 208 1003 178 972 m 417 972 b 347 1042 378 972 347 1003 b 417 1111 347 1081 378 1111 b 486 1042 456 1111 486 1081 b 417 972 486 1003 456 972 m 139 833 b 69 903 100 833 69 864 b 139 972 69 942 100 972 b 208 903 178 972 208 942 b 139 833 208 864 178 833 m 278 833 b 208 903 239 833 208 864 b 278 972 208 942 239 972 b 347 903 317 972 347 942 b 278 833 347 864 317 833 m 417 833 b 347 903 378 833 347 864 b 417 972 347 942 378 972 b 486 903 456 972 486 942 b 417 833 486 864 456 833 m 278 556 b 208 625 239 556 208 586 b 278 694 208 664 239 694 b 347 625 317 694 347 664 b 278 556 347 586 317 556 m 139 417 b 69 486 100 417 69 447 b 139 556 69 525 100 556 b 208 486 178 556 208 525 b 139 417 208 447 178 417 m 417 417 b 347 486 378 417 347 447 b 417 556 347 525 378 556 b 486 486 456 556 486 525 b 417 417 486 447 456 417 m 139 278 b 69 347 100 278 69 308 b 139 417 69 386 100 417 b 208 347 178 417 208 386 b 139 278 208 308 178 278 m 278 278 b 208 347 239 278 208 308 b 278 417 208 386 239 417 b 347 347 317 417 347 386 b 278 278 347 308 317 278 m 417 278 b 347 347 378 278 347 308 b 417 417 347 386 378 417 b 486 347 456 417 486 386 b 417 278 486 308 456 278 m 139 139 b 69 208 100 139 69 169 b 139 278 69 247 100 278 b 208 208 178 278 208 247 b 139 139 208 169 178 139 m 417 139 b 347 208 378 139 347 169 b 417 278 347 247 378 278 b 486 208 456 278 486 247 b 417 139 486 169 456 139 m 139 0 b 69 69 100 0 69 31 b 139 139 69 108 100 139 b 208 69 178 139 208 108 b 139 0 208 31 178 0 m 417 0 b 347 69 378 0 347 31 b 417 139 347 108 378 139 b 486 69 456 139 486 108 b 417 0 486 31 456 0 "},"Â":{"ha":556,"x_min":0,"x_max":0,"o":"m 278 972 b 208 1042 239 972 208 1003 b 278 1111 208 1081 239 1111 b 347 1042 317 1111 347 1081 b 278 972 347 1003 317 972 m 139 833 b 69 903 100 833 69 864 b 139 972 69 942 100 972 b 208 903 178 972 208 942 b 139 833 208 864 178 833 m 417 833 b 347 903 378 833 347 864 b 417 972 347 942 378 972 b 486 903 456 972 486 942 b 417 833 486 864 456 833 m 278 556 b 208 625 239 556 208 586 b 278 694 208 664 239 694 b 347 625 317 694 347 664 b 278 556 347 586 317 556 m 139 417 b 69 486 100 417 69 447 b 139 556 69 525 100 556 b 208 486 178 556 208 525 b 139 417 208 447 178 417 m 417 417 b 347 486 378 417 347 447 b 417 556 347 525 378 556 b 486 486 456 556 486 525 b 417 417 486 447 456 417 m 139 278 b 69 347 100 278 69 308 b 139 417 69 386 100 417 b 208 347 178 417 208 386 b 139 278 208 308 178 278 m 278 278 b 208 347 239 278 208 308 b 278 417 208 386 239 417 b 347 347 317 417 347 386 b 278 278 347 308 317 278 m 417 278 b 347 347 378 278 347 308 b 417 417 347 386 378 417 b 486 347 456 417 486 386 b 417 278 486 308 456 278 m 139 139 b 69 208 100 139 69 169 b 139 278 69 247 100 278 b 208 208 178 278 208 247 b 139 139 208 169 178 139 m 417 139 b 347 208 378 139 347 169 b 417 278 347 247 378 278 b 486 208 456 278 486 247 b 417 139 486 169 456 139 m 139 0 b 69 69 100 0 69 31 b 139 139 69 108 100 139 b 208 69 178 139 208 108 b 139 0 208 31 178 0 m 417 0 b 347 69 378 0 347 31 b 417 139 347 108 378 139 b 486 69 456 139 486 108 b 417 0 486 31 456 0 "},"Ä":{"ha":556,"x_min":0,"x_max":0,"o":"m 139 833 b 69 903 100 833 69 864 b 139 972 69 942 100 972 b 208 903 178 972 208 942 b 139 833 208 864 178 833 m 417 833 b 347 903 378 833 347 864 b 417 972 347 942 378 972 b 486 903 456 972 486 942 b 417 833 486 864 456 833 m 278 556 b 208 625 239 556 208 586 b 278 694 208 664 239 694 b 347 625 317 694 347 664 b 278 556 347 586 317 556 m 139 417 b 69 486 100 417 69 447 b 139 556 69 525 100 556 b 208 486 178 556 208 525 b 139 417 208 447 178 417 m 417 417 b 347 486 378 417 347 447 b 417 556 347 525 378 556 b 486 486 456 556 486 525 b 417 417 486 447 456 417 m 139 278 b 69 347 100 278 69 308 b 139 417 69 386 100 417 b 208 347 178 417 208 386 b 139 278 208 308 178 278 m 278 278 b 208 347 239 278 208 308 b 278 417 208 386 239 417 b 347 347 317 417 347 386 b 278 278 347 308 317 278 m 417 278 b 347 347 378 278 347 308 b 417 417 347 386 378 417 b 486 347 456 417 486 386 b 417 278 486 308 456 278 m 139 139 b 69 208 100 139 69 169 b 139 278 69 247 100 278 b 208 208 178 278 208 247 b 139 139 208 169 178 139 m 417 139 b 347 208 378 139 347 169 b 417 278 347 247 378 278 b 486 208 456 278 486 247 b 417 139 486 169 456 139 m 139 0 b 69 69 100 0 69 31 b 139 139 69 108 100 139 b 208 69 178 139 208 108 b 139 0 208 31 178 0 m 417 0 b 347 69 378 0 347 31 b 417 139 347 108 378 139 b 486 69 456 139 486 108 b 417 0 486 31 456 0 "},"À":{"ha":556,"x_min":0,"x_max":0,"o":"m 139 972 b 69 1042 100 972 69 1003 b 139 1111 69 1081 100 1111 b 208 1042 178 1111 208 1081 b 139 972 208 1003 178 972 m 278 833 b 208 903 239 833 208 864 b 278 972 208 942 239 972 b 347 903 317 972 347 942 b 278 833 347 864 317 833 m 278 556 b 208 625 239 556 208 586 b 278 694 208 664 239 694 b 347 625 317 694 347 664 b 278 556 347 586 317 556 m 139 417 b 69 486 100 417 69 447 b 139 556 69 525 100 556 b 208 486 178 556 208 525 b 139 417 208 447 178 417 m 417 417 b 347 486 378 417 347 447 b 417 556 347 525 378 556 b 486 486 456 556 486 525 b 417 417 486 447 456 417 m 139 278 b 69 347 100 278 69 308 b 139 417 69 386 100 417 b 208 347 178 417 208 386 b 139 278 208 308 178 278 m 278 278 b 208 347 239 278 208 308 b 278 417 208 386 239 417 b 347 347 317 417 347 386 b 278 278 347 308 317 278 m 417 278 b 347 347 378 278 347 308 b 417 417 347 386 378 417 b 486 347 456 417 486 386 b 417 278 486 308 456 278 m 139 139 b 69 208 100 139 69 169 b 139 278 69 247 100 278 b 208 208 178 278 208 247 b 139 139 208 169 178 139 m 417 139 b 347 208 378 139 347 169 b 417 278 347 247 378 278 b 486 208 456 278 486 247 b 417 139 486 169 456 139 m 139 0 b 69 69 100 0 69 31 b 139 139 69 108 100 139 b 208 69 178 139 208 108 b 139 0 208 31 178 0 m 417 0 b 347 69 378 0 347 31 b 417 139 347 108 378 139 b 486 69 456 139 486 108 b 417 0 486 31 456 0 "},"Ā":{"ha":556,"x_min":0,"x_max":0,"o":"m 139 833 b 69 903 100 833 69 864 b 139 972 69 942 100 972 b 208 903 178 972 208 942 b 139 833 208 864 178 833 m 278 833 b 208 903 239 833 208 864 b 278 972 208 942 239 972 b 347 903 317 972 347 942 b 278 833 347 864 317 833 m 417 833 b 347 903 378 833 347 864 b 417 972 347 942 378 972 b 486 903 456 972 486 942 b 417 833 486 864 456 833 m 278 556 b 208 625 239 556 208 586 b 278 694 208 664 239 694 b 347 625 317 694 347 664 b 278 556 347 586 317 556 m 139 417 b 69 486 100 417 69 447 b 139 556 69 525 100 556 b 208 486 178 556 208 525 b 139 417 208 447 178 417 m 417 417 b 347 486 378 417 347 447 b 417 556 347 525 378 556 b 486 486 456 556 486 525 b 417 417 486 447 456 417 m 139 278 b 69 347 100 278 69 308 b 139 417 69 386 100 417 b 208 347 178 417 208 386 b 139 278 208 308 178 278 m 278 278 b 208 347 239 278 208 308 b 278 417 208 386 239 417 b 347 347 317 417 347 386 b 278 278 347 308 317 278 m 417 278 b 347 347 378 278 347 308 b 417 417 347 386 378 417 b 486 347 456 417 486 386 b 417 278 486 308 456 278 m 139 139 b 69 208 100 139 69 169 b 139 278 69 247 100 278 b 208 208 178 278 208 247 b 139 139 208 169 178 139 m 417 139 b 347 208 378 139 347 169 b 417 278 347 247 378 278 b 486 208 456 278 486 247 b 417 139 486 169 456 139 m 139 0 b 69 69 100 0 69 31 b 139 139 69 108 100 139 b 208 69 178 139 208 108 b 139 0 208 31 178 0 m 417 0 b 347 69 378 0 347 31 b 417 139 347 108 378 139 b 486 69 456 139 486 108 b 417 0 486 31 456 0 "},"Ą":{"ha":556,"x_min":0,"x_max":0,"o":"m 278 556 b 208 625 239 556 208 586 b 278 694 208 664 239 694 b 347 625 317 694 347 664 b 278 556 347 586 317 556 m 139 417 b 69 486 100 417 69 447 b 139 556 69 525 100 556 b 208 486 178 556 208 525 b 139 417 208 447 178 417 m 417 417 b 347 486 378 417 347 447 b 417 556 347 525 378 556 b 486 486 456 556 486 525 b 417 417 486 447 456 417 m 139 278 b 69 347 100 278 69 308 b 139 417 69 386 100 417 b 208 347 178 417 208 386 b 139 278 208 308 178 278 m 278 278 b 208 347 239 278 208 308 b 278 417 208 386 239 417 b 347 347 317 417 347 386 b 278 278 347 308 317 278 m 417 278 b 347 347 378 278 347 308 b 417 417 347 386 378 417 b 486 347 456 417 486 386 b 417 278 486 308 456 278 m 139 139 b 69 208 100 139 69 169 b 139 278 69 247 100 278 b 208 208 178 278 208 247 b 139 139 208 169 178 139 m 417 139 b 347 208 378 139 347 169 b 417 278 347 247 378 278 b 486 208 456 278 486 247 b 417 139 486 169 456 139 m 139 0 b 69 69 100 0 69 31 b 139 139 69 108 100 139 b 208 69 178 139 208 108 b 139 0 208 31 178 0 m 417 0 b 347 69 378 0 347 31 b 417 139 347 108 378 139 b 486 69 456 139 486 108 b 417 0 486 31 456 0 m 278 -139 b 208 -69 239 -139 208 -108 b 278 0 208 -31 239 0 b 347 -69 317 0 347 -31 b 278 -139 347 -108 317 -139 m 278 -278 b 208 -208 239 -278 208 -247 b 278 -139 208 -169 239 -139 b 347 -208 317 -139 347 -169 b 278 -278 347 -247 317 -278 m 417 -278 b 347 -208 378 -278 347 -247 b 417 -139 347 -169 378 -139 b 486 -208 456 -139 486 -169 b 417 -278 486 -247 456 -278 "},"Å":{"ha":556,"x_min":0,"x_max":0,"o":"m 278 833 b 208 903 239 833 208 864 b 278 972 208 942 239 972 b 347 903 317 972 347 942 b 278 833 347 864 317 833 m 139 694 b 69 764 100 694 69 725 b 139 833 69 803 100 833 b 208 764 178 833 208 803 b 139 694 208 725 178 694 m 417 694 b 347 764 378 694 347 725 b 417 833 347 803 378 833 b 486 764 456 833 486 803 b 417 694 486 725 456 694 m 278 694 b 347 625 317 694 347 664 b 278 556 347 586 317 556 b 208 625 239 556 208 586 b 278 694 208 664 239 694 m 208 486 b 139 417 208 447 178 417 b 69 486 100 417 69 447 b 139 556 69 525 100 556 b 208 486 178 556 208 525 m 486 486 b 417 417 486 447 456 417 b 347 486 378 417 347 447 b 417 556 347 525 378 556 b 486 486 456 556 486 525 m 139 417 b 208 347 178 417 208 386 b 139 278 208 308 178 278 b 69 347 100 278 69 308 b 139 417 69 386 100 417 m 278 417 b 347 347 317 417 347 386 b 278 278 347 308 317 278 b 208 347 239 278 208 308 b 278 417 208 386 239 417 m 347 347 b 417 417 347 386 378 417 b 486 347 456 417 486 386 b 417 278 486 308 456 278 b 347 347 378 278 347 308 m 69 208 b 139 278 69 247 100 278 b 208 208 178 278 208 247 b 139 139 208 169 178 139 b 69 208 100 139 69 169 m 347 208 b 417 278 347 247 378 278 b 486 208 456 278 486 247 b 417 139 486 169 456 139 b 347 208 378 139 347 169 m 69 69 b 139 139 69 108 100 139 b 208 69 178 139 208 108 b 139 0 208 31 178 0 b 69 69 100 0 69 31 m 347 69 b 417 139 347 108 378 139 b 486 69 456 139 486 108 b 417 0 486 31 456 0 b 347 69 378 0 347 31 "},"Ã":{"ha":556,"x_min":0,"x_max":0,"o":"m 278 972 b 208 1042 239 972 208 1003 b 278 1111 208 1081 239 1111 b 347 1042 317 1111 347 1081 b 278 972 347 1003 317 972 m 556 972 b 486 1042 517 972 486 1003 b 556 1111 486 1081 517 1111 b 625 1042 594 1111 625 1081 b 556 972 625 1003 594 972 m 139 833 b 69 903 100 833 69 864 b 139 972 69 942 100 972 b 208 903 178 972 208 942 b 139 833 208 864 178 833 m 417 833 b 347 903 378 833 347 864 b 417 972 347 942 378 972 b 486 903 456 972 486 942 b 417 833 486 864 456 833 m 278 556 b 208 625 239 556 208 586 b 278 694 208 664 239 694 b 347 625 317 694 347 664 b 278 556 347 586 317 556 m 139 417 b 69 486 100 417 69 447 b 139 556 69 525 100 556 b 208 486 178 556 208 525 b 139 417 208 447 178 417 m 417 417 b 347 486 378 417 347 447 b 417 556 347 525 378 556 b 486 486 456 556 486 525 b 417 417 486 447 456 417 m 139 278 b 69 347 100 278 69 308 b 139 417 69 386 100 417 b 208 347 178 417 208 386 b 139 278 208 308 178 278 m 278 278 b 208 347 239 278 208 308 b 278 417 208 386 239 417 b 347 347 317 417 347 386 b 278 278 347 308 317 278 m 417 278 b 347 347 378 278 347 308 b 417 417 347 386 378 417 b 486 347 456 417 486 386 b 417 278 486 308 456 278 m 139 139 b 69 208 100 139 69 169 b 139 278 69 247 100 278 b 208 208 178 278 208 247 b 139 139 208 169 178 139 m 417 139 b 347 208 378 139 347 169 b 417 278 347 247 378 278 b 486 208 456 278 486 247 b 417 139 486 169 456 139 m 139 0 b 69 69 100 0 69 31 b 139 139 69 108 100 139 b 208 69 178 139 208 108 b 139 0 208 31 178 0 m 417 0 b 347 69 378 0 347 31 b 417 139 347 108 378 139 b 486 69 456 139 486 108 b 417 0 486 31 456 0 "},"Æ":{"ha":694,"x_min":0,"x_max":0,"o":"m 278 556 b 208 625 239 556 208 586 b 278 694 208 664 239 694 b 347 625 317 694 347 664 b 278 556 347 586 317 556 m 417 556 b 347 625 378 556 347 586 b 417 694 347 664 378 694 b 486 625 456 694 486 664 b 417 556 486 586 456 556 m 556 556 b 486 625 517 556 486 586 b 556 694 486 664 517 694 b 625 625 594 694 625 664 b 556 556 625 586 594 556 m 139 417 b 69 486 100 417 69 447 b 139 556 69 525 100 556 b 208 486 178 556 208 525 b 139 417 208 447 178 417 m 417 417 b 347 486 378 417 347 447 b 417 556 347 525 378 556 b 486 486 456 556 486 525 b 417 417 486 447 456 417 m 139 278 b 69 347 100 278 69 308 b 139 417 69 386 100 417 b 208 347 178 417 208 386 b 139 278 208 308 178 278 m 278 278 b 208 347 239 278 208 308 b 278 417 208 386 239 417 b 347 347 317 417 347 386 b 278 278 347 308 317 278 m 417 278 b 347 347 378 278 347 308 b 417 417 347 386 378 417 b 486 347 456 417 486 386 b 417 278 486 308 456 278 m 556 278 b 486 347 517 278 486 308 b 556 417 486 386 517 417 b 625 347 594 417 625 386 b 556 278 625 308 594 278 m 139 139 b 69 208 100 139 69 169 b 139 278 69 247 100 278 b 208 208 178 278 208 247 b 139 139 208 169 178 139 m 417 139 b 347 208 378 139 347 169 b 417 278 347 247 378 278 b 486 208 456 278 486 247 b 417 139 486 169 456 139 m 139 0 b 69 69 100 0 69 31 b 139 139 69 108 100 139 b 208 69 178 139 208 108 b 139 0 208 31 178 0 m 417 0 b 347 69 378 0 347 31 b 417 139 347 108 378 139 b 486 69 456 139 486 108 b 417 0 486 31 456 0 m 556 0 b 486 69 517 0 486 31 b 556 139 486 108 517 139 b 625 69 594 139 625 108 b 556 0 625 31 594 0 "},"B":{"ha":556,"x_min":0,"x_max":0,"o":"m 139 556 b 69 625 100 556 69 586 b 139 694 69 664 100 694 b 208 625 178 694 208 664 b 139 556 208 586 178 556 m 278 556 b 208 625 239 556 208 586 b 278 694 208 664 239 694 b 347 625 317 694 347 664 b 278 556 347 586 317 556 m 139 417 b 69 486 100 417 69 447 b 139 556 69 525 100 556 b 208 486 178 556 208 525 b 139 417 208 447 178 417 m 417 417 b 347 486 378 417 347 447 b 417 556 347 525 378 556 b 486 486 456 556 486 525 b 417 417 486 447 456 417 m 139 278 b 69 347 100 278 69 308 b 139 417 69 386 100 417 b 208 347 178 417 208 386 b 139 278 208 308 178 278 m 278 278 b 208 347 239 278 208 308 b 278 417 208 386 239 417 b 347 347 317 417 347 386 b 278 278 347 308 317 278 m 139 139 b 69 208 100 139 69 169 b 139 278 69 247 100 278 b 208 208 178 278 208 247 b 139 139 208 169 178 139 m 417 139 b 347 208 378 139 347 169 b 417 278 347 247 378 278 b 486 208 456 278 486 247 b 417 139 486 169 456 139 m 139 0 b 69 69 100 0 69 31 b 139 139 69 108 100 139 b 208 69 178 139 208 108 b 139 0 208 31 178 0 m 278 0 b 208 69 239 0 208 31 b 278 139 208 108 239 139 b 347 69 317 139 347 108 b 278 0 347 31 317 0 "},"C":{"ha":556,"x_min":0,"x_max":0,"o":"m 278 556 b 208 625 239 556 208 586 b 278 694 208 664 239 694 b 347 625 317 694 347 664 b 278 556 347 586 317 556 m 139 417 b 69 486 100 417 69 447 b 139 556 69 525 100 556 b 208 486 178 556 208 525 b 139 417 208 447 178 417 m 417 417 b 347 486 378 417 347 447 b 417 556 347 525 378 556 b 486 486 456 556 486 525 b 417 417 486 447 456 417 m 139 278 b 69 347 100 278 69 308 b 139 417 69 386 100 417 b 208 347 178 417 208 386 b 139 278 208 308 178 278 m 139 139 b 69 208 100 139 69 169 b 139 278 69 247 100 278 b 208 208 178 278 208 247 b 139 139 208 169 178 139 m 417 139 b 347 208 378 139 347 169 b 417 278 347 247 378 278 b 486 208 456 278 486 247 b 417 139 486 169 456 139 m 278 0 b 208 69 239 0 208 31 b 278 139 208 108 239 139 b 347 69 317 139 347 108 b 278 0 347 31 317 0 "},"Ć":{"ha":556,"x_min":0,"x_max":0,"o":"m 417 972 b 347 1042 378 972 347 1003 b 417 1111 347 1081 378 1111 b 486 1042 456 1111 486 1081 b 417 972 486 1003 456 972 m 278 833 b 208 903 239 833 208 864 b 278 972 208 942 239 972 b 347 903 317 972 347 942 b 278 833 347 864 317 833 m 278 556 b 208 625 239 556 208 586 b 278 694 208 664 239 694 b 347 625 317 694 347 664 b 278 556 347 586 317 556 m 139 417 b 69 486 100 417 69 447 b 139 556 69 525 100 556 b 208 486 178 556 208 525 b 139 417 208 447 178 417 m 417 417 b 347 486 378 417 347 447 b 417 556 347 525 378 556 b 486 486 456 556 486 525 b 417 417 486 447 456 417 m 139 278 b 69 347 100 278 69 308 b 139 417 69 386 100 417 b 208 347 178 417 208 386 b 139 278 208 308 178 278 m 139 139 b 69 208 100 139 69 169 b 139 278 69 247 100 278 b 208 208 178 278 208 247 b 139 139 208 169 178 139 m 417 139 b 347 208 378 139 347 169 b 417 278 347 247 378 278 b 486 208 456 278 486 247 b 417 139 486 169 456 139 m 278 0 b 208 69 239 0 208 31 b 278 139 208 108 239 139 b 347 69 317 139 347 108 b 278 0 347 31 317 0 "},"Č":{"ha":556,"x_min":0,"x_max":0,"o":"m 139 972 b 69 1042 100 972 69 1003 b 139 1111 69 1081 100 1111 b 208 1042 178 1111 208 1081 b 139 972 208 1003 178 972 m 417 972 b 347 1042 378 972 347 1003 b 417 1111 347 1081 378 1111 b 486 1042 456 1111 486 1081 b 417 972 486 1003 456 972 m 278 833 b 208 903 239 833 208 864 b 278 972 208 942 239 972 b 347 903 317 972 347 942 b 278 833 347 864 317 833 m 278 556 b 208 625 239 556 208 586 b 278 694 208 664 239 694 b 347 625 317 694 347 664 b 278 556 347 586 317 556 m 139 417 b 69 486 100 417 69 447 b 139 556 69 525 100 556 b 208 486 178 556 208 525 b 139 417 208 447 178 417 m 417 417 b 347 486 378 417 347 447 b 417 556 347 525 378 556 b 486 486 456 556 486 525 b 417 417 486 447 456 417 m 139 278 b 69 347 100 278 69 308 b 139 417 69 386 100 417 b 208 347 178 417 208 386 b 139 278 208 308 178 278 m 139 139 b 69 208 100 139 69 169 b 139 278 69 247 100 278 b 208 208 178 278 208 247 b 139 139 208 169 178 139 m 417 139 b 347 208 378 139 347 169 b 417 278 347 247 378 278 b 486 208 456 278 486 247 b 417 139 486 169 456 139 m 278 0 b 208 69 239 0 208 31 b 278 139 208 108 239 139 b 347 69 317 139 347 108 b 278 0 347 31 317 0 "},"Ç":{"ha":556,"x_min":0,"x_max":0,"o":"m 278 556 b 208 625 239 556 208 586 b 278 694 208 664 239 694 b 347 625 317 694 347 664 b 278 556 347 586 317 556 m 208 486 b 139 417 208 447 178 417 b 69 486 100 417 69 447 b 139 556 69 525 100 556 b 208 486 178 556 208 525 m 417 417 b 347 486 378 417 347 447 b 417 556 347 525 378 556 b 486 486 456 556 486 525 b 417 417 486 447 456 417 m 208 347 b 139 278 208 308 178 278 b 69 347 100 278 69 308 b 139 417 69 386 100 417 b 208 347 178 417 208 386 m 69 208 b 139 278 69 247 100 278 b 208 208 178 278 208 247 b 139 139 208 169 178 139 b 69 208 100 139 69 169 m 417 278 b 486 208 456 278 486 247 b 417 139 486 169 456 139 b 347 208 378 139 347 169 b 417 278 347 247 378 278 m 347 69 b 278 0 347 31 317 0 b 208 69 239 0 208 31 b 278 139 208 108 239 139 b 347 69 317 139 347 108 m 139 0 b 208 -69 178 0 208 -31 b 139 -139 208 -108 178 -139 b 69 -69 100 -139 69 -108 b 139 0 69 -31 100 0 m 208 -69 b 278 0 208 -31 239 0 b 347 -69 317 0 347 -31 b 278 -139 347 -108 317 -139 b 208 -69 239 -139 208 -108 "},"Ċ":{"ha":556,"x_min":0,"x_max":0,"o":"m 278 833 b 208 903 239 833 208 864 b 278 972 208 942 239 972 b 347 903 317 972 347 942 b 278 833 347 864 317 833 m 278 556 b 208 625 239 556 208 586 b 278 694 208 664 239 694 b 347 625 317 694 347 664 b 278 556 347 586 317 556 m 139 417 b 69 486 100 417 69 447 b 139 556 69 525 100 556 b 208 486 178 556 208 525 b 139 417 208 447 178 417 m 417 417 b 347 486 378 417 347 447 b 417 556 347 525 378 556 b 486 486 456 556 486 525 b 417 417 486 447 456 417 m 139 278 b 69 347 100 278 69 308 b 139 417 69 386 100 417 b 208 347 178 417 208 386 b 139 278 208 308 178 278 m 139 139 b 69 208 100 139 69 169 b 139 278 69 247 100 278 b 208 208 178 278 208 247 b 139 139 208 169 178 139 m 417 139 b 347 208 378 139 347 169 b 417 278 347 247 378 278 b 486 208 456 278 486 247 b 417 139 486 169 456 139 m 278 0 b 208 69 239 0 208 31 b 278 139 208 108 239 139 b 347 69 317 139 347 108 b 278 0 347 31 317 0 "},"D":{"ha":556,"x_min":0,"x_max":0,"o":"m 139 556 b 69 625 100 556 69 586 b 139 694 69 664 100 694 b 208 625 178 694 208 664 b 139 556 208 586 178 556 m 278 556 b 208 625 239 556 208 586 b 278 694 208 664 239 694 b 347 625 317 694 347 664 b 278 556 347 586 317 556 m 139 417 b 69 486 100 417 69 447 b 139 556 69 525 100 556 b 208 486 178 556 208 525 b 139 417 208 447 178 417 m 417 417 b 347 486 378 417 347 447 b 417 556 347 525 378 556 b 486 486 456 556 486 525 b 417 417 486 447 456 417 m 139 278 b 69 347 100 278 69 308 b 139 417 69 386 100 417 b 208 347 178 417 208 386 b 139 278 208 308 178 278 m 417 278 b 347 347 378 278 347 308 b 417 417 347 386 378 417 b 486 347 456 417 486 386 b 417 278 486 308 456 278 m 139 139 b 69 208 100 139 69 169 b 139 278 69 247 100 278 b 208 208 178 278 208 247 b 139 139 208 169 178 139 m 417 139 b 347 208 378 139 347 169 b 417 278 347 247 378 278 b 486 208 456 278 486 247 b 417 139 486 169 456 139 m 139 0 b 69 69 100 0 69 31 b 139 139 69 108 100 139 b 208 69 178 139 208 108 b 139 0 208 31 178 0 m 278 0 b 208 69 239 0 208 31 b 278 139 208 108 239 139 b 347 69 317 139 347 108 b 278 0 347 31 317 0 "},"Ð":{"ha":694,"x_min":0,"x_max":0,"o":"m 278 556 b 208 625 239 556 208 586 b 278 694 208 664 239 694 b 347 625 317 694 347 664 b 278 556 347 586 317 556 m 417 556 b 347 625 378 556 347 586 b 417 694 347 664 378 694 b 486 625 456 694 486 664 b 417 556 486 586 456 556 m 278 417 b 208 486 239 417 208 447 b 278 556 208 525 239 556 b 347 486 317 556 347 525 b 278 417 347 447 317 417 m 556 417 b 486 486 517 417 486 447 b 556 556 486 525 517 556 b 625 486 594 556 625 525 b 556 417 625 447 594 417 m 139 278 b 69 347 100 278 69 308 b 139 417 69 386 100 417 b 208 347 178 417 208 386 b 139 278 208 308 178 278 m 278 278 b 208 347 239 278 208 308 b 278 417 208 386 239 417 b 347 347 317 417 347 386 b 278 278 347 308 317 278 m 556 278 b 486 347 517 278 486 308 b 556 417 486 386 517 417 b 625 347 594 417 625 386 b 556 278 625 308 594 278 m 278 139 b 208 208 239 139 208 169 b 278 278 208 247 239 278 b 347 208 317 278 347 247 b 278 139 347 169 317 139 m 556 139 b 486 208 517 139 486 169 b 556 278 486 247 517 278 b 625 208 594 278 625 247 b 556 139 625 169 594 139 m 278 0 b 208 69 239 0 208 31 b 278 139 208 108 239 139 b 347 69 317 139 347 108 b 278 0 347 31 317 0 m 417 0 b 347 69 378 0 347 31 b 417 139 347 108 378 139 b 486 69 456 139 486 108 b 417 0 486 31 456 0 "},"Ď":{"ha":556,"x_min":0,"x_max":0,"o":"m 139 972 b 69 1042 100 972 69 1003 b 139 1111 69 1081 100 1111 b 208 1042 178 1111 208 1081 b 139 972 208 1003 178 972 m 417 972 b 347 1042 378 972 347 1003 b 417 1111 347 1081 378 1111 b 486 1042 456 1111 486 1081 b 417 972 486 1003 456 972 m 278 833 b 208 903 239 833 208 864 b 278 972 208 942 239 972 b 347 903 317 972 347 942 b 278 833 347 864 317 833 m 139 556 b 69 625 100 556 69 586 b 139 694 69 664 100 694 b 208 625 178 694 208 664 b 139 556 208 586 178 556 m 278 556 b 208 625 239 556 208 586 b 278 694 208 664 239 694 b 347 625 317 694 347 664 b 278 556 347 586 317 556 m 139 417 b 69 486 100 417 69 447 b 139 556 69 525 100 556 b 208 486 178 556 208 525 b 139 417 208 447 178 417 m 417 417 b 347 486 378 417 347 447 b 417 556 347 525 378 556 b 486 486 456 556 486 525 b 417 417 486 447 456 417 m 139 278 b 69 347 100 278 69 308 b 139 417 69 386 100 417 b 208 347 178 417 208 386 b 139 278 208 308 178 278 m 417 278 b 347 347 378 278 347 308 b 417 417 347 386 378 417 b 486 347 456 417 486 386 b 417 278 486 308 456 278 m 139 139 b 69 208 100 139 69 169 b 139 278 69 247 100 278 b 208 208 178 278 208 247 b 139 139 208 169 178 139 m 417 139 b 347 208 378 139 347 169 b 417 278 347 247 378 278 b 486 208 456 278 486 247 b 417 139 486 169 456 139 m 139 0 b 69 69 100 0 69 31 b 139 139 69 108 100 139 b 208 69 178 139 208 108 b 139 0 208 31 178 0 m 278 0 b 208 69 239 0 208 31 b 278 139 208 108 239 139 b 347 69 317 139 347 108 b 278 0 347 31 317 0 "},"Đ":{"ha":694,"x_min":0,"x_max":0,"o":"m 278 556 b 208 625 239 556 208 586 b 278 694 208 664 239 694 b 347 625 317 694 347 664 b 278 556 347 586 317 556 m 417 556 b 347 625 378 556 347 586 b 417 694 347 664 378 694 b 486 625 456 694 486 664 b 417 556 486 586 456 556 m 278 417 b 208 486 239 417 208 447 b 278 556 208 525 239 556 b 347 486 317 556 347 525 b 278 417 347 447 317 417 m 556 417 b 486 486 517 417 486 447 b 556 556 486 525 517 556 b 625 486 594 556 625 525 b 556 417 625 447 594 417 m 139 278 b 69 347 100 278 69 308 b 139 417 69 386 100 417 b 208 347 178 417 208 386 b 139 278 208 308 178 278 m 278 278 b 208 347 239 278 208 308 b 278 417 208 386 239 417 b 347 347 317 417 347 386 b 278 278 347 308 317 278 m 556 278 b 486 347 517 278 486 308 b 556 417 486 386 517 417 b 625 347 594 417 625 386 b 556 278 625 308 594 278 m 278 139 b 208 208 239 139 208 169 b 278 278 208 247 239 278 b 347 208 317 278 347 247 b 278 139 347 169 317 139 m 556 139 b 486 208 517 139 486 169 b 556 278 486 247 517 278 b 625 208 594 278 625 247 b 556 139 625 169 594 139 m 278 0 b 208 69 239 0 208 31 b 278 139 208 108 239 139 b 347 69 317 139 347 108 b 278 0 347 31 317 0 m 417 0 b 347 69 378 0 347 31 b 417 139 347 108 378 139 b 486 69 456 139 486 108 b 417 0 486 31 456 0 "},"E":{"ha":417,"x_min":0,"x_max":0,"o":"m 139 556 b 69 625 100 556 69 586 b 139 694 69 664 100 694 b 208 625 178 694 208 664 b 139 556 208 586 178 556 m 278 556 b 208 625 239 556 208 586 b 278 694 208 664 239 694 b 347 625 317 694 347 664 b 278 556 347 586 317 556 m 139 417 b 69 486 100 417 69 447 b 139 556 69 525 100 556 b 208 486 178 556 208 525 b 139 417 208 447 178 417 m 139 278 b 69 347 100 278 69 308 b 139 417 69 386 100 417 b 208 347 178 417 208 386 b 139 278 208 308 178 278 m 278 278 b 208 347 239 278 208 308 b 278 417 208 386 239 417 b 347 347 317 417 347 386 b 278 278 347 308 317 278 m 139 139 b 69 208 100 139 69 169 b 139 278 69 247 100 278 b 208 208 178 278 208 247 b 139 139 208 169 178 139 m 139 0 b 69 69 100 0 69 31 b 139 139 69 108 100 139 b 208 69 178 139 208 108 b 139 0 208 31 178 0 m 278 0 b 208 69 239 0 208 31 b 278 139 208 108 239 139 b 347 69 317 139 347 108 b 278 0 347 31 317 0 "},"É":{"ha":417,"x_min":0,"x_max":0,"o":"m 278 972 b 208 1042 239 972 208 1003 b 278 1111 208 1081 239 1111 b 347 1042 317 1111 347 1081 b 278 972 347 1003 317 972 m 139 833 b 69 903 100 833 69 864 b 139 972 69 942 100 972 b 208 903 178 972 208 942 b 139 833 208 864 178 833 m 139 556 b 69 625 100 556 69 586 b 139 694 69 664 100 694 b 208 625 178 694 208 664 b 139 556 208 586 178 556 m 278 556 b 208 625 239 556 208 586 b 278 694 208 664 239 694 b 347 625 317 694 347 664 b 278 556 347 586 317 556 m 139 417 b 69 486 100 417 69 447 b 139 556 69 525 100 556 b 208 486 178 556 208 525 b 139 417 208 447 178 417 m 139 278 b 69 347 100 278 69 308 b 139 417 69 386 100 417 b 208 347 178 417 208 386 b 139 278 208 308 178 278 m 278 278 b 208 347 239 278 208 308 b 278 417 208 386 239 417 b 347 347 317 417 347 386 b 278 278 347 308 317 278 m 139 139 b 69 208 100 139 69 169 b 139 278 69 247 100 278 b 208 208 178 278 208 247 b 139 139 208 169 178 139 m 139 0 b 69 69 100 0 69 31 b 139 139 69 108 100 139 b 208 69 178 139 208 108 b 139 0 208 31 178 0 m 278 0 b 208 69 239 0 208 31 b 278 139 208 108 239 139 b 347 69 317 139 347 108 b 278 0 347 31 317 0 "},"Ě":{"ha":417,"x_min":0,"x_max":0,"o":"m 0 972 b -69 1042 -39 972 -69 1003 b 0 1111 -69 1081 -39 1111 b 69 1042 39 1111 69 1081 b 0 972 69 1003 39 972 m 278 972 b 208 1042 239 972 208 1003 b 278 1111 208 1081 239 1111 b 347 1042 317 1111 347 1081 b 278 972 347 1003 317 972 m 139 833 b 69 903 100 833 69 864 b 139 972 69 942 100 972 b 208 903 178 972 208 942 b 139 833 208 864 178 833 m 139 556 b 69 625 100 556 69 586 b 139 694 69 664 100 694 b 208 625 178 694 208 664 b 139 556 208 586 178 556 m 278 556 b 208 625 239 556 208 586 b 278 694 208 664 239 694 b 347 625 317 694 347 664 b 278 556 347 586 317 556 m 139 417 b 69 486 100 417 69 447 b 139 556 69 525 100 556 b 208 486 178 556 208 525 b 139 417 208 447 178 417 m 139 278 b 69 347 100 278 69 308 b 139 417 69 386 100 417 b 208 347 178 417 208 386 b 139 278 208 308 178 278 m 278 278 b 208 347 239 278 208 308 b 278 417 208 386 239 417 b 347 347 317 417 347 386 b 278 278 347 308 317 278 m 139 139 b 69 208 100 139 69 169 b 139 278 69 247 100 278 b 208 208 178 278 208 247 b 139 139 208 169 178 139 m 139 0 b 69 69 100 0 69 31 b 139 139 69 108 100 139 b 208 69 178 139 208 108 b 139 0 208 31 178 0 m 278 0 b 208 69 239 0 208 31 b 278 139 208 108 239 139 b 347 69 317 139 347 108 b 278 0 347 31 317 0 "},"Ê":{"ha":417,"x_min":0,"x_max":0,"o":"m 278 972 b 208 1042 239 972 208 1003 b 278 1111 208 1081 239 1111 b 347 1042 317 1111 347 1081 b 278 972 347 1003 317 972 m 139 833 b 69 903 100 833 69 864 b 139 972 69 942 100 972 b 208 903 178 972 208 942 b 139 833 208 864 178 833 m 417 833 b 347 903 378 833 347 864 b 417 972 347 942 378 972 b 486 903 456 972 486 942 b 417 833 486 864 456 833 m 139 556 b 69 625 100 556 69 586 b 139 694 69 664 100 694 b 208 625 178 694 208 664 b 139 556 208 586 178 556 m 278 556 b 208 625 239 556 208 586 b 278 694 208 664 239 694 b 347 625 317 694 347 664 b 278 556 347 586 317 556 m 139 417 b 69 486 100 417 69 447 b 139 556 69 525 100 556 b 208 486 178 556 208 525 b 139 417 208 447 178 417 m 139 278 b 69 347 100 278 69 308 b 139 417 69 386 100 417 b 208 347 178 417 208 386 b 139 278 208 308 178 278 m 278 278 b 208 347 239 278 208 308 b 278 417 208 386 239 417 b 347 347 317 417 347 386 b 278 278 347 308 317 278 m 139 139 b 69 208 100 139 69 169 b 139 278 69 247 100 278 b 208 208 178 278 208 247 b 139 139 208 169 178 139 m 139 0 b 69 69 100 0 69 31 b 139 139 69 108 100 139 b 208 69 178 139 208 108 b 139 0 208 31 178 0 m 278 0 b 208 69 239 0 208 31 b 278 139 208 108 239 139 b 347 69 317 139 347 108 b 278 0 347 31 317 0 "},"Ë":{"ha":417,"x_min":0,"x_max":0,"o":"m 139 833 b 69 903 100 833 69 864 b 139 972 69 942 100 972 b 208 903 178 972 208 942 b 139 833 208 864 178 833 m 417 833 b 347 903 378 833 347 864 b 417 972 347 942 378 972 b 486 903 456 972 486 942 b 417 833 486 864 456 833 m 139 556 b 69 625 100 556 69 586 b 139 694 69 664 100 694 b 208 625 178 694 208 664 b 139 556 208 586 178 556 m 278 556 b 208 625 239 556 208 586 b 278 694 208 664 239 694 b 347 625 317 694 347 664 b 278 556 347 586 317 556 m 139 417 b 69 486 100 417 69 447 b 139 556 69 525 100 556 b 208 486 178 556 208 525 b 139 417 208 447 178 417 m 139 278 b 69 347 100 278 69 308 b 139 417 69 386 100 417 b 208 347 178 417 208 386 b 139 278 208 308 178 278 m 278 278 b 208 347 239 278 208 308 b 278 417 208 386 239 417 b 347 347 317 417 347 386 b 278 278 347 308 317 278 m 139 139 b 69 208 100 139 69 169 b 139 278 69 247 100 278 b 208 208 178 278 208 247 b 139 139 208 169 178 139 m 139 0 b 69 69 100 0 69 31 b 139 139 69 108 100 139 b 208 69 178 139 208 108 b 139 0 208 31 178 0 m 278 0 b 208 69 239 0 208 31 b 278 139 208 108 239 139 b 347 69 317 139 347 108 b 278 0 347 31 317 0 "},"Ė":{"ha":417,"x_min":0,"x_max":0,"o":"m 139 833 b 69 903 100 833 69 864 b 139 972 69 942 100 972 b 208 903 178 972 208 942 b 139 833 208 864 178 833 m 139 556 b 69 625 100 556 69 586 b 139 694 69 664 100 694 b 208 625 178 694 208 664 b 139 556 208 586 178 556 m 278 556 b 208 625 239 556 208 586 b 278 694 208 664 239 694 b 347 625 317 694 347 664 b 278 556 347 586 317 556 m 139 417 b 69 486 100 417 69 447 b 139 556 69 525 100 556 b 208 486 178 556 208 525 b 139 417 208 447 178 417 m 139 278 b 69 347 100 278 69 308 b 139 417 69 386 100 417 b 208 347 178 417 208 386 b 139 278 208 308 178 278 m 278 278 b 208 347 239 278 208 308 b 278 417 208 386 239 417 b 347 347 317 417 347 386 b 278 278 347 308 317 278 m 139 139 b 69 208 100 139 69 169 b 139 278 69 247 100 278 b 208 208 178 278 208 247 b 139 139 208 169 178 139 m 139 0 b 69 69 100 0 69 31 b 139 139 69 108 100 139 b 208 69 178 139 208 108 b 139 0 208 31 178 0 m 278 0 b 208 69 239 0 208 31 b 278 139 208 108 239 139 b 347 69 317 139 347 108 b 278 0 347 31 317 0 "},"È":{"ha":417,"x_min":0,"x_max":0,"o":"m 139 972 b 69 1042 100 972 69 1003 b 139 1111 69 1081 100 1111 b 208 1042 178 1111 208 1081 b 139 972 208 1003 178 972 m 278 833 b 208 903 239 833 208 864 b 278 972 208 942 239 972 b 347 903 317 972 347 942 b 278 833 347 864 317 833 m 139 556 b 69 625 100 556 69 586 b 139 694 69 664 100 694 b 208 625 178 694 208 664 b 139 556 208 586 178 556 m 278 556 b 208 625 239 556 208 586 b 278 694 208 664 239 694 b 347 625 317 694 347 664 b 278 556 347 586 317 556 m 139 417 b 69 486 100 417 69 447 b 139 556 69 525 100 556 b 208 486 178 556 208 525 b 139 417 208 447 178 417 m 139 278 b 69 347 100 278 69 308 b 139 417 69 386 100 417 b 208 347 178 417 208 386 b 139 278 208 308 178 278 m 278 278 b 208 347 239 278 208 308 b 278 417 208 386 239 417 b 347 347 317 417 347 386 b 278 278 347 308 317 278 m 139 139 b 69 208 100 139 69 169 b 139 278 69 247 100 278 b 208 208 178 278 208 247 b 139 139 208 169 178 139 m 139 0 b 69 69 100 0 69 31 b 139 139 69 108 100 139 b 208 69 178 139 208 108 b 139 0 208 31 178 0 m 278 0 b 208 69 239 0 208 31 b 278 139 208 108 239 139 b 347 69 317 139 347 108 b 278 0 347 31 317 0 "},"Ē":{"ha":417,"x_min":0,"x_max":0,"o":"m 139 833 b 69 903 100 833 69 864 b 139 972 69 942 100 972 b 208 903 178 972 208 942 b 139 833 208 864 178 833 m 278 833 b 208 903 239 833 208 864 b 278 972 208 942 239 972 b 347 903 317 972 347 942 b 278 833 347 864 317 833 m 417 833 b 347 903 378 833 347 864 b 417 972 347 942 378 972 b 486 903 456 972 486 942 b 417 833 486 864 456 833 m 139 556 b 69 625 100 556 69 586 b 139 694 69 664 100 694 b 208 625 178 694 208 664 b 139 556 208 586 178 556 m 278 556 b 208 625 239 556 208 586 b 278 694 208 664 239 694 b 347 625 317 694 347 664 b 278 556 347 586 317 556 m 139 417 b 69 486 100 417 69 447 b 139 556 69 525 100 556 b 208 486 178 556 208 525 b 139 417 208 447 178 417 m 139 278 b 69 347 100 278 69 308 b 139 417 69 386 100 417 b 208 347 178 417 208 386 b 139 278 208 308 178 278 m 278 278 b 208 347 239 278 208 308 b 278 417 208 386 239 417 b 347 347 317 417 347 386 b 278 278 347 308 317 278 m 139 139 b 69 208 100 139 69 169 b 139 278 69 247 100 278 b 208 208 178 278 208 247 b 139 139 208 169 178 139 m 139 0 b 69 69 100 0 69 31 b 139 139 69 108 100 139 b 208 69 178 139 208 108 b 139 0 208 31 178 0 m 278 0 b 208 69 239 0 208 31 b 278 139 208 108 239 139 b 347 69 317 139 347 108 b 278 0 347 31 317 0 "},"Ę":{"ha":417,"x_min":0,"x_max":0,"o":"m 139 556 b 69 625 100 556 69 586 b 139 694 69 664 100 694 b 208 625 178 694 208 664 b 139 556 208 586 178 556 m 278 556 b 208 625 239 556 208 586 b 278 694 208 664 239 694 b 347 625 317 694 347 664 b 278 556 347 586 317 556 m 139 417 b 69 486 100 417 69 447 b 139 556 69 525 100 556 b 208 486 178 556 208 525 b 139 417 208 447 178 417 m 139 278 b 69 347 100 278 69 308 b 139 417 69 386 100 417 b 208 347 178 417 208 386 b 139 278 208 308 178 278 m 278 278 b 208 347 239 278 208 308 b 278 417 208 386 239 417 b 347 347 317 417 347 386 b 278 278 347 308 317 278 m 139 139 b 69 208 100 139 69 169 b 139 278 69 247 100 278 b 208 208 178 278 208 247 b 139 139 208 169 178 139 m 139 0 b 69 69 100 0 69 31 b 139 139 69 108 100 139 b 208 69 178 139 208 108 b 139 0 208 31 178 0 m 278 0 b 208 69 239 0 208 31 b 278 139 208 108 239 139 b 347 69 317 139 347 108 b 278 0 347 31 317 0 m 278 -139 b 208 -69 239 -139 208 -108 b 278 0 208 -31 239 0 b 347 -69 317 0 347 -31 b 278 -139 347 -108 317 -139 m 278 -278 b 208 -208 239 -278 208 -247 b 278 -139 208 -169 239 -139 b 347 -208 317 -139 347 -169 b 278 -278 347 -247 317 -278 m 417 -278 b 347 -208 378 -278 347 -247 b 417 -139 347 -169 378 -139 b 486 -208 456 -139 486 -169 b 417 -278 486 -247 456 -278 "},"F":{"ha":417,"x_min":0,"x_max":0,"o":"m 139 556 b 69 625 100 556 69 586 b 139 694 69 664 100 694 b 208 625 178 694 208 664 b 139 556 208 586 178 556 m 278 556 b 208 625 239 556 208 586 b 278 694 208 664 239 694 b 347 625 317 694 347 664 b 278 556 347 586 317 556 m 139 417 b 69 486 100 417 69 447 b 139 556 69 525 100 556 b 208 486 178 556 208 525 b 139 417 208 447 178 417 m 139 278 b 69 347 100 278 69 308 b 139 417 69 386 100 417 b 208 347 178 417 208 386 b 139 278 208 308 178 278 m 278 278 b 208 347 239 278 208 308 b 278 417 208 386 239 417 b 347 347 317 417 347 386 b 278 278 347 308 317 278 m 139 139 b 69 208 100 139 69 169 b 139 278 69 247 100 278 b 208 208 178 278 208 247 b 139 139 208 169 178 139 m 139 0 b 69 69 100 0 69 31 b 139 139 69 108 100 139 b 208 69 178 139 208 108 b 139 0 208 31 178 0 "},"G":{"ha":556,"x_min":0,"x_max":0,"o":"m 278 556 b 208 625 239 556 208 586 b 278 694 208 664 239 694 b 347 625 317 694 347 664 b 278 556 347 586 317 556 m 417 556 b 347 625 378 556 347 586 b 417 694 347 664 378 694 b 486 625 456 694 486 664 b 417 556 486 586 456 556 m 139 417 b 69 486 100 417 69 447 b 139 556 69 525 100 556 b 208 486 178 556 208 525 b 139 417 208 447 178 417 m 139 278 b 69 347 100 278 69 308 b 139 417 69 386 100 417 b 208 347 178 417 208 386 b 139 278 208 308 178 278 m 417 278 b 347 347 378 278 347 308 b 417 417 347 386 378 417 b 486 347 456 417 486 386 b 417 278 486 308 456 278 m 139 139 b 69 208 100 139 69 169 b 139 278 69 247 100 278 b 208 208 178 278 208 247 b 139 139 208 169 178 139 m 417 139 b 347 208 378 139 347 169 b 417 278 347 247 378 278 b 486 208 456 278 486 247 b 417 139 486 169 456 139 m 278 0 b 208 69 239 0 208 31 b 278 139 208 108 239 139 b 347 69 317 139 347 108 b 278 0 347 31 317 0 m 417 0 b 347 69 378 0 347 31 b 417 139 347 108 378 139 b 486 69 456 139 486 108 b 417 0 486 31 456 0 "},"Ğ":{"ha":556,"x_min":0,"x_max":0,"o":"m 139 972 b 69 1042 100 972 69 1003 b 139 1111 69 1081 100 1111 b 208 1042 178 1111 208 1081 b 139 972 208 1003 178 972 m 417 972 b 347 1042 378 972 347 1003 b 417 1111 347 1081 378 1111 b 486 1042 456 1111 486 1081 b 417 972 486 1003 456 972 m 139 833 b 69 903 100 833 69 864 b 139 972 69 942 100 972 b 208 903 178 972 208 942 b 139 833 208 864 178 833 m 278 833 b 208 903 239 833 208 864 b 278 972 208 942 239 972 b 347 903 317 972 347 942 b 278 833 347 864 317 833 m 417 833 b 347 903 378 833 347 864 b 417 972 347 942 378 972 b 486 903 456 972 486 942 b 417 833 486 864 456 833 m 278 556 b 208 625 239 556 208 586 b 278 694 208 664 239 694 b 347 625 317 694 347 664 b 278 556 347 586 317 556 m 417 556 b 347 625 378 556 347 586 b 417 694 347 664 378 694 b 486 625 456 694 486 664 b 417 556 486 586 456 556 m 139 417 b 69 486 100 417 69 447 b 139 556 69 525 100 556 b 208 486 178 556 208 525 b 139 417 208 447 178 417 m 139 278 b 69 347 100 278 69 308 b 139 417 69 386 100 417 b 208 347 178 417 208 386 b 139 278 208 308 178 278 m 417 278 b 347 347 378 278 347 308 b 417 417 347 386 378 417 b 486 347 456 417 486 386 b 417 278 486 308 456 278 m 139 139 b 69 208 100 139 69 169 b 139 278 69 247 100 278 b 208 208 178 278 208 247 b 139 139 208 169 178 139 m 417 139 b 347 208 378 139 347 169 b 417 278 347 247 378 278 b 486 208 456 278 486 247 b 417 139 486 169 456 139 m 278 0 b 208 69 239 0 208 31 b 278 139 208 108 239 139 b 347 69 317 139 347 108 b 278 0 347 31 317 0 m 417 0 b 347 69 378 0 347 31 b 417 139 347 108 378 139 b 486 69 456 139 486 108 b 417 0 486 31 456 0 "},"Ģ":{"ha":556,"x_min":0,"x_max":0,"o":"m 278 556 b 208 625 239 556 208 586 b 278 694 208 664 239 694 b 347 625 317 694 347 664 b 278 556 347 586 317 556 m 417 556 b 347 625 378 556 347 586 b 417 694 347 664 378 694 b 486 625 456 694 486 664 b 417 556 486 586 456 556 m 139 417 b 69 486 100 417 69 447 b 139 556 69 525 100 556 b 208 486 178 556 208 525 b 139 417 208 447 178 417 m 139 278 b 69 347 100 278 69 308 b 139 417 69 386 100 417 b 208 347 178 417 208 386 b 139 278 208 308 178 278 m 417 278 b 347 347 378 278 347 308 b 417 417 347 386 378 417 b 486 347 456 417 486 386 b 417 278 486 308 456 278 m 139 139 b 69 208 100 139 69 169 b 139 278 69 247 100 278 b 208 208 178 278 208 247 b 139 139 208 169 178 139 m 417 139 b 347 208 378 139 347 169 b 417 278 347 247 378 278 b 486 208 456 278 486 247 b 417 139 486 169 456 139 m 278 0 b 208 69 239 0 208 31 b 278 139 208 108 239 139 b 347 69 317 139 347 108 b 278 0 347 31 317 0 m 417 0 b 347 69 378 0 347 31 b 417 139 347 108 378 139 b 486 69 456 139 486 108 b 417 0 486 31 456 0 m 278 -278 b 208 -208 239 -278 208 -247 b 278 -139 208 -169 239 -139 b 347 -208 317 -139 347 -169 b 278 -278 347 -247 317 -278 m 417 -278 b 347 -208 378 -278 347 -247 b 417 -139 347 -169 378 -139 b 486 -208 456 -139 486 -169 b 417 -278 486 -247 456 -278 m 417 -417 b 347 -347 378 -417 347 -386 b 417 -278 347 -308 378 -278 b 486 -347 456 -278 486 -308 b 417 -417 486 -386 456 -417 m 278 -556 b 208 -486 239 -556 208 -525 b 278 -417 208 -447 239 -417 b 347 -486 317 -417 347 -447 b 278 -556 347 -525 317 -556 "},"Ġ":{"ha":556,"x_min":0,"x_max":0,"o":"m 278 833 b 208 903 239 833 208 864 b 278 972 208 942 239 972 b 347 903 317 972 347 942 b 278 833 347 864 317 833 m 278 556 b 208 625 239 556 208 586 b 278 694 208 664 239 694 b 347 625 317 694 347 664 b 278 556 347 586 317 556 m 417 556 b 347 625 378 556 347 586 b 417 694 347 664 378 694 b 486 625 456 694 486 664 b 417 556 486 586 456 556 m 139 417 b 69 486 100 417 69 447 b 139 556 69 525 100 556 b 208 486 178 556 208 525 b 139 417 208 447 178 417 m 139 278 b 69 347 100 278 69 308 b 139 417 69 386 100 417 b 208 347 178 417 208 386 b 139 278 208 308 178 278 m 417 278 b 347 347 378 278 347 308 b 417 417 347 386 378 417 b 486 347 456 417 486 386 b 417 278 486 308 456 278 m 139 139 b 69 208 100 139 69 169 b 139 278 69 247 100 278 b 208 208 178 278 208 247 b 139 139 208 169 178 139 m 417 139 b 347 208 378 139 347 169 b 417 278 347 247 378 278 b 486 208 456 278 486 247 b 417 139 486 169 456 139 m 278 0 b 208 69 239 0 208 31 b 278 139 208 108 239 139 b 347 69 317 139 347 108 b 278 0 347 31 317 0 m 417 0 b 347 69 378 0 347 31 b 417 139 347 108 378 139 b 486 69 456 139 486 108 b 417 0 486 31 456 0 "},"H":{"ha":556,"x_min":0,"x_max":0,"o":"m 139 556 b 69 625 100 556 69 586 b 139 694 69 664 100 694 b 208 625 178 694 208 664 b 139 556 208 586 178 556 m 417 556 b 347 625 378 556 347 586 b 417 694 347 664 378 694 b 486 625 456 694 486 664 b 417 556 486 586 456 556 m 139 417 b 69 486 100 417 69 447 b 139 556 69 525 100 556 b 208 486 178 556 208 525 b 139 417 208 447 178 417 m 417 417 b 347 486 378 417 347 447 b 417 556 347 525 378 556 b 486 486 456 556 486 525 b 417 417 486 447 456 417 m 139 278 b 69 347 100 278 69 308 b 139 417 69 386 100 417 b 208 347 178 417 208 386 b 139 278 208 308 178 278 m 278 278 b 208 347 239 278 208 308 b 278 417 208 386 239 417 b 347 347 317 417 347 386 b 278 278 347 308 317 278 m 417 278 b 347 347 378 278 347 308 b 417 417 347 386 378 417 b 486 347 456 417 486 386 b 417 278 486 308 456 278 m 139 139 b 69 208 100 139 69 169 b 139 278 69 247 100 278 b 208 208 178 278 208 247 b 139 139 208 169 178 139 m 417 139 b 347 208 378 139 347 169 b 417 278 347 247 378 278 b 486 208 456 278 486 247 b 417 139 486 169 456 139 m 139 0 b 69 69 100 0 69 31 b 139 139 69 108 100 139 b 208 69 178 139 208 108 b 139 0 208 31 178 0 m 417 0 b 347 69 378 0 347 31 b 417 139 347 108 378 139 b 486 69 456 139 486 108 b 417 0 486 31 456 0 "},"Ħ":{"ha":972,"x_min":0,"x_max":0,"o":"m 278 556 b 208 625 239 556 208 586 b 278 694 208 664 239 694 b 347 625 317 694 347 664 b 278 556 347 586 317 556 m 694 556 b 625 625 656 556 625 586 b 694 694 625 664 656 694 b 764 625 733 694 764 664 b 694 556 764 586 733 556 m 139 417 b 69 486 100 417 69 447 b 139 556 69 525 100 556 b 208 486 178 556 208 525 b 139 417 208 447 178 417 m 278 417 b 208 486 239 417 208 447 b 278 556 208 525 239 556 b 347 486 317 556 347 525 b 278 417 347 447 317 417 m 417 417 b 347 486 378 417 347 447 b 417 556 347 525 378 556 b 486 486 456 556 486 525 b 417 417 486 447 456 417 m 556 417 b 486 486 517 417 486 447 b 556 556 486 525 517 556 b 625 486 594 556 625 525 b 556 417 625 447 594 417 m 694 417 b 625 486 656 417 625 447 b 694 556 625 525 656 556 b 764 486 733 556 764 525 b 694 417 764 447 733 417 m 833 417 b 764 486 794 417 764 447 b 833 556 764 525 794 556 b 903 486 872 556 903 525 b 833 417 903 447 872 417 m 278 278 b 208 347 239 278 208 308 b 278 417 208 386 239 417 b 347 347 317 417 347 386 b 278 278 347 308 317 278 m 694 278 b 625 347 656 278 625 308 b 694 417 625 386 656 417 b 764 347 733 417 764 386 b 694 278 764 308 733 278 m 278 139 b 208 208 239 139 208 169 b 278 278 208 247 239 278 b 347 208 317 278 347 247 b 278 139 347 169 317 139 m 417 139 b 347 208 378 139 347 169 b 417 278 347 247 378 278 b 486 208 456 278 486 247 b 417 139 486 169 456 139 m 556 139 b 486 208 517 139 486 169 b 556 278 486 247 517 278 b 625 208 594 278 625 247 b 556 139 625 169 594 139 m 694 139 b 625 208 656 139 625 169 b 694 278 625 247 656 278 b 764 208 733 278 764 247 b 694 139 764 169 733 139 m 278 0 b 208 69 239 0 208 31 b 278 139 208 108 239 139 b 347 69 317 139 347 108 b 278 0 347 31 317 0 m 694 0 b 625 69 656 0 625 31 b 694 139 625 108 656 139 b 764 69 733 139 764 108 b 694 0 764 31 733 0 "},"I":{"ha":278,"x_min":0,"x_max":0,"o":"m 139 556 b 69 625 100 556 69 586 b 139 694 69 664 100 694 b 208 625 178 694 208 664 b 139 556 208 586 178 556 m 139 417 b 69 486 100 417 69 447 b 139 556 69 525 100 556 b 208 486 178 556 208 525 b 139 417 208 447 178 417 m 139 278 b 69 347 100 278 69 308 b 139 417 69 386 100 417 b 208 347 178 417 208 386 b 139 278 208 308 178 278 m 139 139 b 69 208 100 139 69 169 b 139 278 69 247 100 278 b 208 208 178 278 208 247 b 139 139 208 169 178 139 m 139 0 b 69 69 100 0 69 31 b 139 139 69 108 100 139 b 208 69 178 139 208 108 b 139 0 208 31 178 0 "},"Í":{"ha":278,"x_min":0,"x_max":0,"o":"m 278 972 b 208 1042 239 972 208 1003 b 278 1111 208 1081 239 1111 b 347 1042 317 1111 347 1081 b 278 972 347 1003 317 972 m 139 833 b 69 903 100 833 69 864 b 139 972 69 942 100 972 b 208 903 178 972 208 942 b 139 833 208 864 178 833 m 139 556 b 69 625 100 556 69 586 b 139 694 69 664 100 694 b 208 625 178 694 208 664 b 139 556 208 586 178 556 m 139 417 b 69 486 100 417 69 447 b 139 556 69 525 100 556 b 208 486 178 556 208 525 b 139 417 208 447 178 417 m 139 278 b 69 347 100 278 69 308 b 139 417 69 386 100 417 b 208 347 178 417 208 386 b 139 278 208 308 178 278 m 139 139 b 69 208 100 139 69 169 b 139 278 69 247 100 278 b 208 208 178 278 208 247 b 139 139 208 169 178 139 m 139 0 b 69 69 100 0 69 31 b 139 139 69 108 100 139 b 208 69 178 139 208 108 b 139 0 208 31 178 0 "},"Î":{"ha":278,"x_min":0,"x_max":0,"o":"m 139 972 b 69 1042 100 972 69 1003 b 139 1111 69 1081 100 1111 b 208 1042 178 1111 208 1081 b 139 972 208 1003 178 972 m 0 833 b -69 903 -39 833 -69 864 b 0 972 -69 942 -39 972 b 69 903 39 972 69 942 b 0 833 69 864 39 833 m 278 833 b 208 903 239 833 208 864 b 278 972 208 942 239 972 b 347 903 317 972 347 942 b 278 833 347 864 317 833 m 139 556 b 69 625 100 556 69 586 b 139 694 69 664 100 694 b 208 625 178 694 208 664 b 139 556 208 586 178 556 m 139 417 b 69 486 100 417 69 447 b 139 556 69 525 100 556 b 208 486 178 556 208 525 b 139 417 208 447 178 417 m 139 278 b 69 347 100 278 69 308 b 139 417 69 386 100 417 b 208 347 178 417 208 386 b 139 278 208 308 178 278 m 139 139 b 69 208 100 139 69 169 b 139 278 69 247 100 278 b 208 208 178 278 208 247 b 139 139 208 169 178 139 m 139 0 b 69 69 100 0 69 31 b 139 139 69 108 100 139 b 208 69 178 139 208 108 b 139 0 208 31 178 0 "},"Ï":{"ha":278,"x_min":0,"x_max":0,"o":"m 0 833 b -69 903 -39 833 -69 864 b 0 972 -69 942 -39 972 b 69 903 39 972 69 942 b 0 833 69 864 39 833 m 278 833 b 208 903 239 833 208 864 b 278 972 208 942 239 972 b 347 903 317 972 347 942 b 278 833 347 864 317 833 m 139 556 b 69 625 100 556 69 586 b 139 694 69 664 100 694 b 208 625 178 694 208 664 b 139 556 208 586 178 556 m 139 417 b 69 486 100 417 69 447 b 139 556 69 525 100 556 b 208 486 178 556 208 525 b 139 417 208 447 178 417 m 139 278 b 69 347 100 278 69 308 b 139 417 69 386 100 417 b 208 347 178 417 208 386 b 139 278 208 308 178 278 m 139 139 b 69 208 100 139 69 169 b 139 278 69 247 100 278 b 208 208 178 278 208 247 b 139 139 208 169 178 139 m 139 0 b 69 69 100 0 69 31 b 139 139 69 108 100 139 b 208 69 178 139 208 108 b 139 0 208 31 178 0 "},"İ":{"ha":278,"x_min":0,"x_max":0,"o":"m 139 833 b 69 903 100 833 69 864 b 139 972 69 942 100 972 b 208 903 178 972 208 942 b 139 833 208 864 178 833 m 139 556 b 69 625 100 556 69 586 b 139 694 69 664 100 694 b 208 625 178 694 208 664 b 139 556 208 586 178 556 m 139 417 b 69 486 100 417 69 447 b 139 556 69 525 100 556 b 208 486 178 556 208 525 b 139 417 208 447 178 417 m 139 278 b 69 347 100 278 69 308 b 139 417 69 386 100 417 b 208 347 178 417 208 386 b 139 278 208 308 178 278 m 139 139 b 69 208 100 139 69 169 b 139 278 69 247 100 278 b 208 208 178 278 208 247 b 139 139 208 169 178 139 m 139 0 b 69 69 100 0 69 31 b 139 139 69 108 100 139 b 208 69 178 139 208 108 b 139 0 208 31 178 0 "},"Ì":{"ha":278,"x_min":0,"x_max":0,"o":"m 0 972 b -69 1042 -39 972 -69 1003 b 0 1111 -69 1081 -39 1111 b 69 1042 39 1111 69 1081 b 0 972 69 1003 39 972 m 139 833 b 69 903 100 833 69 864 b 139 972 69 942 100 972 b 208 903 178 972 208 942 b 139 833 208 864 178 833 m 139 556 b 69 625 100 556 69 586 b 139 694 69 664 100 694 b 208 625 178 694 208 664 b 139 556 208 586 178 556 m 139 417 b 69 486 100 417 69 447 b 139 556 69 525 100 556 b 208 486 178 556 208 525 b 139 417 208 447 178 417 m 139 278 b 69 347 100 278 69 308 b 139 417 69 386 100 417 b 208 347 178 417 208 386 b 139 278 208 308 178 278 m 139 139 b 69 208 100 139 69 169 b 139 278 69 247 100 278 b 208 208 178 278 208 247 b 139 139 208 169 178 139 m 139 0 b 69 69 100 0 69 31 b 139 139 69 108 100 139 b 208 69 178 139 208 108 b 139 0 208 31 178 0 "},"Ī":{"ha":278,"x_min":0,"x_max":0,"o":"m 0 833 b -69 903 -39 833 -69 864 b 0 972 -69 942 -39 972 b 69 903 39 972 69 942 b 0 833 69 864 39 833 m 139 833 b 69 903 100 833 69 864 b 139 972 69 942 100 972 b 208 903 178 972 208 942 b 139 833 208 864 178 833 m 278 833 b 208 903 239 833 208 864 b 278 972 208 942 239 972 b 347 903 317 972 347 942 b 278 833 347 864 317 833 m 139 556 b 69 625 100 556 69 586 b 139 694 69 664 100 694 b 208 625 178 694 208 664 b 139 556 208 586 178 556 m 139 417 b 69 486 100 417 69 447 b 139 556 69 525 100 556 b 208 486 178 556 208 525 b 139 417 208 447 178 417 m 139 278 b 69 347 100 278 69 308 b 139 417 69 386 100 417 b 208 347 178 417 208 386 b 139 278 208 308 178 278 m 139 139 b 69 208 100 139 69 169 b 139 278 69 247 100 278 b 208 208 178 278 208 247 b 139 139 208 169 178 139 m 139 0 b 69 69 100 0 69 31 b 139 139 69 108 100 139 b 208 69 178 139 208 108 b 139 0 208 31 178 0 "},"Į":{"ha":278,"x_min":0,"x_max":0,"o":"m 139 556 b 69 625 100 556 69 586 b 139 694 69 664 100 694 b 208 625 178 694 208 664 b 139 556 208 586 178 556 m 139 417 b 69 486 100 417 69 447 b 139 556 69 525 100 556 b 208 486 178 556 208 525 b 139 417 208 447 178 417 m 139 278 b 69 347 100 278 69 308 b 139 417 69 386 100 417 b 208 347 178 417 208 386 b 139 278 208 308 178 278 m 139 139 b 69 208 100 139 69 169 b 139 278 69 247 100 278 b 208 208 178 278 208 247 b 139 139 208 169 178 139 m 139 0 b 69 69 100 0 69 31 b 139 139 69 108 100 139 b 208 69 178 139 208 108 b 139 0 208 31 178 0 m 0 -139 b -69 -69 -39 -139 -69 -108 b 0 0 -69 -31 -39 0 b 69 -69 39 0 69 -31 b 0 -139 69 -108 39 -139 m 0 -278 b -69 -208 -39 -278 -69 -247 b 0 -139 -69 -169 -39 -139 b 69 -208 39 -139 69 -169 b 0 -278 69 -247 39 -278 m 139 -278 b 69 -208 100 -278 69 -247 b 139 -139 69 -169 100 -139 b 208 -208 178 -139 208 -169 b 139 -278 208 -247 178 -278 "},"J":{"ha":556,"x_min":0,"x_max":0,"o":"m 417 556 b 347 625 378 556 347 586 b 417 694 347 664 378 694 b 486 625 456 694 486 664 b 417 556 486 586 456 556 m 417 417 b 347 486 378 417 347 447 b 417 556 347 525 378 556 b 486 486 456 556 486 525 b 417 417 486 447 456 417 m 139 278 b 69 347 100 278 69 308 b 139 417 69 386 100 417 b 208 347 178 417 208 386 b 139 278 208 308 178 278 m 417 278 b 347 347 378 278 347 308 b 417 417 347 386 378 417 b 486 347 456 417 486 386 b 417 278 486 308 456 278 m 139 139 b 69 208 100 139 69 169 b 139 278 69 247 100 278 b 208 208 178 278 208 247 b 139 139 208 169 178 139 m 417 139 b 347 208 378 139 347 169 b 417 278 347 247 378 278 b 486 208 456 278 486 247 b 417 139 486 169 456 139 m 278 0 b 208 69 239 0 208 31 b 278 139 208 108 239 139 b 347 69 317 139 347 108 b 278 0 347 31 317 0 "},"K":{"ha":556,"x_min":0,"x_max":0,"o":"m 139 556 b 69 625 100 556 69 586 b 139 694 69 664 100 694 b 208 625 178 694 208 664 b 139 556 208 586 178 556 m 417 556 b 347 625 378 556 347 586 b 417 694 347 664 378 694 b 486 625 456 694 486 664 b 417 556 486 586 456 556 m 139 417 b 69 486 100 417 69 447 b 139 556 69 525 100 556 b 208 486 178 556 208 525 b 139 417 208 447 178 417 m 278 417 b 208 486 239 417 208 447 b 278 556 208 525 239 556 b 347 486 317 556 347 525 b 278 417 347 447 317 417 m 139 278 b 69 347 100 278 69 308 b 139 417 69 386 100 417 b 208 347 178 417 208 386 b 139 278 208 308 178 278 m 139 139 b 69 208 100 139 69 169 b 139 278 69 247 100 278 b 208 208 178 278 208 247 b 139 139 208 169 178 139 m 278 139 b 208 208 239 139 208 169 b 278 278 208 247 239 278 b 347 208 317 278 347 247 b 278 139 347 169 317 139 m 139 0 b 69 69 100 0 69 31 b 139 139 69 108 100 139 b 208 69 178 139 208 108 b 139 0 208 31 178 0 m 417 0 b 347 69 378 0 347 31 b 417 139 347 108 378 139 b 486 69 456 139 486 108 b 417 0 486 31 456 0 "},"Ķ":{"ha":556,"x_min":0,"x_max":0,"o":"m 139 556 b 69 625 100 556 69 586 b 139 694 69 664 100 694 b 208 625 178 694 208 664 b 139 556 208 586 178 556 m 417 556 b 347 625 378 556 347 586 b 417 694 347 664 378 694 b 486 625 456 694 486 664 b 417 556 486 586 456 556 m 139 417 b 69 486 100 417 69 447 b 139 556 69 525 100 556 b 208 486 178 556 208 525 b 139 417 208 447 178 417 m 278 417 b 208 486 239 417 208 447 b 278 556 208 525 239 556 b 347 486 317 556 347 525 b 278 417 347 447 317 417 m 139 278 b 69 347 100 278 69 308 b 139 417 69 386 100 417 b 208 347 178 417 208 386 b 139 278 208 308 178 278 m 139 139 b 69 208 100 139 69 169 b 139 278 69 247 100 278 b 208 208 178 278 208 247 b 139 139 208 169 178 139 m 278 139 b 208 208 239 139 208 169 b 278 278 208 247 239 278 b 347 208 317 278 347 247 b 278 139 347 169 317 139 m 139 0 b 69 69 100 0 69 31 b 139 139 69 108 100 139 b 208 69 178 139 208 108 b 139 0 208 31 178 0 m 417 0 b 347 69 378 0 347 31 b 417 139 347 108 378 139 b 486 69 456 139 486 108 b 417 0 486 31 456 0 m 139 -278 b 69 -208 100 -278 69 -247 b 139 -139 69 -169 100 -139 b 208 -208 178 -139 208 -169 b 139 -278 208 -247 178 -278 m 278 -278 b 208 -208 239 -278 208 -247 b 278 -139 208 -169 239 -139 b 347 -208 317 -139 347 -169 b 278 -278 347 -247 317 -278 m 278 -417 b 208 -347 239 -417 208 -386 b 278 -278 208 -308 239 -278 b 347 -347 317 -278 347 -308 b 278 -417 347 -386 317 -417 m 139 -556 b 69 -486 100 -556 69 -525 b 139 -417 69 -447 100 -417 b 208 -486 178 -417 208 -447 b 139 -556 208 -525 178 -556 "},"L":{"ha":417,"x_min":0,"x_max":0,"o":"m 139 556 b 69 625 100 556 69 586 b 139 694 69 664 100 694 b 208 625 178 694 208 664 b 139 556 208 586 178 556 m 139 417 b 69 486 100 417 69 447 b 139 556 69 525 100 556 b 208 486 178 556 208 525 b 139 417 208 447 178 417 m 139 278 b 69 347 100 278 69 308 b 139 417 69 386 100 417 b 208 347 178 417 208 386 b 139 278 208 308 178 278 m 139 139 b 69 208 100 139 69 169 b 139 278 69 247 100 278 b 208 208 178 278 208 247 b 139 139 208 169 178 139 m 139 0 b 69 69 100 0 69 31 b 139 139 69 108 100 139 b 208 69 178 139 208 108 b 139 0 208 31 178 0 m 278 0 b 208 69 239 0 208 31 b 278 139 208 108 239 139 b 347 69 317 139 347 108 b 278 0 347 31 317 0 "},"Ĺ":{"ha":417,"x_min":0,"x_max":0,"o":"m 278 972 b 208 1042 239 972 208 1003 b 278 1111 208 1081 239 1111 b 347 1042 317 1111 347 1081 b 278 972 347 1003 317 972 m 139 833 b 69 903 100 833 69 864 b 139 972 69 942 100 972 b 208 903 178 972 208 942 b 139 833 208 864 178 833 m 139 556 b 69 625 100 556 69 586 b 139 694 69 664 100 694 b 208 625 178 694 208 664 b 139 556 208 586 178 556 m 139 417 b 69 486 100 417 69 447 b 139 556 69 525 100 556 b 208 486 178 556 208 525 b 139 417 208 447 178 417 m 139 278 b 69 347 100 278 69 308 b 139 417 69 386 100 417 b 208 347 178 417 208 386 b 139 278 208 308 178 278 m 139 139 b 69 208 100 139 69 169 b 139 278 69 247 100 278 b 208 208 178 278 208 247 b 139 139 208 169 178 139 m 139 0 b 69 69 100 0 69 31 b 139 139 69 108 100 139 b 208 69 178 139 208 108 b 139 0 208 31 178 0 m 278 0 b 208 69 239 0 208 31 b 278 139 208 108 239 139 b 347 69 317 139 347 108 b 278 0 347 31 317 0 "},"Ľ":{"ha":694,"x_min":0,"x_max":0,"o":"m 139 556 b 69 625 100 556 69 586 b 139 694 69 664 100 694 b 208 625 178 694 208 664 b 139 556 208 586 178 556 m 417 556 b 347 625 378 556 347 586 b 417 694 347 664 378 694 b 486 625 456 694 486 664 b 417 556 486 586 456 556 m 556 556 b 486 625 517 556 486 586 b 556 694 486 664 517 694 b 625 625 594 694 625 664 b 556 556 625 586 594 556 m 139 417 b 69 486 100 417 69 447 b 139 556 69 525 100 556 b 208 486 178 556 208 525 b 139 417 208 447 178 417 m 556 417 b 486 486 517 417 486 447 b 556 556 486 525 517 556 b 625 486 594 556 625 525 b 556 417 625 447 594 417 m 139 278 b 69 347 100 278 69 308 b 139 417 69 386 100 417 b 208 347 178 417 208 386 b 139 278 208 308 178 278 m 417 278 b 347 347 378 278 347 308 b 417 417 347 386 378 417 b 486 347 456 417 486 386 b 417 278 486 308 456 278 m 139 139 b 69 208 100 139 69 169 b 139 278 69 247 100 278 b 208 208 178 278 208 247 b 139 139 208 169 178 139 m 139 0 b 69 69 100 0 69 31 b 139 139 69 108 100 139 b 208 69 178 139 208 108 b 139 0 208 31 178 0 m 278 0 b 208 69 239 0 208 31 b 278 139 208 108 239 139 b 347 69 317 139 347 108 b 278 0 347 31 317 0 "},"Ļ":{"ha":417,"x_min":0,"x_max":0,"o":"m 139 556 b 69 625 100 556 69 586 b 139 694 69 664 100 694 b 208 625 178 694 208 664 b 139 556 208 586 178 556 m 139 417 b 69 486 100 417 69 447 b 139 556 69 525 100 556 b 208 486 178 556 208 525 b 139 417 208 447 178 417 m 139 278 b 69 347 100 278 69 308 b 139 417 69 386 100 417 b 208 347 178 417 208 386 b 139 278 208 308 178 278 m 139 139 b 69 208 100 139 69 169 b 139 278 69 247 100 278 b 208 208 178 278 208 247 b 139 139 208 169 178 139 m 139 0 b 69 69 100 0 69 31 b 139 139 69 108 100 139 b 208 69 178 139 208 108 b 139 0 208 31 178 0 m 278 0 b 208 69 239 0 208 31 b 278 139 208 108 239 139 b 347 69 317 139 347 108 b 278 0 347 31 317 0 m 139 -278 b 69 -208 100 -278 69 -247 b 139 -139 69 -169 100 -139 b 208 -208 178 -139 208 -169 b 139 -278 208 -247 178 -278 m 278 -278 b 208 -208 239 -278 208 -247 b 278 -139 208 -169 239 -139 b 347 -208 317 -139 347 -169 b 278 -278 347 -247 317 -278 m 278 -417 b 208 -347 239 -417 208 -386 b 278 -278 208 -308 239 -278 b 347 -347 317 -278 347 -308 b 278 -417 347 -386 317 -417 m 139 -556 b 69 -486 100 -556 69 -525 b 139 -417 69 -447 100 -417 b 208 -486 178 -417 208 -447 b 139 -556 208 -525 178 -556 "},"Ł":{"ha":556,"x_min":0,"x_max":0,"o":"m 278 556 b 208 625 239 556 208 586 b 278 694 208 664 239 694 b 347 625 317 694 347 664 b 278 556 347 586 317 556 m 278 417 b 208 486 239 417 208 447 b 278 556 208 525 239 556 b 347 486 317 556 347 525 b 278 417 347 447 317 417 m 417 417 b 347 486 378 417 347 447 b 417 556 347 525 378 556 b 486 486 456 556 486 525 b 417 417 486 447 456 417 m 139 278 b 69 347 100 278 69 308 b 139 417 69 386 100 417 b 208 347 178 417 208 386 b 139 278 208 308 178 278 m 278 278 b 208 347 239 278 208 308 b 278 417 208 386 239 417 b 347 347 317 417 347 386 b 278 278 347 308 317 278 m 278 139 b 208 208 239 139 208 169 b 278 278 208 247 239 278 b 347 208 317 278 347 247 b 278 139 347 169 317 139 m 278 0 b 208 69 239 0 208 31 b 278 139 208 108 239 139 b 347 69 317 139 347 108 b 278 0 347 31 317 0 m 417 0 b 347 69 378 0 347 31 b 417 139 347 108 378 139 b 486 69 456 139 486 108 b 417 0 486 31 456 0 "},"M":{"ha":833,"x_min":0,"x_max":0,"o":"m 139 556 b 69 625 100 556 69 586 b 139 694 69 664 100 694 b 208 625 178 694 208 664 b 139 556 208 586 178 556 m 694 556 b 625 625 656 556 625 586 b 694 694 625 664 656 694 b 764 625 733 694 764 664 b 694 556 764 586 733 556 m 139 417 b 69 486 100 417 69 447 b 139 556 69 525 100 556 b 208 486 178 556 208 525 b 139 417 208 447 178 417 m 278 417 b 208 486 239 417 208 447 b 278 556 208 525 239 556 b 347 486 317 556 347 525 b 278 417 347 447 317 417 m 556 417 b 486 486 517 417 486 447 b 556 556 486 525 517 556 b 625 486 594 556 625 525 b 556 417 625 447 594 417 m 694 417 b 625 486 656 417 625 447 b 694 556 625 525 656 556 b 764 486 733 556 764 525 b 694 417 764 447 733 417 m 139 278 b 69 347 100 278 69 308 b 139 417 69 386 100 417 b 208 347 178 417 208 386 b 139 278 208 308 178 278 m 417 278 b 347 347 378 278 347 308 b 417 417 347 386 378 417 b 486 347 456 417 486 386 b 417 278 486 308 456 278 m 694 278 b 625 347 656 278 625 308 b 694 417 625 386 656 417 b 764 347 733 417 764 386 b 694 278 764 308 733 278 m 139 139 b 69 208 100 139 69 169 b 139 278 69 247 100 278 b 208 208 178 278 208 247 b 139 139 208 169 178 139 m 694 139 b 625 208 656 139 625 169 b 694 278 625 247 656 278 b 764 208 733 278 764 247 b 694 139 764 169 733 139 m 139 0 b 69 69 100 0 69 31 b 139 139 69 108 100 139 b 208 69 178 139 208 108 b 139 0 208 31 178 0 m 694 0 b 625 69 656 0 625 31 b 694 139 625 108 656 139 b 764 69 733 139 764 108 b 694 0 764 31 733 0 "},"N":{"ha":556,"x_min":0,"x_max":0,"o":"m 139 556 b 69 625 100 556 69 586 b 139 694 69 664 100 694 b 208 625 178 694 208 664 b 139 556 208 586 178 556 m 278 556 b 208 625 239 556 208 586 b 278 694 208 664 239 694 b 347 625 317 694 347 664 b 278 556 347 586 317 556 m 139 417 b 69 486 100 417 69 447 b 139 556 69 525 100 556 b 208 486 178 556 208 525 b 139 417 208 447 178 417 m 417 417 b 347 486 378 417 347 447 b 417 556 347 525 378 556 b 486 486 456 556 486 525 b 417 417 486 447 456 417 m 139 278 b 69 347 100 278 69 308 b 139 417 69 386 100 417 b 208 347 178 417 208 386 b 139 278 208 308 178 278 m 417 278 b 347 347 378 278 347 308 b 417 417 347 386 378 417 b 486 347 456 417 486 386 b 417 278 486 308 456 278 m 139 139 b 69 208 100 139 69 169 b 139 278 69 247 100 278 b 208 208 178 278 208 247 b 139 139 208 169 178 139 m 417 139 b 347 208 378 139 347 169 b 417 278 347 247 378 278 b 486 208 456 278 486 247 b 417 139 486 169 456 139 m 139 0 b 69 69 100 0 69 31 b 139 139 69 108 100 139 b 208 69 178 139 208 108 b 139 0 208 31 178 0 m 417 0 b 347 69 378 0 347 31 b 417 139 347 108 378 139 b 486 69 456 139 486 108 b 417 0 486 31 456 0 "},"Ń":{"ha":556,"x_min":0,"x_max":0,"o":"m 417 972 b 347 1042 378 972 347 1003 b 417 1111 347 1081 378 1111 b 486 1042 456 1111 486 1081 b 417 972 486 1003 456 972 m 278 833 b 208 903 239 833 208 864 b 278 972 208 942 239 972 b 347 903 317 972 347 942 b 278 833 347 864 317 833 m 139 556 b 69 625 100 556 69 586 b 139 694 69 664 100 694 b 208 625 178 694 208 664 b 139 556 208 586 178 556 m 278 556 b 208 625 239 556 208 586 b 278 694 208 664 239 694 b 347 625 317 694 347 664 b 278 556 347 586 317 556 m 139 417 b 69 486 100 417 69 447 b 139 556 69 525 100 556 b 208 486 178 556 208 525 b 139 417 208 447 178 417 m 417 417 b 347 486 378 417 347 447 b 417 556 347 525 378 556 b 486 486 456 556 486 525 b 417 417 486 447 456 417 m 139 278 b 69 347 100 278 69 308 b 139 417 69 386 100 417 b 208 347 178 417 208 386 b 139 278 208 308 178 278 m 417 278 b 347 347 378 278 347 308 b 417 417 347 386 378 417 b 486 347 456 417 486 386 b 417 278 486 308 456 278 m 139 139 b 69 208 100 139 69 169 b 139 278 69 247 100 278 b 208 208 178 278 208 247 b 139 139 208 169 178 139 m 417 139 b 347 208 378 139 347 169 b 417 278 347 247 378 278 b 486 208 456 278 486 247 b 417 139 486 169 456 139 m 139 0 b 69 69 100 0 69 31 b 139 139 69 108 100 139 b 208 69 178 139 208 108 b 139 0 208 31 178 0 m 417 0 b 347 69 378 0 347 31 b 417 139 347 108 378 139 b 486 69 456 139 486 108 b 417 0 486 31 456 0 "},"Ň":{"ha":556,"x_min":0,"x_max":0,"o":"m 139 972 b 69 1042 100 972 69 1003 b 139 1111 69 1081 100 1111 b 208 1042 178 1111 208 1081 b 139 972 208 1003 178 972 m 417 972 b 347 1042 378 972 347 1003 b 417 1111 347 1081 378 1111 b 486 1042 456 1111 486 1081 b 417 972 486 1003 456 972 m 278 833 b 208 903 239 833 208 864 b 278 972 208 942 239 972 b 347 903 317 972 347 942 b 278 833 347 864 317 833 m 139 556 b 69 625 100 556 69 586 b 139 694 69 664 100 694 b 208 625 178 694 208 664 b 139 556 208 586 178 556 m 278 556 b 208 625 239 556 208 586 b 278 694 208 664 239 694 b 347 625 317 694 347 664 b 278 556 347 586 317 556 m 139 417 b 69 486 100 417 69 447 b 139 556 69 525 100 556 b 208 486 178 556 208 525 b 139 417 208 447 178 417 m 417 417 b 347 486 378 417 347 447 b 417 556 347 525 378 556 b 486 486 456 556 486 525 b 417 417 486 447 456 417 m 139 278 b 69 347 100 278 69 308 b 139 417 69 386 100 417 b 208 347 178 417 208 386 b 139 278 208 308 178 278 m 417 278 b 347 347 378 278 347 308 b 417 417 347 386 378 417 b 486 347 456 417 486 386 b 417 278 486 308 456 278 m 139 139 b 69 208 100 139 69 169 b 139 278 69 247 100 278 b 208 208 178 278 208 247 b 139 139 208 169 178 139 m 417 139 b 347 208 378 139 347 169 b 417 278 347 247 378 278 b 486 208 456 278 486 247 b 417 139 486 169 456 139 m 139 0 b 69 69 100 0 69 31 b 139 139 69 108 100 139 b 208 69 178 139 208 108 b 139 0 208 31 178 0 m 417 0 b 347 69 378 0 347 31 b 417 139 347 108 378 139 b 486 69 456 139 486 108 b 417 0 486 31 456 0 "},"Ņ":{"ha":556,"x_min":0,"x_max":0,"o":"m 139 556 b 69 625 100 556 69 586 b 139 694 69 664 100 694 b 208 625 178 694 208 664 b 139 556 208 586 178 556 m 278 556 b 208 625 239 556 208 586 b 278 694 208 664 239 694 b 347 625 317 694 347 664 b 278 556 347 586 317 556 m 139 417 b 69 486 100 417 69 447 b 139 556 69 525 100 556 b 208 486 178 556 208 525 b 139 417 208 447 178 417 m 417 417 b 347 486 378 417 347 447 b 417 556 347 525 378 556 b 486 486 456 556 486 525 b 417 417 486 447 456 417 m 139 278 b 69 347 100 278 69 308 b 139 417 69 386 100 417 b 208 347 178 417 208 386 b 139 278 208 308 178 278 m 417 278 b 347 347 378 278 347 308 b 417 417 347 386 378 417 b 486 347 456 417 486 386 b 417 278 486 308 456 278 m 139 139 b 69 208 100 139 69 169 b 139 278 69 247 100 278 b 208 208 178 278 208 247 b 139 139 208 169 178 139 m 417 139 b 347 208 378 139 347 169 b 417 278 347 247 378 278 b 486 208 456 278 486 247 b 417 139 486 169 456 139 m 139 0 b 69 69 100 0 69 31 b 139 139 69 108 100 139 b 208 69 178 139 208 108 b 139 0 208 31 178 0 m 417 0 b 347 69 378 0 347 31 b 417 139 347 108 378 139 b 486 69 456 139 486 108 b 417 0 486 31 456 0 m 139 -278 b 69 -208 100 -278 69 -247 b 139 -139 69 -169 100 -139 b 208 -208 178 -139 208 -169 b 139 -278 208 -247 178 -278 m 278 -278 b 208 -208 239 -278 208 -247 b 278 -139 208 -169 239 -139 b 347 -208 317 -139 347 -169 b 278 -278 347 -247 317 -278 m 278 -417 b 208 -347 239 -417 208 -386 b 278 -278 208 -308 239 -278 b 347 -347 317 -278 347 -308 b 278 -417 347 -386 317 -417 m 139 -556 b 69 -486 100 -556 69 -525 b 139 -417 69 -447 100 -417 b 208 -486 178 -417 208 -447 b 139 -556 208 -525 178 -556 "},"Ŋ":{"ha":556,"x_min":0,"x_max":0,"o":"m 139 556 b 69 625 100 556 69 586 b 139 694 69 664 100 694 b 208 625 178 694 208 664 b 139 556 208 586 178 556 m 278 556 b 208 625 239 556 208 586 b 278 694 208 664 239 694 b 347 625 317 694 347 664 b 278 556 347 586 317 556 m 139 417 b 69 486 100 417 69 447 b 139 556 69 525 100 556 b 208 486 178 556 208 525 b 139 417 208 447 178 417 m 417 417 b 347 486 378 417 347 447 b 417 556 347 525 378 556 b 486 486 456 556 486 525 b 417 417 486 447 456 417 m 139 278 b 69 347 100 278 69 308 b 139 417 69 386 100 417 b 208 347 178 417 208 386 b 139 278 208 308 178 278 m 417 278 b 347 347 378 278 347 308 b 417 417 347 386 378 417 b 486 347 456 417 486 386 b 417 278 486 308 456 278 m 139 139 b 69 208 100 139 69 169 b 139 278 69 247 100 278 b 208 208 178 278 208 247 b 139 139 208 169 178 139 m 417 139 b 347 208 378 139 347 169 b 417 278 347 247 378 278 b 486 208 456 278 486 247 b 417 139 486 169 456 139 m 139 0 b 69 69 100 0 69 31 b 139 139 69 108 100 139 b 208 69 178 139 208 108 b 139 0 208 31 178 0 m 417 0 b 347 69 378 0 347 31 b 417 139 347 108 378 139 b 486 69 456 139 486 108 b 417 0 486 31 456 0 m 417 -139 b 347 -69 378 -139 347 -108 b 417 0 347 -31 378 0 b 486 -69 456 0 486 -31 b 417 -139 486 -108 456 -139 m 278 -278 b 208 -208 239 -278 208 -247 b 278 -139 208 -169 239 -139 b 347 -208 317 -139 347 -169 b 278 -278 347 -247 317 -278 m 417 -278 b 347 -208 378 -278 347 -247 b 417 -139 347 -169 378 -139 b 486 -208 456 -139 486 -169 b 417 -278 486 -247 456 -278 "},"Ñ":{"ha":556,"x_min":0,"x_max":0,"o":"m 278 972 b 208 1042 239 972 208 1003 b 278 1111 208 1081 239 1111 b 347 1042 317 1111 347 1081 b 278 972 347 1003 317 972 m 556 972 b 486 1042 517 972 486 1003 b 556 1111 486 1081 517 1111 b 625 1042 594 1111 625 1081 b 556 972 625 1003 594 972 m 139 833 b 69 903 100 833 69 864 b 139 972 69 942 100 972 b 208 903 178 972 208 942 b 139 833 208 864 178 833 m 417 833 b 347 903 378 833 347 864 b 417 972 347 942 378 972 b 486 903 456 972 486 942 b 417 833 486 864 456 833 m 139 556 b 69 625 100 556 69 586 b 139 694 69 664 100 694 b 208 625 178 694 208 664 b 139 556 208 586 178 556 m 278 556 b 208 625 239 556 208 586 b 278 694 208 664 239 694 b 347 625 317 694 347 664 b 278 556 347 586 317 556 m 139 417 b 69 486 100 417 69 447 b 139 556 69 525 100 556 b 208 486 178 556 208 525 b 139 417 208 447 178 417 m 417 417 b 347 486 378 417 347 447 b 417 556 347 525 378 556 b 486 486 456 556 486 525 b 417 417 486 447 456 417 m 139 278 b 69 347 100 278 69 308 b 139 417 69 386 100 417 b 208 347 178 417 208 386 b 139 278 208 308 178 278 m 417 278 b 347 347 378 278 347 308 b 417 417 347 386 378 417 b 486 347 456 417 486 386 b 417 278 486 308 456 278 m 139 139 b 69 208 100 139 69 169 b 139 278 69 247 100 278 b 208 208 178 278 208 247 b 139 139 208 169 178 139 m 417 139 b 347 208 378 139 347 169 b 417 278 347 247 378 278 b 486 208 456 278 486 247 b 417 139 486 169 456 139 m 139 0 b 69 69 100 0 69 31 b 139 139 69 108 100 139 b 208 69 178 139 208 108 b 139 0 208 31 178 0 m 417 0 b 347 69 378 0 347 31 b 417 139 347 108 378 139 b 486 69 456 139 486 108 b 417 0 486 31 456 0 "},"O":{"ha":556,"x_min":0,"x_max":0,"o":"m 278 556 b 208 625 239 556 208 586 b 278 694 208 664 239 694 b 347 625 317 694 347 664 b 278 556 347 586 317 556 m 139 417 b 69 486 100 417 69 447 b 139 556 69 525 100 556 b 208 486 178 556 208 525 b 139 417 208 447 178 417 m 417 417 b 347 486 378 417 347 447 b 417 556 347 525 378 556 b 486 486 456 556 486 525 b 417 417 486 447 456 417 m 139 278 b 69 347 100 278 69 308 b 139 417 69 386 100 417 b 208 347 178 417 208 386 b 139 278 208 308 178 278 m 417 278 b 347 347 378 278 347 308 b 417 417 347 386 378 417 b 486 347 456 417 486 386 b 417 278 486 308 456 278 m 139 139 b 69 208 100 139 69 169 b 139 278 69 247 100 278 b 208 208 178 278 208 247 b 139 139 208 169 178 139 m 417 139 b 347 208 378 139 347 169 b 417 278 347 247 378 278 b 486 208 456 278 486 247 b 417 139 486 169 456 139 m 278 0 b 208 69 239 0 208 31 b 278 139 208 108 239 139 b 347 69 317 139 347 108 b 278 0 347 31 317 0 "},"Ó":{"ha":556,"x_min":0,"x_max":0,"o":"m 417 972 b 347 1042 378 972 347 1003 b 417 1111 347 1081 378 1111 b 486 1042 456 1111 486 1081 b 417 972 486 1003 456 972 m 278 833 b 208 903 239 833 208 864 b 278 972 208 942 239 972 b 347 903 317 972 347 942 b 278 833 347 864 317 833 m 278 556 b 208 625 239 556 208 586 b 278 694 208 664 239 694 b 347 625 317 694 347 664 b 278 556 347 586 317 556 m 139 417 b 69 486 100 417 69 447 b 139 556 69 525 100 556 b 208 486 178 556 208 525 b 139 417 208 447 178 417 m 417 417 b 347 486 378 417 347 447 b 417 556 347 525 378 556 b 486 486 456 556 486 525 b 417 417 486 447 456 417 m 139 278 b 69 347 100 278 69 308 b 139 417 69 386 100 417 b 208 347 178 417 208 386 b 139 278 208 308 178 278 m 417 278 b 347 347 378 278 347 308 b 417 417 347 386 378 417 b 486 347 456 417 486 386 b 417 278 486 308 456 278 m 139 139 b 69 208 100 139 69 169 b 139 278 69 247 100 278 b 208 208 178 278 208 247 b 139 139 208 169 178 139 m 417 139 b 347 208 378 139 347 169 b 417 278 347 247 378 278 b 486 208 456 278 486 247 b 417 139 486 169 456 139 m 278 0 b 208 69 239 0 208 31 b 278 139 208 108 239 139 b 347 69 317 139 347 108 b 278 0 347 31 317 0 "},"Ô":{"ha":556,"x_min":0,"x_max":0,"o":"m 278 972 b 208 1042 239 972 208 1003 b 278 1111 208 1081 239 1111 b 347 1042 317 1111 347 1081 b 278 972 347 1003 317 972 m 139 833 b 69 903 100 833 69 864 b 139 972 69 942 100 972 b 208 903 178 972 208 942 b 139 833 208 864 178 833 m 417 833 b 347 903 378 833 347 864 b 417 972 347 942 378 972 b 486 903 456 972 486 942 b 417 833 486 864 456 833 m 278 556 b 208 625 239 556 208 586 b 278 694 208 664 239 694 b 347 625 317 694 347 664 b 278 556 347 586 317 556 m 139 417 b 69 486 100 417 69 447 b 139 556 69 525 100 556 b 208 486 178 556 208 525 b 139 417 208 447 178 417 m 417 417 b 347 486 378 417 347 447 b 417 556 347 525 378 556 b 486 486 456 556 486 525 b 417 417 486 447 456 417 m 139 278 b 69 347 100 278 69 308 b 139 417 69 386 100 417 b 208 347 178 417 208 386 b 139 278 208 308 178 278 m 417 278 b 347 347 378 278 347 308 b 417 417 347 386 378 417 b 486 347 456 417 486 386 b 417 278 486 308 456 278 m 139 139 b 69 208 100 139 69 169 b 139 278 69 247 100 278 b 208 208 178 278 208 247 b 139 139 208 169 178 139 m 417 139 b 347 208 378 139 347 169 b 417 278 347 247 378 278 b 486 208 456 278 486 247 b 417 139 486 169 456 139 m 278 0 b 208 69 239 0 208 31 b 278 139 208 108 239 139 b 347 69 317 139 347 108 b 278 0 347 31 317 0 "},"Ö":{"ha":556,"x_min":0,"x_max":0,"o":"m 139 833 b 69 903 100 833 69 864 b 139 972 69 942 100 972 b 208 903 178 972 208 942 b 139 833 208 864 178 833 m 417 833 b 347 903 378 833 347 864 b 417 972 347 942 378 972 b 486 903 456 972 486 942 b 417 833 486 864 456 833 m 278 556 b 208 625 239 556 208 586 b 278 694 208 664 239 694 b 347 625 317 694 347 664 b 278 556 347 586 317 556 m 139 417 b 69 486 100 417 69 447 b 139 556 69 525 100 556 b 208 486 178 556 208 525 b 139 417 208 447 178 417 m 417 417 b 347 486 378 417 347 447 b 417 556 347 525 378 556 b 486 486 456 556 486 525 b 417 417 486 447 456 417 m 139 278 b 69 347 100 278 69 308 b 139 417 69 386 100 417 b 208 347 178 417 208 386 b 139 278 208 308 178 278 m 417 278 b 347 347 378 278 347 308 b 417 417 347 386 378 417 b 486 347 456 417 486 386 b 417 278 486 308 456 278 m 139 139 b 69 208 100 139 69 169 b 139 278 69 247 100 278 b 208 208 178 278 208 247 b 139 139 208 169 178 139 m 417 139 b 347 208 378 139 347 169 b 417 278 347 247 378 278 b 486 208 456 278 486 247 b 417 139 486 169 456 139 m 278 0 b 208 69 239 0 208 31 b 278 139 208 108 239 139 b 347 69 317 139 347 108 b 278 0 347 31 317 0 "},"Ò":{"ha":556,"x_min":0,"x_max":0,"o":"m 139 972 b 69 1042 100 972 69 1003 b 139 1111 69 1081 100 1111 b 208 1042 178 1111 208 1081 b 139 972 208 1003 178 972 m 278 833 b 208 903 239 833 208 864 b 278 972 208 942 239 972 b 347 903 317 972 347 942 b 278 833 347 864 317 833 m 278 556 b 208 625 239 556 208 586 b 278 694 208 664 239 694 b 347 625 317 694 347 664 b 278 556 347 586 317 556 m 139 417 b 69 486 100 417 69 447 b 139 556 69 525 100 556 b 208 486 178 556 208 525 b 139 417 208 447 178 417 m 417 417 b 347 486 378 417 347 447 b 417 556 347 525 378 556 b 486 486 456 556 486 525 b 417 417 486 447 456 417 m 139 278 b 69 347 100 278 69 308 b 139 417 69 386 100 417 b 208 347 178 417 208 386 b 139 278 208 308 178 278 m 417 278 b 347 347 378 278 347 308 b 417 417 347 386 378 417 b 486 347 456 417 486 386 b 417 278 486 308 456 278 m 139 139 b 69 208 100 139 69 169 b 139 278 69 247 100 278 b 208 208 178 278 208 247 b 139 139 208 169 178 139 m 417 139 b 347 208 378 139 347 169 b 417 278 347 247 378 278 b 486 208 456 278 486 247 b 417 139 486 169 456 139 m 278 0 b 208 69 239 0 208 31 b 278 139 208 108 239 139 b 347 69 317 139 347 108 b 278 0 347 31 317 0 "},"Ő":{"ha":556,"x_min":0,"x_max":0,"o":"m 278 972 b 208 1042 239 972 208 1003 b 278 1111 208 1081 239 1111 b 347 1042 317 1111 347 1081 b 278 972 347 1003 317 972 m 556 972 b 486 1042 517 972 486 1003 b 556 1111 486 1081 517 1111 b 625 1042 594 1111 625 1081 b 556 972 625 1003 594 972 m 139 833 b 69 903 100 833 69 864 b 139 972 69 942 100 972 b 208 903 178 972 208 942 b 139 833 208 864 178 833 m 417 833 b 347 903 378 833 347 864 b 417 972 347 942 378 972 b 486 903 456 972 486 942 b 417 833 486 864 456 833 m 278 556 b 208 625 239 556 208 586 b 278 694 208 664 239 694 b 347 625 317 694 347 664 b 278 556 347 586 317 556 m 139 417 b 69 486 100 417 69 447 b 139 556 69 525 100 556 b 208 486 178 556 208 525 b 139 417 208 447 178 417 m 417 417 b 347 486 378 417 347 447 b 417 556 347 525 378 556 b 486 486 456 556 486 525 b 417 417 486 447 456 417 m 139 278 b 69 347 100 278 69 308 b 139 417 69 386 100 417 b 208 347 178 417 208 386 b 139 278 208 308 178 278 m 417 278 b 347 347 378 278 347 308 b 417 417 347 386 378 417 b 486 347 456 417 486 386 b 417 278 486 308 456 278 m 139 139 b 69 208 100 139 69 169 b 139 278 69 247 100 278 b 208 208 178 278 208 247 b 139 139 208 169 178 139 m 417 139 b 347 208 378 139 347 169 b 417 278 347 247 378 278 b 486 208 456 278 486 247 b 417 139 486 169 456 139 m 278 0 b 208 69 239 0 208 31 b 278 139 208 108 239 139 b 347 69 317 139 347 108 b 278 0 347 31 317 0 "},"Ō":{"ha":556,"x_min":0,"x_max":0,"o":"m 139 833 b 69 903 100 833 69 864 b 139 972 69 942 100 972 b 208 903 178 972 208 942 b 139 833 208 864 178 833 m 278 833 b 208 903 239 833 208 864 b 278 972 208 942 239 972 b 347 903 317 972 347 942 b 278 833 347 864 317 833 m 417 833 b 347 903 378 833 347 864 b 417 972 347 942 378 972 b 486 903 456 972 486 942 b 417 833 486 864 456 833 m 278 556 b 208 625 239 556 208 586 b 278 694 208 664 239 694 b 347 625 317 694 347 664 b 278 556 347 586 317 556 m 139 417 b 69 486 100 417 69 447 b 139 556 69 525 100 556 b 208 486 178 556 208 525 b 139 417 208 447 178 417 m 417 417 b 347 486 378 417 347 447 b 417 556 347 525 378 556 b 486 486 456 556 486 525 b 417 417 486 447 456 417 m 139 278 b 69 347 100 278 69 308 b 139 417 69 386 100 417 b 208 347 178 417 208 386 b 139 278 208 308 178 278 m 417 278 b 347 347 378 278 347 308 b 417 417 347 386 378 417 b 486 347 456 417 486 386 b 417 278 486 308 456 278 m 139 139 b 69 208 100 139 69 169 b 139 278 69 247 100 278 b 208 208 178 278 208 247 b 139 139 208 169 178 139 m 417 139 b 347 208 378 139 347 169 b 417 278 347 247 378 278 b 486 208 456 278 486 247 b 417 139 486 169 456 139 m 278 0 b 208 69 239 0 208 31 b 278 139 208 108 239 139 b 347 69 317 139 347 108 b 278 0 347 31 317 0 "},"Ø":{"ha":833,"x_min":0,"x_max":0,"o":"m 278 556 b 208 625 239 556 208 586 b 278 694 208 664 239 694 b 347 625 317 694 347 664 b 278 556 347 586 317 556 m 417 556 b 347 625 378 556 347 586 b 417 694 347 664 378 694 b 486 625 456 694 486 664 b 417 556 486 586 456 556 m 694 556 b 625 625 656 556 625 586 b 694 694 625 664 656 694 b 764 625 733 694 764 664 b 694 556 764 586 733 556 m 139 417 b 69 486 100 417 69 447 b 139 556 69 525 100 556 b 208 486 178 556 208 525 b 139 417 208 447 178 417 m 556 417 b 486 486 517 417 486 447 b 556 556 486 525 517 556 b 625 486 594 556 625 525 b 556 417 625 447 594 417 m 139 278 b 69 347 100 278 69 308 b 139 417 69 386 100 417 b 208 347 178 417 208 386 b 139 278 208 308 178 278 m 417 278 b 347 347 378 278 347 308 b 417 417 347 386 378 417 b 486 347 456 417 486 386 b 417 278 486 308 456 278 m 694 278 b 625 347 656 278 625 308 b 694 417 625 386 656 417 b 764 347 733 417 764 386 b 694 278 764 308 733 278 m 278 139 b 208 208 239 139 208 169 b 278 278 208 247 239 278 b 347 208 317 278 347 247 b 278 139 347 169 317 139 m 694 139 b 625 208 656 139 625 169 b 694 278 625 247 656 278 b 764 208 733 278 764 247 b 694 139 764 169 733 139 m 139 0 b 69 69 100 0 69 31 b 139 139 69 108 100 139 b 208 69 178 139 208 108 b 139 0 208 31 178 0 m 417 0 b 347 69 378 0 347 31 b 417 139 347 108 378 139 b 486 69 456 139 486 108 b 417 0 486 31 456 0 m 556 0 b 486 69 517 0 486 31 b 556 139 486 108 517 139 b 625 69 594 139 625 108 b 556 0 625 31 594 0 "},"Õ":{"ha":556,"x_min":0,"x_max":0,"o":"m 278 972 b 208 1042 239 972 208 1003 b 278 1111 208 1081 239 1111 b 347 1042 317 1111 347 1081 b 278 972 347 1003 317 972 m 556 972 b 486 1042 517 972 486 1003 b 556 1111 486 1081 517 1111 b 625 1042 594 1111 625 1081 b 556 972 625 1003 594 972 m 139 833 b 69 903 100 833 69 864 b 139 972 69 942 100 972 b 208 903 178 972 208 942 b 139 833 208 864 178 833 m 417 833 b 347 903 378 833 347 864 b 417 972 347 942 378 972 b 486 903 456 972 486 942 b 417 833 486 864 456 833 m 278 556 b 208 625 239 556 208 586 b 278 694 208 664 239 694 b 347 625 317 694 347 664 b 278 556 347 586 317 556 m 139 417 b 69 486 100 417 69 447 b 139 556 69 525 100 556 b 208 486 178 556 208 525 b 139 417 208 447 178 417 m 417 417 b 347 486 378 417 347 447 b 417 556 347 525 378 556 b 486 486 456 556 486 525 b 417 417 486 447 456 417 m 139 278 b 69 347 100 278 69 308 b 139 417 69 386 100 417 b 208 347 178 417 208 386 b 139 278 208 308 178 278 m 417 278 b 347 347 378 278 347 308 b 417 417 347 386 378 417 b 486 347 456 417 486 386 b 417 278 486 308 456 278 m 139 139 b 69 208 100 139 69 169 b 139 278 69 247 100 278 b 208 208 178 278 208 247 b 139 139 208 169 178 139 m 417 139 b 347 208 378 139 347 169 b 417 278 347 247 378 278 b 486 208 456 278 486 247 b 417 139 486 169 456 139 m 278 0 b 208 69 239 0 208 31 b 278 139 208 108 239 139 b 347 69 317 139 347 108 b 278 0 347 31 317 0 "},"Œ":{"ha":694,"x_min":0,"x_max":0,"o":"m 278 694 b 347 625 317 694 347 664 b 278 556 347 586 317 556 b 208 625 239 556 208 586 b 278 694 208 664 239 694 m 486 625 b 417 556 486 586 456 556 b 347 625 378 556 347 586 b 417 694 347 664 378 694 b 486 625 456 694 486 664 m 556 556 b 486 625 517 556 486 586 b 556 694 486 664 517 694 b 625 625 594 694 625 664 b 556 556 625 586 594 556 m 208 486 b 139 417 208 447 178 417 b 69 486 100 417 69 447 b 139 556 69 525 100 556 b 208 486 178 556 208 525 m 486 486 b 417 417 486 447 456 417 b 347 486 378 417 347 447 b 417 556 347 525 378 556 b 486 486 456 556 486 525 m 208 347 b 139 278 208 308 178 278 b 69 347 100 278 69 308 b 139 417 69 386 100 417 b 208 347 178 417 208 386 m 486 347 b 417 278 486 308 456 278 b 347 347 378 278 347 308 b 417 417 347 386 378 417 b 486 347 456 417 486 386 m 556 278 b 486 347 517 278 486 308 b 556 417 486 386 517 417 b 625 347 594 417 625 386 b 556 278 625 308 594 278 m 139 278 b 208 208 178 278 208 247 b 139 139 208 169 178 139 b 69 208 100 139 69 169 b 139 278 69 247 100 278 m 347 208 b 417 278 347 247 378 278 b 486 208 456 278 486 247 b 417 139 486 169 456 139 b 347 208 378 139 347 169 m 278 139 b 347 69 317 139 347 108 b 278 0 347 31 317 0 b 208 69 239 0 208 31 b 278 139 208 108 239 139 m 347 69 b 417 139 347 108 378 139 b 486 69 456 139 486 108 b 417 0 486 31 456 0 b 347 69 378 0 347 31 m 556 0 b 486 69 517 0 486 31 b 556 139 486 108 517 139 b 625 69 594 139 625 108 b 556 0 625 31 594 0 "},"P":{"ha":556,"x_min":0,"x_max":0,"o":"m 139 556 b 69 625 100 556 69 586 b 139 694 69 664 100 694 b 208 625 178 694 208 664 b 139 556 208 586 178 556 m 278 556 b 208 625 239 556 208 586 b 278 694 208 664 239 694 b 347 625 317 694 347 664 b 278 556 347 586 317 556 m 139 417 b 69 486 100 417 69 447 b 139 556 69 525 100 556 b 208 486 178 556 208 525 b 139 417 208 447 178 417 m 417 417 b 347 486 378 417 347 447 b 417 556 347 525 378 556 b 486 486 456 556 486 525 b 417 417 486 447 456 417 m 139 278 b 69 347 100 278 69 308 b 139 417 69 386 100 417 b 208 347 178 417 208 386 b 139 278 208 308 178 278 m 278 278 b 208 347 239 278 208 308 b 278 417 208 386 239 417 b 347 347 317 417 347 386 b 278 278 347 308 317 278 m 139 139 b 69 208 100 139 69 169 b 139 278 69 247 100 278 b 208 208 178 278 208 247 b 139 139 208 169 178 139 m 139 0 b 69 69 100 0 69 31 b 139 139 69 108 100 139 b 208 69 178 139 208 108 b 139 0 208 31 178 0 "},"Þ":{"ha":556,"x_min":0,"x_max":0,"o":"m 139 556 b 69 625 100 556 69 586 b 139 694 69 664 100 694 b 208 625 178 694 208 664 b 139 556 208 586 178 556 m 139 417 b 69 486 100 417 69 447 b 139 556 69 525 100 556 b 208 486 178 556 208 525 b 139 417 208 447 178 417 m 278 417 b 208 486 239 417 208 447 b 278 556 208 525 239 556 b 347 486 317 556 347 525 b 278 417 347 447 317 417 m 139 278 b 69 347 100 278 69 308 b 139 417 69 386 100 417 b 208 347 178 417 208 386 b 139 278 208 308 178 278 m 417 278 b 347 347 378 278 347 308 b 417 417 347 386 378 417 b 486 347 456 417 486 386 b 417 278 486 308 456 278 m 139 139 b 69 208 100 139 69 169 b 139 278 69 247 100 278 b 208 208 178 278 208 247 b 139 139 208 169 178 139 m 278 139 b 208 208 239 139 208 169 b 278 278 208 247 239 278 b 347 208 317 278 347 247 b 278 139 347 169 317 139 m 139 0 b 69 69 100 0 69 31 b 139 139 69 108 100 139 b 208 69 178 139 208 108 b 139 0 208 31 178 0 "},"Q":{"ha":556,"x_min":0,"x_max":0,"o":"m 278 556 b 208 625 239 556 208 586 b 278 694 208 664 239 694 b 347 625 317 694 347 664 b 278 556 347 586 317 556 m 139 417 b 69 486 100 417 69 447 b 139 556 69 525 100 556 b 208 486 178 556 208 525 b 139 417 208 447 178 417 m 417 417 b 347 486 378 417 347 447 b 417 556 347 525 378 556 b 486 486 456 556 486 525 b 417 417 486 447 456 417 m 139 278 b 69 347 100 278 69 308 b 139 417 69 386 100 417 b 208 347 178 417 208 386 b 139 278 208 308 178 278 m 417 278 b 347 347 378 278 347 308 b 417 417 347 386 378 417 b 486 347 456 417 486 386 b 417 278 486 308 456 278 m 139 139 b 69 208 100 139 69 169 b 139 278 69 247 100 278 b 208 208 178 278 208 247 b 139 139 208 169 178 139 m 278 139 b 208 208 239 139 208 169 b 278 278 208 247 239 278 b 347 208 317 278 347 247 b 278 139 347 169 317 139 m 278 0 b 208 69 239 0 208 31 b 278 139 208 108 239 139 b 347 69 317 139 347 108 b 278 0 347 31 317 0 m 417 0 b 347 69 378 0 347 31 b 417 139 347 108 378 139 b 486 69 456 139 486 108 b 417 0 486 31 456 0 "},"R":{"ha":556,"x_min":0,"x_max":0,"o":"m 139 556 b 69 625 100 556 69 586 b 139 694 69 664 100 694 b 208 625 178 694 208 664 b 139 556 208 586 178 556 m 278 556 b 208 625 239 556 208 586 b 278 694 208 664 239 694 b 347 625 317 694 347 664 b 278 556 347 586 317 556 m 139 417 b 69 486 100 417 69 447 b 139 556 69 525 100 556 b 208 486 178 556 208 525 b 139 417 208 447 178 417 m 417 417 b 347 486 378 417 347 447 b 417 556 347 525 378 556 b 486 486 456 556 486 525 b 417 417 486 447 456 417 m 139 278 b 69 347 100 278 69 308 b 139 417 69 386 100 417 b 208 347 178 417 208 386 b 139 278 208 308 178 278 m 278 278 b 208 347 239 278 208 308 b 278 417 208 386 239 417 b 347 347 317 417 347 386 b 278 278 347 308 317 278 m 139 139 b 69 208 100 139 69 169 b 139 278 69 247 100 278 b 208 208 178 278 208 247 b 139 139 208 169 178 139 m 417 139 b 347 208 378 139 347 169 b 417 278 347 247 378 278 b 486 208 456 278 486 247 b 417 139 486 169 456 139 m 139 0 b 69 69 100 0 69 31 b 139 139 69 108 100 139 b 208 69 178 139 208 108 b 139 0 208 31 178 0 m 417 0 b 347 69 378 0 347 31 b 417 139 347 108 378 139 b 486 69 456 139 486 108 b 417 0 486 31 456 0 "},"Ŕ":{"ha":556,"x_min":0,"x_max":0,"o":"m 417 972 b 347 1042 378 972 347 1003 b 417 1111 347 1081 378 1111 b 486 1042 456 1111 486 1081 b 417 972 486 1003 456 972 m 278 833 b 208 903 239 833 208 864 b 278 972 208 942 239 972 b 347 903 317 972 347 942 b 278 833 347 864 317 833 m 139 556 b 69 625 100 556 69 586 b 139 694 69 664 100 694 b 208 625 178 694 208 664 b 139 556 208 586 178 556 m 278 556 b 208 625 239 556 208 586 b 278 694 208 664 239 694 b 347 625 317 694 347 664 b 278 556 347 586 317 556 m 139 417 b 69 486 100 417 69 447 b 139 556 69 525 100 556 b 208 486 178 556 208 525 b 139 417 208 447 178 417 m 417 417 b 347 486 378 417 347 447 b 417 556 347 525 378 556 b 486 486 456 556 486 525 b 417 417 486 447 456 417 m 139 278 b 69 347 100 278 69 308 b 139 417 69 386 100 417 b 208 347 178 417 208 386 b 139 278 208 308 178 278 m 278 278 b 208 347 239 278 208 308 b 278 417 208 386 239 417 b 347 347 317 417 347 386 b 278 278 347 308 317 278 m 139 139 b 69 208 100 139 69 169 b 139 278 69 247 100 278 b 208 208 178 278 208 247 b 139 139 208 169 178 139 m 417 139 b 347 208 378 139 347 169 b 417 278 347 247 378 278 b 486 208 456 278 486 247 b 417 139 486 169 456 139 m 139 0 b 69 69 100 0 69 31 b 139 139 69 108 100 139 b 208 69 178 139 208 108 b 139 0 208 31 178 0 m 417 0 b 347 69 378 0 347 31 b 417 139 347 108 378 139 b 486 69 456 139 486 108 b 417 0 486 31 456 0 "},"Ř":{"ha":556,"x_min":0,"x_max":0,"o":"m 139 972 b 69 1042 100 972 69 1003 b 139 1111 69 1081 100 1111 b 208 1042 178 1111 208 1081 b 139 972 208 1003 178 972 m 417 972 b 347 1042 378 972 347 1003 b 417 1111 347 1081 378 1111 b 486 1042 456 1111 486 1081 b 417 972 486 1003 456 972 m 278 833 b 208 903 239 833 208 864 b 278 972 208 942 239 972 b 347 903 317 972 347 942 b 278 833 347 864 317 833 m 139 556 b 69 625 100 556 69 586 b 139 694 69 664 100 694 b 208 625 178 694 208 664 b 139 556 208 586 178 556 m 278 556 b 208 625 239 556 208 586 b 278 694 208 664 239 694 b 347 625 317 694 347 664 b 278 556 347 586 317 556 m 139 417 b 69 486 100 417 69 447 b 139 556 69 525 100 556 b 208 486 178 556 208 525 b 139 417 208 447 178 417 m 417 417 b 347 486 378 417 347 447 b 417 556 347 525 378 556 b 486 486 456 556 486 525 b 417 417 486 447 456 417 m 139 278 b 69 347 100 278 69 308 b 139 417 69 386 100 417 b 208 347 178 417 208 386 b 139 278 208 308 178 278 m 278 278 b 208 347 239 278 208 308 b 278 417 208 386 239 417 b 347 347 317 417 347 386 b 278 278 347 308 317 278 m 139 139 b 69 208 100 139 69 169 b 139 278 69 247 100 278 b 208 208 178 278 208 247 b 139 139 208 169 178 139 m 417 139 b 347 208 378 139 347 169 b 417 278 347 247 378 278 b 486 208 456 278 486 247 b 417 139 486 169 456 139 m 139 0 b 69 69 100 0 69 31 b 139 139 69 108 100 139 b 208 69 178 139 208 108 b 139 0 208 31 178 0 m 417 0 b 347 69 378 0 347 31 b 417 139 347 108 378 139 b 486 69 456 139 486 108 b 417 0 486 31 456 0 "},"Ŗ":{"ha":556,"x_min":0,"x_max":0,"o":"m 139 556 b 69 625 100 556 69 586 b 139 694 69 664 100 694 b 208 625 178 694 208 664 b 139 556 208 586 178 556 m 278 556 b 208 625 239 556 208 586 b 278 694 208 664 239 694 b 347 625 317 694 347 664 b 278 556 347 586 317 556 m 139 417 b 69 486 100 417 69 447 b 139 556 69 525 100 556 b 208 486 178 556 208 525 b 139 417 208 447 178 417 m 417 417 b 347 486 378 417 347 447 b 417 556 347 525 378 556 b 486 486 456 556 486 525 b 417 417 486 447 456 417 m 139 278 b 69 347 100 278 69 308 b 139 417 69 386 100 417 b 208 347 178 417 208 386 b 139 278 208 308 178 278 m 278 278 b 208 347 239 278 208 308 b 278 417 208 386 239 417 b 347 347 317 417 347 386 b 278 278 347 308 317 278 m 139 139 b 69 208 100 139 69 169 b 139 278 69 247 100 278 b 208 208 178 278 208 247 b 139 139 208 169 178 139 m 417 139 b 347 208 378 139 347 169 b 417 278 347 247 378 278 b 486 208 456 278 486 247 b 417 139 486 169 456 139 m 139 0 b 69 69 100 0 69 31 b 139 139 69 108 100 139 b 208 69 178 139 208 108 b 139 0 208 31 178 0 m 417 0 b 347 69 378 0 347 31 b 417 139 347 108 378 139 b 486 69 456 139 486 108 b 417 0 486 31 456 0 m 139 -278 b 69 -208 100 -278 69 -247 b 139 -139 69 -169 100 -139 b 208 -208 178 -139 208 -169 b 139 -278 208 -247 178 -278 m 278 -278 b 208 -208 239 -278 208 -247 b 278 -139 208 -169 239 -139 b 347 -208 317 -139 347 -169 b 278 -278 347 -247 317 -278 m 278 -417 b 208 -347 239 -417 208 -386 b 278 -278 208 -308 239 -278 b 347 -347 317 -278 347 -308 b 278 -417 347 -386 317 -417 m 139 -556 b 69 -486 100 -556 69 -525 b 139 -417 69 -447 100 -417 b 208 -486 178 -417 208 -447 b 139 -556 208 -525 178 -556 "},"S":{"ha":556,"x_min":0,"x_max":0,"o":"m 278 556 b 208 625 239 556 208 586 b 278 694 208 664 239 694 b 347 625 317 694 347 664 b 278 556 347 586 317 556 m 417 556 b 347 625 378 556 347 586 b 417 694 347 664 378 694 b 486 625 456 694 486 664 b 417 556 486 586 456 556 m 139 417 b 69 486 100 417 69 447 b 139 556 69 525 100 556 b 208 486 178 556 208 525 b 139 417 208 447 178 417 m 278 278 b 208 347 239 278 208 308 b 278 417 208 386 239 417 b 347 347 317 417 347 386 b 278 278 347 308 317 278 m 417 139 b 347 208 378 139 347 169 b 417 278 347 247 378 278 b 486 208 456 278 486 247 b 417 139 486 169 456 139 m 139 0 b 69 69 100 0 69 31 b 139 139 69 108 100 139 b 208 69 178 139 208 108 b 139 0 208 31 178 0 m 278 0 b 208 69 239 0 208 31 b 278 139 208 108 239 139 b 347 69 317 139 347 108 b 278 0 347 31 317 0 "},"Ś":{"ha":556,"x_min":0,"x_max":0,"o":"m 417 972 b 347 1042 378 972 347 1003 b 417 1111 347 1081 378 1111 b 486 1042 456 1111 486 1081 b 417 972 486 1003 456 972 m 278 833 b 208 903 239 833 208 864 b 278 972 208 942 239 972 b 347 903 317 972 347 942 b 278 833 347 864 317 833 m 278 556 b 208 625 239 556 208 586 b 278 694 208 664 239 694 b 347 625 317 694 347 664 b 278 556 347 586 317 556 m 417 556 b 347 625 378 556 347 586 b 417 694 347 664 378 694 b 486 625 456 694 486 664 b 417 556 486 586 456 556 m 139 417 b 69 486 100 417 69 447 b 139 556 69 525 100 556 b 208 486 178 556 208 525 b 139 417 208 447 178 417 m 278 278 b 208 347 239 278 208 308 b 278 417 208 386 239 417 b 347 347 317 417 347 386 b 278 278 347 308 317 278 m 417 139 b 347 208 378 139 347 169 b 417 278 347 247 378 278 b 486 208 456 278 486 247 b 417 139 486 169 456 139 m 139 0 b 69 69 100 0 69 31 b 139 139 69 108 100 139 b 208 69 178 139 208 108 b 139 0 208 31 178 0 m 278 0 b 208 69 239 0 208 31 b 278 139 208 108 239 139 b 347 69 317 139 347 108 b 278 0 347 31 317 0 "},"Š":{"ha":556,"x_min":0,"x_max":0,"o":"m 139 972 b 69 1042 100 972 69 1003 b 139 1111 69 1081 100 1111 b 208 1042 178 1111 208 1081 b 139 972 208 1003 178 972 m 417 972 b 347 1042 378 972 347 1003 b 417 1111 347 1081 378 1111 b 486 1042 456 1111 486 1081 b 417 972 486 1003 456 972 m 278 833 b 208 903 239 833 208 864 b 278 972 208 942 239 972 b 347 903 317 972 347 942 b 278 833 347 864 317 833 m 278 556 b 208 625 239 556 208 586 b 278 694 208 664 239 694 b 347 625 317 694 347 664 b 278 556 347 586 317 556 m 417 556 b 347 625 378 556 347 586 b 417 694 347 664 378 694 b 486 625 456 694 486 664 b 417 556 486 586 456 556 m 139 417 b 69 486 100 417 69 447 b 139 556 69 525 100 556 b 208 486 178 556 208 525 b 139 417 208 447 178 417 m 278 278 b 208 347 239 278 208 308 b 278 417 208 386 239 417 b 347 347 317 417 347 386 b 278 278 347 308 317 278 m 417 139 b 347 208 378 139 347 169 b 417 278 347 247 378 278 b 486 208 456 278 486 247 b 417 139 486 169 456 139 m 139 0 b 69 69 100 0 69 31 b 139 139 69 108 100 139 b 208 69 178 139 208 108 b 139 0 208 31 178 0 m 278 0 b 208 69 239 0 208 31 b 278 139 208 108 239 139 b 347 69 317 139 347 108 b 278 0 347 31 317 0 "},"Ş":{"ha":556,"x_min":0,"x_max":0,"o":"m 278 556 b 208 625 239 556 208 586 b 278 694 208 664 239 694 b 347 625 317 694 347 664 b 278 556 347 586 317 556 m 417 556 b 347 625 378 556 347 586 b 417 694 347 664 378 694 b 486 625 456 694 486 664 b 417 556 486 586 456 556 m 139 417 b 69 486 100 417 69 447 b 139 556 69 525 100 556 b 208 486 178 556 208 525 b 139 417 208 447 178 417 m 278 278 b 208 347 239 278 208 308 b 278 417 208 386 239 417 b 347 347 317 417 347 386 b 278 278 347 308 317 278 m 417 139 b 347 208 378 139 347 169 b 417 278 347 247 378 278 b 486 208 456 278 486 247 b 417 139 486 169 456 139 m 139 0 b 69 69 100 0 69 31 b 139 139 69 108 100 139 b 208 69 178 139 208 108 b 139 0 208 31 178 0 m 278 0 b 208 69 239 0 208 31 b 278 139 208 108 239 139 b 347 69 317 139 347 108 b 278 0 347 31 317 0 m 278 -139 b 208 -69 239 -139 208 -108 b 278 0 208 -31 239 0 b 347 -69 317 0 347 -31 b 278 -139 347 -108 317 -139 m 139 -278 b 69 -208 100 -278 69 -247 b 139 -139 69 -169 100 -139 b 208 -208 178 -139 208 -169 b 139 -278 208 -247 178 -278 m 278 -278 b 208 -208 239 -278 208 -247 b 278 -139 208 -169 239 -139 b 347 -208 317 -139 347 -169 b 278 -278 347 -247 317 -278 "},"Ș":{"ha":556,"x_min":0,"x_max":0,"o":"m 278 556 b 208 625 239 556 208 586 b 278 694 208 664 239 694 b 347 625 317 694 347 664 b 278 556 347 586 317 556 m 417 556 b 347 625 378 556 347 586 b 417 694 347 664 378 694 b 486 625 456 694 486 664 b 417 556 486 586 456 556 m 139 417 b 69 486 100 417 69 447 b 139 556 69 525 100 556 b 208 486 178 556 208 525 b 139 417 208 447 178 417 m 278 278 b 208 347 239 278 208 308 b 278 417 208 386 239 417 b 347 347 317 417 347 386 b 278 278 347 308 317 278 m 417 139 b 347 208 378 139 347 169 b 417 278 347 247 378 278 b 486 208 456 278 486 247 b 417 139 486 169 456 139 m 139 0 b 69 69 100 0 69 31 b 139 139 69 108 100 139 b 208 69 178 139 208 108 b 139 0 208 31 178 0 m 278 0 b 208 69 239 0 208 31 b 278 139 208 108 239 139 b 347 69 317 139 347 108 b 278 0 347 31 317 0 m 139 -278 b 69 -208 100 -278 69 -247 b 139 -139 69 -169 100 -139 b 208 -208 178 -139 208 -169 b 139 -278 208 -247 178 -278 m 278 -278 b 208 -208 239 -278 208 -247 b 278 -139 208 -169 239 -139 b 347 -208 317 -139 347 -169 b 278 -278 347 -247 317 -278 m 278 -417 b 208 -347 239 -417 208 -386 b 278 -278 208 -308 239 -278 b 347 -347 317 -278 347 -308 b 278 -417 347 -386 317 -417 m 139 -556 b 69 -486 100 -556 69 -525 b 139 -417 69 -447 100 -417 b 208 -486 178 -417 208 -447 b 139 -556 208 -525 178 -556 "},"ẞ":{"ha":694,"x_min":0,"x_max":0,"o":"m 278 556 b 208 625 239 556 208 586 b 278 694 208 664 239 694 b 347 625 317 694 347 664 b 278 556 347 586 317 556 m 417 556 b 347 625 378 556 347 586 b 417 694 347 664 378 694 b 486 625 456 694 486 664 b 417 556 486 586 456 556 m 556 556 b 486 625 517 556 486 586 b 556 694 486 664 517 694 b 625 625 594 694 625 664 b 556 556 625 586 594 556 m 139 417 b 69 486 100 417 69 447 b 139 556 69 525 100 556 b 208 486 178 556 208 525 b 139 417 208 447 178 417 m 556 417 b 486 486 517 417 486 447 b 556 556 486 525 517 556 b 625 486 594 556 625 525 b 556 417 625 447 594 417 m 139 278 b 69 347 100 278 69 308 b 139 417 69 386 100 417 b 208 347 178 417 208 386 b 139 278 208 308 178 278 m 417 278 b 347 347 378 278 347 308 b 417 417 347 386 378 417 b 486 347 456 417 486 386 b 417 278 486 308 456 278 m 139 139 b 69 208 100 139 69 169 b 139 278 69 247 100 278 b 208 208 178 278 208 247 b 139 139 208 169 178 139 m 556 139 b 486 208 517 139 486 169 b 556 278 486 247 517 278 b 625 208 594 278 625 247 b 556 139 625 169 594 139 m 139 0 b 69 69 100 0 69 31 b 139 139 69 108 100 139 b 208 69 178 139 208 108 b 139 0 208 31 178 0 m 417 0 b 347 69 378 0 347 31 b 417 139 347 108 378 139 b 486 69 456 139 486 108 b 417 0 486 31 456 0 "},"T":{"ha":556,"x_min":0,"x_max":0,"o":"m 139 556 b 69 625 100 556 69 586 b 139 694 69 664 100 694 b 208 625 178 694 208 664 b 139 556 208 586 178 556 m 278 556 b 208 625 239 556 208 586 b 278 694 208 664 239 694 b 347 625 317 694 347 664 b 278 556 347 586 317 556 m 417 556 b 347 625 378 556 347 586 b 417 694 347 664 378 694 b 486 625 456 694 486 664 b 417 556 486 586 456 556 m 278 417 b 208 486 239 417 208 447 b 278 556 208 525 239 556 b 347 486 317 556 347 525 b 278 417 347 447 317 417 m 278 278 b 208 347 239 278 208 308 b 278 417 208 386 239 417 b 347 347 317 417 347 386 b 278 278 347 308 317 278 m 278 139 b 208 208 239 139 208 169 b 278 278 208 247 239 278 b 347 208 317 278 347 247 b 278 139 347 169 317 139 m 278 0 b 208 69 239 0 208 31 b 278 139 208 108 239 139 b 347 69 317 139 347 108 b 278 0 347 31 317 0 "},"Ŧ":{"ha":556,"x_min":0,"x_max":0,"o":"m 139 694 b 208 625 178 694 208 664 b 139 556 208 586 178 556 b 69 625 100 556 69 586 b 139 694 69 664 100 694 m 347 625 b 278 556 347 586 317 556 b 208 625 239 556 208 586 b 278 694 208 664 239 694 b 347 625 317 694 347 664 m 417 556 b 347 625 378 556 347 586 b 417 694 347 664 378 694 b 486 625 456 694 486 664 b 417 556 486 586 456 556 m 347 486 b 278 417 347 447 317 417 b 208 486 239 417 208 447 b 278 556 208 525 239 556 b 347 486 317 556 347 525 m 139 417 b 208 347 178 417 208 386 b 139 278 208 308 178 278 b 69 347 100 278 69 308 b 139 417 69 386 100 417 m 278 417 b 347 347 317 417 347 386 b 278 278 347 308 317 278 b 208 347 239 278 208 308 b 278 417 208 386 239 417 m 417 417 b 486 347 456 417 486 386 b 417 278 486 308 456 278 b 347 347 378 278 347 308 b 417 417 347 386 378 417 m 208 208 b 278 278 208 247 239 278 b 347 208 317 278 347 247 b 278 139 347 169 317 139 b 208 208 239 139 208 169 m 208 69 b 278 139 208 108 239 139 b 347 69 317 139 347 108 b 278 0 347 31 317 0 b 208 69 239 0 208 31 "},"Ť":{"ha":556,"x_min":0,"x_max":0,"o":"m 139 972 b 69 1042 100 972 69 1003 b 139 1111 69 1081 100 1111 b 208 1042 178 1111 208 1081 b 139 972 208 1003 178 972 m 417 972 b 347 1042 378 972 347 1003 b 417 1111 347 1081 378 1111 b 486 1042 456 1111 486 1081 b 417 972 486 1003 456 972 m 278 833 b 208 903 239 833 208 864 b 278 972 208 942 239 972 b 347 903 317 972 347 942 b 278 833 347 864 317 833 m 139 556 b 69 625 100 556 69 586 b 139 694 69 664 100 694 b 208 625 178 694 208 664 b 139 556 208 586 178 556 m 278 556 b 208 625 239 556 208 586 b 278 694 208 664 239 694 b 347 625 317 694 347 664 b 278 556 347 586 317 556 m 417 556 b 347 625 378 556 347 586 b 417 694 347 664 378 694 b 486 625 456 694 486 664 b 417 556 486 586 456 556 m 278 417 b 208 486 239 417 208 447 b 278 556 208 525 239 556 b 347 486 317 556 347 525 b 278 417 347 447 317 417 m 278 278 b 208 347 239 278 208 308 b 278 417 208 386 239 417 b 347 347 317 417 347 386 b 278 278 347 308 317 278 m 278 139 b 208 208 239 139 208 169 b 278 278 208 247 239 278 b 347 208 317 278 347 247 b 278 139 347 169 317 139 m 278 0 b 208 69 239 0 208 31 b 278 139 208 108 239 139 b 347 69 317 139 347 108 b 278 0 347 31 317 0 "},"Ţ":{"ha":556,"x_min":0,"x_max":0,"o":"m 139 556 b 69 625 100 556 69 586 b 139 694 69 664 100 694 b 208 625 178 694 208 664 b 139 556 208 586 178 556 m 278 556 b 208 625 239 556 208 586 b 278 694 208 664 239 694 b 347 625 317 694 347 664 b 278 556 347 586 317 556 m 417 556 b 347 625 378 556 347 586 b 417 694 347 664 378 694 b 486 625 456 694 486 664 b 417 556 486 586 456 556 m 278 417 b 208 486 239 417 208 447 b 278 556 208 525 239 556 b 347 486 317 556 347 525 b 278 417 347 447 317 417 m 278 278 b 208 347 239 278 208 308 b 278 417 208 386 239 417 b 347 347 317 417 347 386 b 278 278 347 308 317 278 m 278 139 b 208 208 239 139 208 169 b 278 278 208 247 239 278 b 347 208 317 278 347 247 b 278 139 347 169 317 139 m 278 0 b 208 69 239 0 208 31 b 278 139 208 108 239 139 b 347 69 317 139 347 108 b 278 0 347 31 317 0 m 417 -139 b 347 -69 378 -139 347 -108 b 417 0 347 -31 378 0 b 486 -69 456 0 486 -31 b 417 -139 486 -108 456 -139 m 278 -278 b 208 -208 239 -278 208 -247 b 278 -139 208 -169 239 -139 b 347 -208 317 -139 347 -169 b 278 -278 347 -247 317 -278 m 417 -278 b 347 -208 378 -278 347 -247 b 417 -139 347 -169 378 -139 b 486 -208 456 -139 486 -169 b 417 -278 486 -247 456 -278 "},"Ț":{"ha":556,"x_min":0,"x_max":0,"o":"m 139 556 b 69 625 100 556 69 586 b 139 694 69 664 100 694 b 208 625 178 694 208 664 b 139 556 208 586 178 556 m 278 556 b 208 625 239 556 208 586 b 278 694 208 664 239 694 b 347 625 317 694 347 664 b 278 556 347 586 317 556 m 417 556 b 347 625 378 556 347 586 b 417 694 347 664 378 694 b 486 625 456 694 486 664 b 417 556 486 586 456 556 m 278 417 b 208 486 239 417 208 447 b 278 556 208 525 239 556 b 347 486 317 556 347 525 b 278 417 347 447 317 417 m 278 278 b 208 347 239 278 208 308 b 278 417 208 386 239 417 b 347 347 317 417 347 386 b 278 278 347 308 317 278 m 278 139 b 208 208 239 139 208 169 b 278 278 208 247 239 278 b 347 208 317 278 347 247 b 278 139 347 169 317 139 m 278 0 b 208 69 239 0 208 31 b 278 139 208 108 239 139 b 347 69 317 139 347 108 b 278 0 347 31 317 0 m 139 -278 b 69 -208 100 -278 69 -247 b 139 -139 69 -169 100 -139 b 208 -208 178 -139 208 -169 b 139 -278 208 -247 178 -278 m 278 -278 b 208 -208 239 -278 208 -247 b 278 -139 208 -169 239 -139 b 347 -208 317 -139 347 -169 b 278 -278 347 -247 317 -278 m 278 -417 b 208 -347 239 -417 208 -386 b 278 -278 208 -308 239 -278 b 347 -347 317 -278 347 -308 b 278 -417 347 -386 317 -417 m 139 -556 b 69 -486 100 -556 69 -525 b 139 -417 69 -447 100 -417 b 208 -486 178 -417 208 -447 b 139 -556 208 -525 178 -556 "},"U":{"ha":556,"x_min":0,"x_max":0,"o":"m 139 556 b 69 625 100 556 69 586 b 139 694 69 664 100 694 b 208 625 178 694 208 664 b 139 556 208 586 178 556 m 417 556 b 347 625 378 556 347 586 b 417 694 347 664 378 694 b 486 625 456 694 486 664 b 417 556 486 586 456 556 m 139 417 b 69 486 100 417 69 447 b 139 556 69 525 100 556 b 208 486 178 556 208 525 b 139 417 208 447 178 417 m 417 417 b 347 486 378 417 347 447 b 417 556 347 525 378 556 b 486 486 456 556 486 525 b 417 417 486 447 456 417 m 139 278 b 69 347 100 278 69 308 b 139 417 69 386 100 417 b 208 347 178 417 208 386 b 139 278 208 308 178 278 m 417 278 b 347 347 378 278 347 308 b 417 417 347 386 378 417 b 486 347 456 417 486 386 b 417 278 486 308 456 278 m 139 139 b 69 208 100 139 69 169 b 139 278 69 247 100 278 b 208 208 178 278 208 247 b 139 139 208 169 178 139 m 417 139 b 347 208 378 139 347 169 b 417 278 347 247 378 278 b 486 208 456 278 486 247 b 417 139 486 169 456 139 m 278 0 b 208 69 239 0 208 31 b 278 139 208 108 239 139 b 347 69 317 139 347 108 b 278 0 347 31 317 0 m 417 0 b 347 69 378 0 347 31 b 417 139 347 108 378 139 b 486 69 456 139 486 108 b 417 0 486 31 456 0 "},"Ú":{"ha":556,"x_min":0,"x_max":0,"o":"m 417 972 b 347 1042 378 972 347 1003 b 417 1111 347 1081 378 1111 b 486 1042 456 1111 486 1081 b 417 972 486 1003 456 972 m 278 833 b 208 903 239 833 208 864 b 278 972 208 942 239 972 b 347 903 317 972 347 942 b 278 833 347 864 317 833 m 139 556 b 69 625 100 556 69 586 b 139 694 69 664 100 694 b 208 625 178 694 208 664 b 139 556 208 586 178 556 m 417 556 b 347 625 378 556 347 586 b 417 694 347 664 378 694 b 486 625 456 694 486 664 b 417 556 486 586 456 556 m 139 417 b 69 486 100 417 69 447 b 139 556 69 525 100 556 b 208 486 178 556 208 525 b 139 417 208 447 178 417 m 417 417 b 347 486 378 417 347 447 b 417 556 347 525 378 556 b 486 486 456 556 486 525 b 417 417 486 447 456 417 m 139 278 b 69 347 100 278 69 308 b 139 417 69 386 100 417 b 208 347 178 417 208 386 b 139 278 208 308 178 278 m 417 278 b 347 347 378 278 347 308 b 417 417 347 386 378 417 b 486 347 456 417 486 386 b 417 278 486 308 456 278 m 139 139 b 69 208 100 139 69 169 b 139 278 69 247 100 278 b 208 208 178 278 208 247 b 139 139 208 169 178 139 m 417 139 b 347 208 378 139 347 169 b 417 278 347 247 378 278 b 486 208 456 278 486 247 b 417 139 486 169 456 139 m 278 0 b 208 69 239 0 208 31 b 278 139 208 108 239 139 b 347 69 317 139 347 108 b 278 0 347 31 317 0 m 417 0 b 347 69 378 0 347 31 b 417 139 347 108 378 139 b 486 69 456 139 486 108 b 417 0 486 31 456 0 "},"Û":{"ha":556,"x_min":0,"x_max":0,"o":"m 278 972 b 208 1042 239 972 208 1003 b 278 1111 208 1081 239 1111 b 347 1042 317 1111 347 1081 b 278 972 347 1003 317 972 m 139 833 b 69 903 100 833 69 864 b 139 972 69 942 100 972 b 208 903 178 972 208 942 b 139 833 208 864 178 833 m 417 833 b 347 903 378 833 347 864 b 417 972 347 942 378 972 b 486 903 456 972 486 942 b 417 833 486 864 456 833 m 139 556 b 69 625 100 556 69 586 b 139 694 69 664 100 694 b 208 625 178 694 208 664 b 139 556 208 586 178 556 m 417 556 b 347 625 378 556 347 586 b 417 694 347 664 378 694 b 486 625 456 694 486 664 b 417 556 486 586 456 556 m 139 417 b 69 486 100 417 69 447 b 139 556 69 525 100 556 b 208 486 178 556 208 525 b 139 417 208 447 178 417 m 417 417 b 347 486 378 417 347 447 b 417 556 347 525 378 556 b 486 486 456 556 486 525 b 417 417 486 447 456 417 m 139 278 b 69 347 100 278 69 308 b 139 417 69 386 100 417 b 208 347 178 417 208 386 b 139 278 208 308 178 278 m 417 278 b 347 347 378 278 347 308 b 417 417 347 386 378 417 b 486 347 456 417 486 386 b 417 278 486 308 456 278 m 139 139 b 69 208 100 139 69 169 b 139 278 69 247 100 278 b 208 208 178 278 208 247 b 139 139 208 169 178 139 m 417 139 b 347 208 378 139 347 169 b 417 278 347 247 378 278 b 486 208 456 278 486 247 b 417 139 486 169 456 139 m 278 0 b 208 69 239 0 208 31 b 278 139 208 108 239 139 b 347 69 317 139 347 108 b 278 0 347 31 317 0 m 417 0 b 347 69 378 0 347 31 b 417 139 347 108 378 139 b 486 69 456 139 486 108 b 417 0 486 31 456 0 "},"Ü":{"ha":556,"x_min":0,"x_max":0,"o":"m 139 833 b 69 903 100 833 69 864 b 139 972 69 942 100 972 b 208 903 178 972 208 942 b 139 833 208 864 178 833 m 417 833 b 347 903 378 833 347 864 b 417 972 347 942 378 972 b 486 903 456 972 486 942 b 417 833 486 864 456 833 m 139 556 b 69 625 100 556 69 586 b 139 694 69 664 100 694 b 208 625 178 694 208 664 b 139 556 208 586 178 556 m 417 556 b 347 625 378 556 347 586 b 417 694 347 664 378 694 b 486 625 456 694 486 664 b 417 556 486 586 456 556 m 139 417 b 69 486 100 417 69 447 b 139 556 69 525 100 556 b 208 486 178 556 208 525 b 139 417 208 447 178 417 m 417 417 b 347 486 378 417 347 447 b 417 556 347 525 378 556 b 486 486 456 556 486 525 b 417 417 486 447 456 417 m 139 278 b 69 347 100 278 69 308 b 139 417 69 386 100 417 b 208 347 178 417 208 386 b 139 278 208 308 178 278 m 417 278 b 347 347 378 278 347 308 b 417 417 347 386 378 417 b 486 347 456 417 486 386 b 417 278 486 308 456 278 m 139 139 b 69 208 100 139 69 169 b 139 278 69 247 100 278 b 208 208 178 278 208 247 b 139 139 208 169 178 139 m 417 139 b 347 208 378 139 347 169 b 417 278 347 247 378 278 b 486 208 456 278 486 247 b 417 139 486 169 456 139 m 278 0 b 208 69 239 0 208 31 b 278 139 208 108 239 139 b 347 69 317 139 347 108 b 278 0 347 31 317 0 m 417 0 b 347 69 378 0 347 31 b 417 139 347 108 378 139 b 486 69 456 139 486 108 b 417 0 486 31 456 0 "},"Ù":{"ha":556,"x_min":0,"x_max":0,"o":"m 139 972 b 69 1042 100 972 69 1003 b 139 1111 69 1081 100 1111 b 208 1042 178 1111 208 1081 b 139 972 208 1003 178 972 m 278 833 b 208 903 239 833 208 864 b 278 972 208 942 239 972 b 347 903 317 972 347 942 b 278 833 347 864 317 833 m 139 556 b 69 625 100 556 69 586 b 139 694 69 664 100 694 b 208 625 178 694 208 664 b 139 556 208 586 178 556 m 417 556 b 347 625 378 556 347 586 b 417 694 347 664 378 694 b 486 625 456 694 486 664 b 417 556 486 586 456 556 m 139 417 b 69 486 100 417 69 447 b 139 556 69 525 100 556 b 208 486 178 556 208 525 b 139 417 208 447 178 417 m 417 417 b 347 486 378 417 347 447 b 417 556 347 525 378 556 b 486 486 456 556 486 525 b 417 417 486 447 456 417 m 139 278 b 69 347 100 278 69 308 b 139 417 69 386 100 417 b 208 347 178 417 208 386 b 139 278 208 308 178 278 m 417 278 b 347 347 378 278 347 308 b 417 417 347 386 378 417 b 486 347 456 417 486 386 b 417 278 486 308 456 278 m 139 139 b 69 208 100 139 69 169 b 139 278 69 247 100 278 b 208 208 178 278 208 247 b 139 139 208 169 178 139 m 417 139 b 347 208 378 139 347 169 b 417 278 347 247 378 278 b 486 208 456 278 486 247 b 417 139 486 169 456 139 m 278 0 b 208 69 239 0 208 31 b 278 139 208 108 239 139 b 347 69 317 139 347 108 b 278 0 347 31 317 0 m 417 0 b 347 69 378 0 347 31 b 417 139 347 108 378 139 b 486 69 456 139 486 108 b 417 0 486 31 456 0 "},"Ű":{"ha":556,"x_min":0,"x_max":0,"o":"m 278 972 b 208 1042 239 972 208 1003 b 278 1111 208 1081 239 1111 b 347 1042 317 1111 347 1081 b 278 972 347 1003 317 972 m 556 972 b 486 1042 517 972 486 1003 b 556 1111 486 1081 517 1111 b 625 1042 594 1111 625 1081 b 556 972 625 1003 594 972 m 139 833 b 69 903 100 833 69 864 b 139 972 69 942 100 972 b 208 903 178 972 208 942 b 139 833 208 864 178 833 m 417 833 b 347 903 378 833 347 864 b 417 972 347 942 378 972 b 486 903 456 972 486 942 b 417 833 486 864 456 833 m 139 556 b 69 625 100 556 69 586 b 139 694 69 664 100 694 b 208 625 178 694 208 664 b 139 556 208 586 178 556 m 417 556 b 347 625 378 556 347 586 b 417 694 347 664 378 694 b 486 625 456 694 486 664 b 417 556 486 586 456 556 m 139 417 b 69 486 100 417 69 447 b 139 556 69 525 100 556 b 208 486 178 556 208 525 b 139 417 208 447 178 417 m 417 417 b 347 486 378 417 347 447 b 417 556 347 525 378 556 b 486 486 456 556 486 525 b 417 417 486 447 456 417 m 139 278 b 69 347 100 278 69 308 b 139 417 69 386 100 417 b 208 347 178 417 208 386 b 139 278 208 308 178 278 m 417 278 b 347 347 378 278 347 308 b 417 417 347 386 378 417 b 486 347 456 417 486 386 b 417 278 486 308 456 278 m 139 139 b 69 208 100 139 69 169 b 139 278 69 247 100 278 b 208 208 178 278 208 247 b 139 139 208 169 178 139 m 417 139 b 347 208 378 139 347 169 b 417 278 347 247 378 278 b 486 208 456 278 486 247 b 417 139 486 169 456 139 m 278 0 b 208 69 239 0 208 31 b 278 139 208 108 239 139 b 347 69 317 139 347 108 b 278 0 347 31 317 0 m 417 0 b 347 69 378 0 347 31 b 417 139 347 108 378 139 b 486 69 456 139 486 108 b 417 0 486 31 456 0 "},"Ū":{"ha":556,"x_min":0,"x_max":0,"o":"m 139 833 b 69 903 100 833 69 864 b 139 972 69 942 100 972 b 208 903 178 972 208 942 b 139 833 208 864 178 833 m 278 833 b 208 903 239 833 208 864 b 278 972 208 942 239 972 b 347 903 317 972 347 942 b 278 833 347 864 317 833 m 417 833 b 347 903 378 833 347 864 b 417 972 347 942 378 972 b 486 903 456 972 486 942 b 417 833 486 864 456 833 m 139 556 b 69 625 100 556 69 586 b 139 694 69 664 100 694 b 208 625 178 694 208 664 b 139 556 208 586 178 556 m 417 556 b 347 625 378 556 347 586 b 417 694 347 664 378 694 b 486 625 456 694 486 664 b 417 556 486 586 456 556 m 139 417 b 69 486 100 417 69 447 b 139 556 69 525 100 556 b 208 486 178 556 208 525 b 139 417 208 447 178 417 m 417 417 b 347 486 378 417 347 447 b 417 556 347 525 378 556 b 486 486 456 556 486 525 b 417 417 486 447 456 417 m 139 278 b 69 347 100 278 69 308 b 139 417 69 386 100 417 b 208 347 178 417 208 386 b 139 278 208 308 178 278 m 417 278 b 347 347 378 278 347 308 b 417 417 347 386 378 417 b 486 347 456 417 486 386 b 417 278 486 308 456 278 m 139 139 b 69 208 100 139 69 169 b 139 278 69 247 100 278 b 208 208 178 278 208 247 b 139 139 208 169 178 139 m 417 139 b 347 208 378 139 347 169 b 417 278 347 247 378 278 b 486 208 456 278 486 247 b 417 139 486 169 456 139 m 278 0 b 208 69 239 0 208 31 b 278 139 208 108 239 139 b 347 69 317 139 347 108 b 278 0 347 31 317 0 m 417 0 b 347 69 378 0 347 31 b 417 139 347 108 378 139 b 486 69 456 139 486 108 b 417 0 486 31 456 0 "},"Ų":{"ha":556,"x_min":0,"x_max":0,"o":"m 139 556 b 69 625 100 556 69 586 b 139 694 69 664 100 694 b 208 625 178 694 208 664 b 139 556 208 586 178 556 m 417 556 b 347 625 378 556 347 586 b 417 694 347 664 378 694 b 486 625 456 694 486 664 b 417 556 486 586 456 556 m 139 417 b 69 486 100 417 69 447 b 139 556 69 525 100 556 b 208 486 178 556 208 525 b 139 417 208 447 178 417 m 417 417 b 347 486 378 417 347 447 b 417 556 347 525 378 556 b 486 486 456 556 486 525 b 417 417 486 447 456 417 m 139 278 b 69 347 100 278 69 308 b 139 417 69 386 100 417 b 208 347 178 417 208 386 b 139 278 208 308 178 278 m 417 278 b 347 347 378 278 347 308 b 417 417 347 386 378 417 b 486 347 456 417 486 386 b 417 278 486 308 456 278 m 139 139 b 69 208 100 139 69 169 b 139 278 69 247 100 278 b 208 208 178 278 208 247 b 139 139 208 169 178 139 m 417 139 b 347 208 378 139 347 169 b 417 278 347 247 378 278 b 486 208 456 278 486 247 b 417 139 486 169 456 139 m 278 0 b 208 69 239 0 208 31 b 278 139 208 108 239 139 b 347 69 317 139 347 108 b 278 0 347 31 317 0 m 417 0 b 347 69 378 0 347 31 b 417 139 347 108 378 139 b 486 69 456 139 486 108 b 417 0 486 31 456 0 m 278 -139 b 208 -69 239 -139 208 -108 b 278 0 208 -31 239 0 b 347 -69 317 0 347 -31 b 278 -139 347 -108 317 -139 m 278 -278 b 208 -208 239 -278 208 -247 b 278 -139 208 -169 239 -139 b 347 -208 317 -139 347 -169 b 278 -278 347 -247 317 -278 m 417 -278 b 347 -208 378 -278 347 -247 b 417 -139 347 -169 378 -139 b 486 -208 456 -139 486 -169 b 417 -278 486 -247 456 -278 "},"Ů":{"ha":556,"x_min":0,"x_max":0,"o":"m 278 972 b 208 1042 239 972 208 1003 b 278 1111 208 1081 239 1111 b 347 1042 317 1111 347 1081 b 278 972 347 1003 317 972 m 139 833 b 69 903 100 833 69 864 b 139 972 69 942 100 972 b 208 903 178 972 208 942 b 139 833 208 864 178 833 m 417 833 b 347 903 378 833 347 864 b 417 972 347 942 378 972 b 486 903 456 972 486 942 b 417 833 486 864 456 833 m 278 694 b 208 764 239 694 208 725 b 278 833 208 803 239 833 b 347 764 317 833 347 803 b 278 694 347 725 317 694 m 139 556 b 69 625 100 556 69 586 b 139 694 69 664 100 694 b 208 625 178 694 208 664 b 139 556 208 586 178 556 m 417 556 b 347 625 378 556 347 586 b 417 694 347 664 378 694 b 486 625 456 694 486 664 b 417 556 486 586 456 556 m 139 417 b 69 486 100 417 69 447 b 139 556 69 525 100 556 b 208 486 178 556 208 525 b 139 417 208 447 178 417 m 417 417 b 347 486 378 417 347 447 b 417 556 347 525 378 556 b 486 486 456 556 486 525 b 417 417 486 447 456 417 m 139 278 b 69 347 100 278 69 308 b 139 417 69 386 100 417 b 208 347 178 417 208 386 b 139 278 208 308 178 278 m 417 278 b 347 347 378 278 347 308 b 417 417 347 386 378 417 b 486 347 456 417 486 386 b 417 278 486 308 456 278 m 139 139 b 69 208 100 139 69 169 b 139 278 69 247 100 278 b 208 208 178 278 208 247 b 139 139 208 169 178 139 m 417 139 b 347 208 378 139 347 169 b 417 278 347 247 378 278 b 486 208 456 278 486 247 b 417 139 486 169 456 139 m 278 0 b 208 69 239 0 208 31 b 278 139 208 108 239 139 b 347 69 317 139 347 108 b 278 0 347 31 317 0 m 417 0 b 347 69 378 0 347 31 b 417 139 347 108 378 139 b 486 69 456 139 486 108 b 417 0 486 31 456 0 "},"V":{"ha":556,"x_min":0,"x_max":0,"o":"m 139 556 b 69 625 100 556 69 586 b 139 694 69 664 100 694 b 208 625 178 694 208 664 b 139 556 208 586 178 556 m 417 556 b 347 625 378 556 347 586 b 417 694 347 664 378 694 b 486 625 456 694 486 664 b 417 556 486 586 456 556 m 139 417 b 69 486 100 417 69 447 b 139 556 69 525 100 556 b 208 486 178 556 208 525 b 139 417 208 447 178 417 m 417 417 b 347 486 378 417 347 447 b 417 556 347 525 378 556 b 486 486 456 556 486 525 b 417 417 486 447 456 417 m 139 278 b 69 347 100 278 69 308 b 139 417 69 386 100 417 b 208 347 178 417 208 386 b 139 278 208 308 178 278 m 417 278 b 347 347 378 278 347 308 b 417 417 347 386 378 417 b 486 347 456 417 486 386 b 417 278 486 308 456 278 m 139 139 b 69 208 100 139 69 169 b 139 278 69 247 100 278 b 208 208 178 278 208 247 b 139 139 208 169 178 139 m 417 139 b 347 208 378 139 347 169 b 417 278 347 247 378 278 b 486 208 456 278 486 247 b 417 139 486 169 456 139 m 278 0 b 208 69 239 0 208 31 b 278 139 208 108 239 139 b 347 69 317 139 347 108 b 278 0 347 31 317 0 "},"W":{"ha":833,"x_min":0,"x_max":0,"o":"m 139 556 b 69 625 100 556 69 586 b 139 694 69 664 100 694 b 208 625 178 694 208 664 b 139 556 208 586 178 556 m 417 556 b 347 625 378 556 347 586 b 417 694 347 664 378 694 b 486 625 456 694 486 664 b 417 556 486 586 456 556 m 694 556 b 625 625 656 556 625 586 b 694 694 625 664 656 694 b 764 625 733 694 764 664 b 694 556 764 586 733 556 m 139 417 b 69 486 100 417 69 447 b 139 556 69 525 100 556 b 208 486 178 556 208 525 b 139 417 208 447 178 417 m 417 417 b 347 486 378 417 347 447 b 417 556 347 525 378 556 b 486 486 456 556 486 525 b 417 417 486 447 456 417 m 694 417 b 625 486 656 417 625 447 b 694 556 625 525 656 556 b 764 486 733 556 764 525 b 694 417 764 447 733 417 m 139 278 b 69 347 100 278 69 308 b 139 417 69 386 100 417 b 208 347 178 417 208 386 b 139 278 208 308 178 278 m 417 278 b 347 347 378 278 347 308 b 417 417 347 386 378 417 b 486 347 456 417 486 386 b 417 278 486 308 456 278 m 694 278 b 625 347 656 278 625 308 b 694 417 625 386 656 417 b 764 347 733 417 764 386 b 694 278 764 308 733 278 m 139 139 b 69 208 100 139 69 169 b 139 278 69 247 100 278 b 208 208 178 278 208 247 b 139 139 208 169 178 139 m 417 139 b 347 208 378 139 347 169 b 417 278 347 247 378 278 b 486 208 456 278 486 247 b 417 139 486 169 456 139 m 694 139 b 625 208 656 139 625 169 b 694 278 625 247 656 278 b 764 208 733 278 764 247 b 694 139 764 169 733 139 m 278 0 b 208 69 239 0 208 31 b 278 139 208 108 239 139 b 347 69 317 139 347 108 b 278 0 347 31 317 0 m 556 0 b 486 69 517 0 486 31 b 556 139 486 108 517 139 b 625 69 594 139 625 108 b 556 0 625 31 594 0 "},"Ẃ":{"ha":833,"x_min":0,"x_max":0,"o":"m 556 972 b 486 1042 517 972 486 1003 b 556 1111 486 1081 517 1111 b 625 1042 594 1111 625 1081 b 556 972 625 1003 594 972 m 417 833 b 347 903 378 833 347 864 b 417 972 347 942 378 972 b 486 903 456 972 486 942 b 417 833 486 864 456 833 m 139 556 b 69 625 100 556 69 586 b 139 694 69 664 100 694 b 208 625 178 694 208 664 b 139 556 208 586 178 556 m 417 556 b 347 625 378 556 347 586 b 417 694 347 664 378 694 b 486 625 456 694 486 664 b 417 556 486 586 456 556 m 694 556 b 625 625 656 556 625 586 b 694 694 625 664 656 694 b 764 625 733 694 764 664 b 694 556 764 586 733 556 m 139 417 b 69 486 100 417 69 447 b 139 556 69 525 100 556 b 208 486 178 556 208 525 b 139 417 208 447 178 417 m 417 417 b 347 486 378 417 347 447 b 417 556 347 525 378 556 b 486 486 456 556 486 525 b 417 417 486 447 456 417 m 694 417 b 625 486 656 417 625 447 b 694 556 625 525 656 556 b 764 486 733 556 764 525 b 694 417 764 447 733 417 m 139 278 b 69 347 100 278 69 308 b 139 417 69 386 100 417 b 208 347 178 417 208 386 b 139 278 208 308 178 278 m 417 278 b 347 347 378 278 347 308 b 417 417 347 386 378 417 b 486 347 456 417 486 386 b 417 278 486 308 456 278 m 694 278 b 625 347 656 278 625 308 b 694 417 625 386 656 417 b 764 347 733 417 764 386 b 694 278 764 308 733 278 m 139 139 b 69 208 100 139 69 169 b 139 278 69 247 100 278 b 208 208 178 278 208 247 b 139 139 208 169 178 139 m 417 139 b 347 208 378 139 347 169 b 417 278 347 247 378 278 b 486 208 456 278 486 247 b 417 139 486 169 456 139 m 694 139 b 625 208 656 139 625 169 b 694 278 625 247 656 278 b 764 208 733 278 764 247 b 694 139 764 169 733 139 m 278 0 b 208 69 239 0 208 31 b 278 139 208 108 239 139 b 347 69 317 139 347 108 b 278 0 347 31 317 0 m 556 0 b 486 69 517 0 486 31 b 556 139 486 108 517 139 b 625 69 594 139 625 108 b 556 0 625 31 594 0 "},"Ŵ":{"ha":833,"x_min":0,"x_max":0,"o":"m 417 972 b 347 1042 378 972 347 1003 b 417 1111 347 1081 378 1111 b 486 1042 456 1111 486 1081 b 417 972 486 1003 456 972 m 278 833 b 208 903 239 833 208 864 b 278 972 208 942 239 972 b 347 903 317 972 347 942 b 278 833 347 864 317 833 m 556 833 b 486 903 517 833 486 864 b 556 972 486 942 517 972 b 625 903 594 972 625 942 b 556 833 625 864 594 833 m 139 556 b 69 625 100 556 69 586 b 139 694 69 664 100 694 b 208 625 178 694 208 664 b 139 556 208 586 178 556 m 417 556 b 347 625 378 556 347 586 b 417 694 347 664 378 694 b 486 625 456 694 486 664 b 417 556 486 586 456 556 m 694 556 b 625 625 656 556 625 586 b 694 694 625 664 656 694 b 764 625 733 694 764 664 b 694 556 764 586 733 556 m 139 417 b 69 486 100 417 69 447 b 139 556 69 525 100 556 b 208 486 178 556 208 525 b 139 417 208 447 178 417 m 417 417 b 347 486 378 417 347 447 b 417 556 347 525 378 556 b 486 486 456 556 486 525 b 417 417 486 447 456 417 m 694 417 b 625 486 656 417 625 447 b 694 556 625 525 656 556 b 764 486 733 556 764 525 b 694 417 764 447 733 417 m 139 278 b 69 347 100 278 69 308 b 139 417 69 386 100 417 b 208 347 178 417 208 386 b 139 278 208 308 178 278 m 417 278 b 347 347 378 278 347 308 b 417 417 347 386 378 417 b 486 347 456 417 486 386 b 417 278 486 308 456 278 m 694 278 b 625 347 656 278 625 308 b 694 417 625 386 656 417 b 764 347 733 417 764 386 b 694 278 764 308 733 278 m 139 139 b 69 208 100 139 69 169 b 139 278 69 247 100 278 b 208 208 178 278 208 247 b 139 139 208 169 178 139 m 417 139 b 347 208 378 139 347 169 b 417 278 347 247 378 278 b 486 208 456 278 486 247 b 417 139 486 169 456 139 m 694 139 b 625 208 656 139 625 169 b 694 278 625 247 656 278 b 764 208 733 278 764 247 b 694 139 764 169 733 139 m 278 0 b 208 69 239 0 208 31 b 278 139 208 108 239 139 b 347 69 317 139 347 108 b 278 0 347 31 317 0 m 556 0 b 486 69 517 0 486 31 b 556 139 486 108 517 139 b 625 69 594 139 625 108 b 556 0 625 31 594 0 "},"Ẅ":{"ha":833,"x_min":0,"x_max":0,"o":"m 278 833 b 208 903 239 833 208 864 b 278 972 208 942 239 972 b 347 903 317 972 347 942 b 278 833 347 864 317 833 m 556 833 b 486 903 517 833 486 864 b 556 972 486 942 517 972 b 625 903 594 972 625 942 b 556 833 625 864 594 833 m 139 556 b 69 625 100 556 69 586 b 139 694 69 664 100 694 b 208 625 178 694 208 664 b 139 556 208 586 178 556 m 417 556 b 347 625 378 556 347 586 b 417 694 347 664 378 694 b 486 625 456 694 486 664 b 417 556 486 586 456 556 m 694 556 b 625 625 656 556 625 586 b 694 694 625 664 656 694 b 764 625 733 694 764 664 b 694 556 764 586 733 556 m 139 417 b 69 486 100 417 69 447 b 139 556 69 525 100 556 b 208 486 178 556 208 525 b 139 417 208 447 178 417 m 417 417 b 347 486 378 417 347 447 b 417 556 347 525 378 556 b 486 486 456 556 486 525 b 417 417 486 447 456 417 m 694 417 b 625 486 656 417 625 447 b 694 556 625 525 656 556 b 764 486 733 556 764 525 b 694 417 764 447 733 417 m 139 278 b 69 347 100 278 69 308 b 139 417 69 386 100 417 b 208 347 178 417 208 386 b 139 278 208 308 178 278 m 417 278 b 347 347 378 278 347 308 b 417 417 347 386 378 417 b 486 347 456 417 486 386 b 417 278 486 308 456 278 m 694 278 b 625 347 656 278 625 308 b 694 417 625 386 656 417 b 764 347 733 417 764 386 b 694 278 764 308 733 278 m 139 139 b 69 208 100 139 69 169 b 139 278 69 247 100 278 b 208 208 178 278 208 247 b 139 139 208 169 178 139 m 417 139 b 347 208 378 139 347 169 b 417 278 347 247 378 278 b 486 208 456 278 486 247 b 417 139 486 169 456 139 m 694 139 b 625 208 656 139 625 169 b 694 278 625 247 656 278 b 764 208 733 278 764 247 b 694 139 764 169 733 139 m 278 0 b 208 69 239 0 208 31 b 278 139 208 108 239 139 b 347 69 317 139 347 108 b 278 0 347 31 317 0 m 556 0 b 486 69 517 0 486 31 b 556 139 486 108 517 139 b 625 69 594 139 625 108 b 556 0 625 31 594 0 "},"Ẁ":{"ha":833,"x_min":0,"x_max":0,"o":"m 278 972 b 208 1042 239 972 208 1003 b 278 1111 208 1081 239 1111 b 347 1042 317 1111 347 1081 b 278 972 347 1003 317 972 m 417 833 b 347 903 378 833 347 864 b 417 972 347 942 378 972 b 486 903 456 972 486 942 b 417 833 486 864 456 833 m 139 556 b 69 625 100 556 69 586 b 139 694 69 664 100 694 b 208 625 178 694 208 664 b 139 556 208 586 178 556 m 417 556 b 347 625 378 556 347 586 b 417 694 347 664 378 694 b 486 625 456 694 486 664 b 417 556 486 586 456 556 m 694 556 b 625 625 656 556 625 586 b 694 694 625 664 656 694 b 764 625 733 694 764 664 b 694 556 764 586 733 556 m 139 417 b 69 486 100 417 69 447 b 139 556 69 525 100 556 b 208 486 178 556 208 525 b 139 417 208 447 178 417 m 417 417 b 347 486 378 417 347 447 b 417 556 347 525 378 556 b 486 486 456 556 486 525 b 417 417 486 447 456 417 m 694 417 b 625 486 656 417 625 447 b 694 556 625 525 656 556 b 764 486 733 556 764 525 b 694 417 764 447 733 417 m 139 278 b 69 347 100 278 69 308 b 139 417 69 386 100 417 b 208 347 178 417 208 386 b 139 278 208 308 178 278 m 417 278 b 347 347 378 278 347 308 b 417 417 347 386 378 417 b 486 347 456 417 486 386 b 417 278 486 308 456 278 m 694 278 b 625 347 656 278 625 308 b 694 417 625 386 656 417 b 764 347 733 417 764 386 b 694 278 764 308 733 278 m 139 139 b 69 208 100 139 69 169 b 139 278 69 247 100 278 b 208 208 178 278 208 247 b 139 139 208 169 178 139 m 417 139 b 347 208 378 139 347 169 b 417 278 347 247 378 278 b 486 208 456 278 486 247 b 417 139 486 169 456 139 m 694 139 b 625 208 656 139 625 169 b 694 278 625 247 656 278 b 764 208 733 278 764 247 b 694 139 764 169 733 139 m 278 0 b 208 69 239 0 208 31 b 278 139 208 108 239 139 b 347 69 317 139 347 108 b 278 0 347 31 317 0 m 556 0 b 486 69 517 0 486 31 b 556 139 486 108 517 139 b 625 69 594 139 625 108 b 556 0 625 31 594 0 "},"X":{"ha":556,"x_min":0,"x_max":0,"o":"m 139 556 b 69 625 100 556 69 586 b 139 694 69 664 100 694 b 208 625 178 694 208 664 b 139 556 208 586 178 556 m 417 556 b 347 625 378 556 347 586 b 417 694 347 664 378 694 b 486 625 456 694 486 664 b 417 556 486 586 456 556 m 139 417 b 69 486 100 417 69 447 b 139 556 69 525 100 556 b 208 486 178 556 208 525 b 139 417 208 447 178 417 m 417 417 b 347 486 378 417 347 447 b 417 556 347 525 378 556 b 486 486 456 556 486 525 b 417 417 486 447 456 417 m 278 278 b 208 347 239 278 208 308 b 278 417 208 386 239 417 b 347 347 317 417 347 386 b 278 278 347 308 317 278 m 139 139 b 69 208 100 139 69 169 b 139 278 69 247 100 278 b 208 208 178 278 208 247 b 139 139 208 169 178 139 m 417 139 b 347 208 378 139 347 169 b 417 278 347 247 378 278 b 486 208 456 278 486 247 b 417 139 486 169 456 139 m 139 0 b 69 69 100 0 69 31 b 139 139 69 108 100 139 b 208 69 178 139 208 108 b 139 0 208 31 178 0 m 417 0 b 347 69 378 0 347 31 b 417 139 347 108 378 139 b 486 69 456 139 486 108 b 417 0 486 31 456 0 "},"Y":{"ha":556,"x_min":0,"x_max":0,"o":"m 139 556 b 69 625 100 556 69 586 b 139 694 69 664 100 694 b 208 625 178 694 208 664 b 139 556 208 586 178 556 m 417 556 b 347 625 378 556 347 586 b 417 694 347 664 378 694 b 486 625 456 694 486 664 b 417 556 486 586 456 556 m 139 417 b 69 486 100 417 69 447 b 139 556 69 525 100 556 b 208 486 178 556 208 525 b 139 417 208 447 178 417 m 417 417 b 347 486 378 417 347 447 b 417 556 347 525 378 556 b 486 486 456 556 486 525 b 417 417 486 447 456 417 m 278 278 b 208 347 239 278 208 308 b 278 417 208 386 239 417 b 347 347 317 417 347 386 b 278 278 347 308 317 278 m 278 139 b 208 208 239 139 208 169 b 278 278 208 247 239 278 b 347 208 317 278 347 247 b 278 139 347 169 317 139 m 278 0 b 208 69 239 0 208 31 b 278 139 208 108 239 139 b 347 69 317 139 347 108 b 278 0 347 31 317 0 "},"Ý":{"ha":556,"x_min":0,"x_max":0,"o":"m 417 972 b 347 1042 378 972 347 1003 b 417 1111 347 1081 378 1111 b 486 1042 456 1111 486 1081 b 417 972 486 1003 456 972 m 278 833 b 208 903 239 833 208 864 b 278 972 208 942 239 972 b 347 903 317 972 347 942 b 278 833 347 864 317 833 m 139 556 b 69 625 100 556 69 586 b 139 694 69 664 100 694 b 208 625 178 694 208 664 b 139 556 208 586 178 556 m 417 556 b 347 625 378 556 347 586 b 417 694 347 664 378 694 b 486 625 456 694 486 664 b 417 556 486 586 456 556 m 139 417 b 69 486 100 417 69 447 b 139 556 69 525 100 556 b 208 486 178 556 208 525 b 139 417 208 447 178 417 m 417 417 b 347 486 378 417 347 447 b 417 556 347 525 378 556 b 486 486 456 556 486 525 b 417 417 486 447 456 417 m 278 278 b 208 347 239 278 208 308 b 278 417 208 386 239 417 b 347 347 317 417 347 386 b 278 278 347 308 317 278 m 278 139 b 208 208 239 139 208 169 b 278 278 208 247 239 278 b 347 208 317 278 347 247 b 278 139 347 169 317 139 m 278 0 b 208 69 239 0 208 31 b 278 139 208 108 239 139 b 347 69 317 139 347 108 b 278 0 347 31 317 0 "},"Ŷ":{"ha":556,"x_min":0,"x_max":0,"o":"m 278 972 b 208 1042 239 972 208 1003 b 278 1111 208 1081 239 1111 b 347 1042 317 1111 347 1081 b 278 972 347 1003 317 972 m 139 833 b 69 903 100 833 69 864 b 139 972 69 942 100 972 b 208 903 178 972 208 942 b 139 833 208 864 178 833 m 417 833 b 347 903 378 833 347 864 b 417 972 347 942 378 972 b 486 903 456 972 486 942 b 417 833 486 864 456 833 m 139 556 b 69 625 100 556 69 586 b 139 694 69 664 100 694 b 208 625 178 694 208 664 b 139 556 208 586 178 556 m 417 556 b 347 625 378 556 347 586 b 417 694 347 664 378 694 b 486 625 456 694 486 664 b 417 556 486 586 456 556 m 139 417 b 69 486 100 417 69 447 b 139 556 69 525 100 556 b 208 486 178 556 208 525 b 139 417 208 447 178 417 m 417 417 b 347 486 378 417 347 447 b 417 556 347 525 378 556 b 486 486 456 556 486 525 b 417 417 486 447 456 417 m 278 278 b 208 347 239 278 208 308 b 278 417 208 386 239 417 b 347 347 317 417 347 386 b 278 278 347 308 317 278 m 278 139 b 208 208 239 139 208 169 b 278 278 208 247 239 278 b 347 208 317 278 347 247 b 278 139 347 169 317 139 m 278 0 b 208 69 239 0 208 31 b 278 139 208 108 239 139 b 347 69 317 139 347 108 b 278 0 347 31 317 0 "},"Ÿ":{"ha":556,"x_min":0,"x_max":0,"o":"m 139 833 b 69 903 100 833 69 864 b 139 972 69 942 100 972 b 208 903 178 972 208 942 b 139 833 208 864 178 833 m 417 833 b 347 903 378 833 347 864 b 417 972 347 942 378 972 b 486 903 456 972 486 942 b 417 833 486 864 456 833 m 139 556 b 69 625 100 556 69 586 b 139 694 69 664 100 694 b 208 625 178 694 208 664 b 139 556 208 586 178 556 m 417 556 b 347 625 378 556 347 586 b 417 694 347 664 378 694 b 486 625 456 694 486 664 b 417 556 486 586 456 556 m 139 417 b 69 486 100 417 69 447 b 139 556 69 525 100 556 b 208 486 178 556 208 525 b 139 417 208 447 178 417 m 417 417 b 347 486 378 417 347 447 b 417 556 347 525 378 556 b 486 486 456 556 486 525 b 417 417 486 447 456 417 m 278 278 b 208 347 239 278 208 308 b 278 417 208 386 239 417 b 347 347 317 417 347 386 b 278 278 347 308 317 278 m 278 139 b 208 208 239 139 208 169 b 278 278 208 247 239 278 b 347 208 317 278 347 247 b 278 139 347 169 317 139 m 278 0 b 208 69 239 0 208 31 b 278 139 208 108 239 139 b 347 69 317 139 347 108 b 278 0 347 31 317 0 "},"Ỳ":{"ha":556,"x_min":0,"x_max":0,"o":"m 139 972 b 69 1042 100 972 69 1003 b 139 1111 69 1081 100 1111 b 208 1042 178 1111 208 1081 b 139 972 208 1003 178 972 m 278 833 b 208 903 239 833 208 864 b 278 972 208 942 239 972 b 347 903 317 972 347 942 b 278 833 347 864 317 833 m 139 556 b 69 625 100 556 69 586 b 139 694 69 664 100 694 b 208 625 178 694 208 664 b 139 556 208 586 178 556 m 417 556 b 347 625 378 556 347 586 b 417 694 347 664 378 694 b 486 625 456 694 486 664 b 417 556 486 586 456 556 m 139 417 b 69 486 100 417 69 447 b 139 556 69 525 100 556 b 208 486 178 556 208 525 b 139 417 208 447 178 417 m 417 417 b 347 486 378 417 347 447 b 417 556 347 525 378 556 b 486 486 456 556 486 525 b 417 417 486 447 456 417 m 278 278 b 208 347 239 278 208 308 b 278 417 208 386 239 417 b 347 347 317 417 347 386 b 278 278 347 308 317 278 m 278 139 b 208 208 239 139 208 169 b 278 278 208 247 239 278 b 347 208 317 278 347 247 b 278 139 347 169 317 139 m 278 0 b 208 69 239 0 208 31 b 278 139 208 108 239 139 b 347 69 317 139 347 108 b 278 0 347 31 317 0 "},"Z":{"ha":556,"x_min":0,"x_max":0,"o":"m 139 556 b 69 625 100 556 69 586 b 139 694 69 664 100 694 b 208 625 178 694 208 664 b 139 556 208 586 178 556 m 278 556 b 208 625 239 556 208 586 b 278 694 208 664 239 694 b 347 625 317 694 347 664 b 278 556 347 586 317 556 m 417 556 b 347 625 378 556 347 586 b 417 694 347 664 378 694 b 486 625 456 694 486 664 b 417 556 486 586 456 556 m 417 417 b 347 486 378 417 347 447 b 417 556 347 525 378 556 b 486 486 456 556 486 525 b 417 417 486 447 456 417 m 278 278 b 208 347 239 278 208 308 b 278 417 208 386 239 417 b 347 347 317 417 347 386 b 278 278 347 308 317 278 m 139 139 b 69 208 100 139 69 169 b 139 278 69 247 100 278 b 208 208 178 278 208 247 b 139 139 208 169 178 139 m 139 0 b 69 69 100 0 69 31 b 139 139 69 108 100 139 b 208 69 178 139 208 108 b 139 0 208 31 178 0 m 278 0 b 208 69 239 0 208 31 b 278 139 208 108 239 139 b 347 69 317 139 347 108 b 278 0 347 31 317 0 m 417 0 b 347 69 378 0 347 31 b 417 139 347 108 378 139 b 486 69 456 139 486 108 b 417 0 486 31 456 0 "},"Ź":{"ha":556,"x_min":0,"x_max":0,"o":"m 417 972 b 347 1042 378 972 347 1003 b 417 1111 347 1081 378 1111 b 486 1042 456 1111 486 1081 b 417 972 486 1003 456 972 m 278 833 b 208 903 239 833 208 864 b 278 972 208 942 239 972 b 347 903 317 972 347 942 b 278 833 347 864 317 833 m 139 556 b 69 625 100 556 69 586 b 139 694 69 664 100 694 b 208 625 178 694 208 664 b 139 556 208 586 178 556 m 278 556 b 208 625 239 556 208 586 b 278 694 208 664 239 694 b 347 625 317 694 347 664 b 278 556 347 586 317 556 m 417 556 b 347 625 378 556 347 586 b 417 694 347 664 378 694 b 486 625 456 694 486 664 b 417 556 486 586 456 556 m 417 417 b 347 486 378 417 347 447 b 417 556 347 525 378 556 b 486 486 456 556 486 525 b 417 417 486 447 456 417 m 278 278 b 208 347 239 278 208 308 b 278 417 208 386 239 417 b 347 347 317 417 347 386 b 278 278 347 308 317 278 m 139 139 b 69 208 100 139 69 169 b 139 278 69 247 100 278 b 208 208 178 278 208 247 b 139 139 208 169 178 139 m 139 0 b 69 69 100 0 69 31 b 139 139 69 108 100 139 b 208 69 178 139 208 108 b 139 0 208 31 178 0 m 278 0 b 208 69 239 0 208 31 b 278 139 208 108 239 139 b 347 69 317 139 347 108 b 278 0 347 31 317 0 m 417 0 b 347 69 378 0 347 31 b 417 139 347 108 378 139 b 486 69 456 139 486 108 b 417 0 486 31 456 0 "},"Ž":{"ha":556,"x_min":0,"x_max":0,"o":"m 139 972 b 69 1042 100 972 69 1003 b 139 1111 69 1081 100 1111 b 208 1042 178 1111 208 1081 b 139 972 208 1003 178 972 m 417 972 b 347 1042 378 972 347 1003 b 417 1111 347 1081 378 1111 b 486 1042 456 1111 486 1081 b 417 972 486 1003 456 972 m 278 833 b 208 903 239 833 208 864 b 278 972 208 942 239 972 b 347 903 317 972 347 942 b 278 833 347 864 317 833 m 139 556 b 69 625 100 556 69 586 b 139 694 69 664 100 694 b 208 625 178 694 208 664 b 139 556 208 586 178 556 m 278 556 b 208 625 239 556 208 586 b 278 694 208 664 239 694 b 347 625 317 694 347 664 b 278 556 347 586 317 556 m 417 556 b 347 625 378 556 347 586 b 417 694 347 664 378 694 b 486 625 456 694 486 664 b 417 556 486 586 456 556 m 417 417 b 347 486 378 417 347 447 b 417 556 347 525 378 556 b 486 486 456 556 486 525 b 417 417 486 447 456 417 m 278 278 b 208 347 239 278 208 308 b 278 417 208 386 239 417 b 347 347 317 417 347 386 b 278 278 347 308 317 278 m 139 139 b 69 208 100 139 69 169 b 139 278 69 247 100 278 b 208 208 178 278 208 247 b 139 139 208 169 178 139 m 139 0 b 69 69 100 0 69 31 b 139 139 69 108 100 139 b 208 69 178 139 208 108 b 139 0 208 31 178 0 m 278 0 b 208 69 239 0 208 31 b 278 139 208 108 239 139 b 347 69 317 139 347 108 b 278 0 347 31 317 0 m 417 0 b 347 69 378 0 347 31 b 417 139 347 108 378 139 b 486 69 456 139 486 108 b 417 0 486 31 456 0 "},"Ż":{"ha":556,"x_min":0,"x_max":0,"o":"m 278 833 b 208 903 239 833 208 864 b 278 972 208 942 239 972 b 347 903 317 972 347 942 b 278 833 347 864 317 833 m 139 556 b 69 625 100 556 69 586 b 139 694 69 664 100 694 b 208 625 178 694 208 664 b 139 556 208 586 178 556 m 278 556 b 208 625 239 556 208 586 b 278 694 208 664 239 694 b 347 625 317 694 347 664 b 278 556 347 586 317 556 m 417 556 b 347 625 378 556 347 586 b 417 694 347 664 378 694 b 486 625 456 694 486 664 b 417 556 486 586 456 556 m 417 417 b 347 486 378 417 347 447 b 417 556 347 525 378 556 b 486 486 456 556 486 525 b 417 417 486 447 456 417 m 278 278 b 208 347 239 278 208 308 b 278 417 208 386 239 417 b 347 347 317 417 347 386 b 278 278 347 308 317 278 m 139 139 b 69 208 100 139 69 169 b 139 278 69 247 100 278 b 208 208 178 278 208 247 b 139 139 208 169 178 139 m 139 0 b 69 69 100 0 69 31 b 139 139 69 108 100 139 b 208 69 178 139 208 108 b 139 0 208 31 178 0 m 278 0 b 208 69 239 0 208 31 b 278 139 208 108 239 139 b 347 69 317 139 347 108 b 278 0 347 31 317 0 m 417 0 b 347 69 378 0 347 31 b 417 139 347 108 378 139 b 486 69 456 139 486 108 b 417 0 486 31 456 0 "},"a":{"ha":556,"x_min":0,"x_max":0,"o":"m 139 417 b 69 486 100 417 69 447 b 139 556 69 525 100 556 b 208 486 178 556 208 525 b 139 417 208 447 178 417 m 278 417 b 208 486 239 417 208 447 b 278 556 208 525 239 556 b 347 486 317 556 347 525 b 278 417 347 447 317 417 m 417 278 b 347 347 378 278 347 308 b 417 417 347 386 378 417 b 486 347 456 417 486 386 b 417 278 486 308 456 278 m 139 139 b 69 208 100 139 69 169 b 139 278 69 247 100 278 b 208 208 178 278 208 247 b 139 139 208 169 178 139 m 278 139 b 208 208 239 139 208 169 b 278 278 208 247 239 278 b 347 208 317 278 347 247 b 278 139 347 169 317 139 m 417 139 b 347 208 378 139 347 169 b 417 278 347 247 378 278 b 486 208 456 278 486 247 b 417 139 486 169 456 139 m 139 0 b 69 69 100 0 69 31 b 139 139 69 108 100 139 b 208 69 178 139 208 108 b 139 0 208 31 178 0 m 417 0 b 347 69 378 0 347 31 b 417 139 347 108 378 139 b 486 69 456 139 486 108 b 417 0 486 31 456 0 "},"á":{"ha":556,"x_min":0,"x_max":0,"o":"m 417 833 b 347 903 378 833 347 864 b 417 972 347 942 378 972 b 486 903 456 972 486 942 b 417 833 486 864 456 833 m 278 694 b 208 764 239 694 208 725 b 278 833 208 803 239 833 b 347 764 317 833 347 803 b 278 694 347 725 317 694 m 139 417 b 69 486 100 417 69 447 b 139 556 69 525 100 556 b 208 486 178 556 208 525 b 139 417 208 447 178 417 m 278 417 b 208 486 239 417 208 447 b 278 556 208 525 239 556 b 347 486 317 556 347 525 b 278 417 347 447 317 417 m 417 278 b 347 347 378 278 347 308 b 417 417 347 386 378 417 b 486 347 456 417 486 386 b 417 278 486 308 456 278 m 139 139 b 69 208 100 139 69 169 b 139 278 69 247 100 278 b 208 208 178 278 208 247 b 139 139 208 169 178 139 m 278 139 b 208 208 239 139 208 169 b 278 278 208 247 239 278 b 347 208 317 278 347 247 b 278 139 347 169 317 139 m 417 139 b 347 208 378 139 347 169 b 417 278 347 247 378 278 b 486 208 456 278 486 247 b 417 139 486 169 456 139 m 139 0 b 69 69 100 0 69 31 b 139 139 69 108 100 139 b 208 69 178 139 208 108 b 139 0 208 31 178 0 m 417 0 b 347 69 378 0 347 31 b 417 139 347 108 378 139 b 486 69 456 139 486 108 b 417 0 486 31 456 0 "},"ă":{"ha":556,"x_min":0,"x_max":0,"o":"m 139 833 b 69 903 100 833 69 864 b 139 972 69 942 100 972 b 208 903 178 972 208 942 b 139 833 208 864 178 833 m 417 833 b 347 903 378 833 347 864 b 417 972 347 942 378 972 b 486 903 456 972 486 942 b 417 833 486 864 456 833 m 139 694 b 69 764 100 694 69 725 b 139 833 69 803 100 833 b 208 764 178 833 208 803 b 139 694 208 725 178 694 m 278 694 b 208 764 239 694 208 725 b 278 833 208 803 239 833 b 347 764 317 833 347 803 b 278 694 347 725 317 694 m 417 694 b 347 764 378 694 347 725 b 417 833 347 803 378 833 b 486 764 456 833 486 803 b 417 694 486 725 456 694 m 139 417 b 69 486 100 417 69 447 b 139 556 69 525 100 556 b 208 486 178 556 208 525 b 139 417 208 447 178 417 m 278 417 b 208 486 239 417 208 447 b 278 556 208 525 239 556 b 347 486 317 556 347 525 b 278 417 347 447 317 417 m 417 278 b 347 347 378 278 347 308 b 417 417 347 386 378 417 b 486 347 456 417 486 386 b 417 278 486 308 456 278 m 139 139 b 69 208 100 139 69 169 b 139 278 69 247 100 278 b 208 208 178 278 208 247 b 139 139 208 169 178 139 m 278 139 b 208 208 239 139 208 169 b 278 278 208 247 239 278 b 347 208 317 278 347 247 b 278 139 347 169 317 139 m 417 139 b 347 208 378 139 347 169 b 417 278 347 247 378 278 b 486 208 456 278 486 247 b 417 139 486 169 456 139 m 139 0 b 69 69 100 0 69 31 b 139 139 69 108 100 139 b 208 69 178 139 208 108 b 139 0 208 31 178 0 m 417 0 b 347 69 378 0 347 31 b 417 139 347 108 378 139 b 486 69 456 139 486 108 b 417 0 486 31 456 0 "},"â":{"ha":556,"x_min":0,"x_max":0,"o":"m 278 833 b 208 903 239 833 208 864 b 278 972 208 942 239 972 b 347 903 317 972 347 942 b 278 833 347 864 317 833 m 139 694 b 69 764 100 694 69 725 b 139 833 69 803 100 833 b 208 764 178 833 208 803 b 139 694 208 725 178 694 m 417 694 b 347 764 378 694 347 725 b 417 833 347 803 378 833 b 486 764 456 833 486 803 b 417 694 486 725 456 694 m 139 417 b 69 486 100 417 69 447 b 139 556 69 525 100 556 b 208 486 178 556 208 525 b 139 417 208 447 178 417 m 278 417 b 208 486 239 417 208 447 b 278 556 208 525 239 556 b 347 486 317 556 347 525 b 278 417 347 447 317 417 m 417 278 b 347 347 378 278 347 308 b 417 417 347 386 378 417 b 486 347 456 417 486 386 b 417 278 486 308 456 278 m 139 139 b 69 208 100 139 69 169 b 139 278 69 247 100 278 b 208 208 178 278 208 247 b 139 139 208 169 178 139 m 278 139 b 208 208 239 139 208 169 b 278 278 208 247 239 278 b 347 208 317 278 347 247 b 278 139 347 169 317 139 m 417 139 b 347 208 378 139 347 169 b 417 278 347 247 378 278 b 486 208 456 278 486 247 b 417 139 486 169 456 139 m 139 0 b 69 69 100 0 69 31 b 139 139 69 108 100 139 b 208 69 178 139 208 108 b 139 0 208 31 178 0 m 417 0 b 347 69 378 0 347 31 b 417 139 347 108 378 139 b 486 69 456 139 486 108 b 417 0 486 31 456 0 "},"ä":{"ha":556,"x_min":0,"x_max":0,"o":"m 139 694 b 69 764 100 694 69 725 b 139 833 69 803 100 833 b 208 764 178 833 208 803 b 139 694 208 725 178 694 m 417 694 b 347 764 378 694 347 725 b 417 833 347 803 378 833 b 486 764 456 833 486 803 b 417 694 486 725 456 694 m 139 417 b 69 486 100 417 69 447 b 139 556 69 525 100 556 b 208 486 178 556 208 525 b 139 417 208 447 178 417 m 278 417 b 208 486 239 417 208 447 b 278 556 208 525 239 556 b 347 486 317 556 347 525 b 278 417 347 447 317 417 m 417 278 b 347 347 378 278 347 308 b 417 417 347 386 378 417 b 486 347 456 417 486 386 b 417 278 486 308 456 278 m 139 139 b 69 208 100 139 69 169 b 139 278 69 247 100 278 b 208 208 178 278 208 247 b 139 139 208 169 178 139 m 278 139 b 208 208 239 139 208 169 b 278 278 208 247 239 278 b 347 208 317 278 347 247 b 278 139 347 169 317 139 m 417 139 b 347 208 378 139 347 169 b 417 278 347 247 378 278 b 486 208 456 278 486 247 b 417 139 486 169 456 139 m 139 0 b 69 69 100 0 69 31 b 139 139 69 108 100 139 b 208 69 178 139 208 108 b 139 0 208 31 178 0 m 417 0 b 347 69 378 0 347 31 b 417 139 347 108 378 139 b 486 69 456 139 486 108 b 417 0 486 31 456 0 "},"à":{"ha":556,"x_min":0,"x_max":0,"o":"m 139 833 b 69 903 100 833 69 864 b 139 972 69 942 100 972 b 208 903 178 972 208 942 b 139 833 208 864 178 833 m 278 694 b 208 764 239 694 208 725 b 278 833 208 803 239 833 b 347 764 317 833 347 803 b 278 694 347 725 317 694 m 139 417 b 69 486 100 417 69 447 b 139 556 69 525 100 556 b 208 486 178 556 208 525 b 139 417 208 447 178 417 m 278 417 b 208 486 239 417 208 447 b 278 556 208 525 239 556 b 347 486 317 556 347 525 b 278 417 347 447 317 417 m 417 278 b 347 347 378 278 347 308 b 417 417 347 386 378 417 b 486 347 456 417 486 386 b 417 278 486 308 456 278 m 139 139 b 69 208 100 139 69 169 b 139 278 69 247 100 278 b 208 208 178 278 208 247 b 139 139 208 169 178 139 m 278 139 b 208 208 239 139 208 169 b 278 278 208 247 239 278 b 347 208 317 278 347 247 b 278 139 347 169 317 139 m 417 139 b 347 208 378 139 347 169 b 417 278 347 247 378 278 b 486 208 456 278 486 247 b 417 139 486 169 456 139 m 139 0 b 69 69 100 0 69 31 b 139 139 69 108 100 139 b 208 69 178 139 208 108 b 139 0 208 31 178 0 m 417 0 b 347 69 378 0 347 31 b 417 139 347 108 378 139 b 486 69 456 139 486 108 b 417 0 486 31 456 0 "},"ā":{"ha":556,"x_min":0,"x_max":0,"o":"m 139 694 b 69 764 100 694 69 725 b 139 833 69 803 100 833 b 208 764 178 833 208 803 b 139 694 208 725 178 694 m 278 694 b 208 764 239 694 208 725 b 278 833 208 803 239 833 b 347 764 317 833 347 803 b 278 694 347 725 317 694 m 417 694 b 347 764 378 694 347 725 b 417 833 347 803 378 833 b 486 764 456 833 486 803 b 417 694 486 725 456 694 m 139 417 b 69 486 100 417 69 447 b 139 556 69 525 100 556 b 208 486 178 556 208 525 b 139 417 208 447 178 417 m 278 417 b 208 486 239 417 208 447 b 278 556 208 525 239 556 b 347 486 317 556 347 525 b 278 417 347 447 317 417 m 417 278 b 347 347 378 278 347 308 b 417 417 347 386 378 417 b 486 347 456 417 486 386 b 417 278 486 308 456 278 m 139 139 b 69 208 100 139 69 169 b 139 278 69 247 100 278 b 208 208 178 278 208 247 b 139 139 208 169 178 139 m 278 139 b 208 208 239 139 208 169 b 278 278 208 247 239 278 b 347 208 317 278 347 247 b 278 139 347 169 317 139 m 417 139 b 347 208 378 139 347 169 b 417 278 347 247 378 278 b 486 208 456 278 486 247 b 417 139 486 169 456 139 m 139 0 b 69 69 100 0 69 31 b 139 139 69 108 100 139 b 208 69 178 139 208 108 b 139 0 208 31 178 0 m 417 0 b 347 69 378 0 347 31 b 417 139 347 108 378 139 b 486 69 456 139 486 108 b 417 0 486 31 456 0 "},"ą":{"ha":556,"x_min":0,"x_max":0,"o":"m 139 417 b 69 486 100 417 69 447 b 139 556 69 525 100 556 b 208 486 178 556 208 525 b 139 417 208 447 178 417 m 278 417 b 208 486 239 417 208 447 b 278 556 208 525 239 556 b 347 486 317 556 347 525 b 278 417 347 447 317 417 m 417 278 b 347 347 378 278 347 308 b 417 417 347 386 378 417 b 486 347 456 417 486 386 b 417 278 486 308 456 278 m 139 139 b 69 208 100 139 69 169 b 139 278 69 247 100 278 b 208 208 178 278 208 247 b 139 139 208 169 178 139 m 278 139 b 208 208 239 139 208 169 b 278 278 208 247 239 278 b 347 208 317 278 347 247 b 278 139 347 169 317 139 m 417 139 b 347 208 378 139 347 169 b 417 278 347 247 378 278 b 486 208 456 278 486 247 b 417 139 486 169 456 139 m 139 0 b 69 69 100 0 69 31 b 139 139 69 108 100 139 b 208 69 178 139 208 108 b 139 0 208 31 178 0 m 417 0 b 347 69 378 0 347 31 b 417 139 347 108 378 139 b 486 69 456 139 486 108 b 417 0 486 31 456 0 m 278 -139 b 208 -69 239 -139 208 -108 b 278 0 208 -31 239 0 b 347 -69 317 0 347 -31 b 278 -139 347 -108 317 -139 m 278 -278 b 208 -208 239 -278 208 -247 b 278 -139 208 -169 239 -139 b 347 -208 317 -139 347 -169 b 278 -278 347 -247 317 -278 m 417 -278 b 347 -208 378 -278 347 -247 b 417 -139 347 -169 378 -139 b 486 -208 456 -139 486 -169 b 417 -278 486 -247 456 -278 "},"å":{"ha":556,"x_min":0,"x_max":0,"o":"m 278 833 b 208 903 239 833 208 864 b 278 972 208 942 239 972 b 347 903 317 972 347 942 b 278 833 347 864 317 833 m 139 694 b 69 764 100 694 69 725 b 139 833 69 803 100 833 b 208 764 178 833 208 803 b 139 694 208 725 178 694 m 417 694 b 347 764 378 694 347 725 b 417 833 347 803 378 833 b 486 764 456 833 486 803 b 417 694 486 725 456 694 m 278 556 b 208 625 239 556 208 586 b 278 694 208 664 239 694 b 347 625 317 694 347 664 b 278 556 347 586 317 556 m 139 417 b 69 486 100 417 69 447 b 139 556 69 525 100 556 b 208 486 178 556 208 525 b 139 417 208 447 178 417 m 278 417 b 208 486 239 417 208 447 b 278 556 208 525 239 556 b 347 486 317 556 347 525 b 278 417 347 447 317 417 m 417 278 b 347 347 378 278 347 308 b 417 417 347 386 378 417 b 486 347 456 417 486 386 b 417 278 486 308 456 278 m 139 139 b 69 208 100 139 69 169 b 139 278 69 247 100 278 b 208 208 178 278 208 247 b 139 139 208 169 178 139 m 278 139 b 208 208 239 139 208 169 b 278 278 208 247 239 278 b 347 208 317 278 347 247 b 278 139 347 169 317 139 m 417 139 b 347 208 378 139 347 169 b 417 278 347 247 378 278 b 486 208 456 278 486 247 b 417 139 486 169 456 139 m 139 0 b 69 69 100 0 69 31 b 139 139 69 108 100 139 b 208 69 178 139 208 108 b 139 0 208 31 178 0 m 417 0 b 347 69 378 0 347 31 b 417 139 347 108 378 139 b 486 69 456 139 486 108 b 417 0 486 31 456 0 "},"ã":{"ha":556,"x_min":0,"x_max":0,"o":"m 278 833 b 208 903 239 833 208 864 b 278 972 208 942 239 972 b 347 903 317 972 347 942 b 278 833 347 864 317 833 m 556 833 b 486 903 517 833 486 864 b 556 972 486 942 517 972 b 625 903 594 972 625 942 b 556 833 625 864 594 833 m 139 694 b 69 764 100 694 69 725 b 139 833 69 803 100 833 b 208 764 178 833 208 803 b 139 694 208 725 178 694 m 417 694 b 347 764 378 694 347 725 b 417 833 347 803 378 833 b 486 764 456 833 486 803 b 417 694 486 725 456 694 m 139 417 b 69 486 100 417 69 447 b 139 556 69 525 100 556 b 208 486 178 556 208 525 b 139 417 208 447 178 417 m 278 417 b 208 486 239 417 208 447 b 278 556 208 525 239 556 b 347 486 317 556 347 525 b 278 417 347 447 317 417 m 417 278 b 347 347 378 278 347 308 b 417 417 347 386 378 417 b 486 347 456 417 486 386 b 417 278 486 308 456 278 m 139 139 b 69 208 100 139 69 169 b 139 278 69 247 100 278 b 208 208 178 278 208 247 b 139 139 208 169 178 139 m 278 139 b 208 208 239 139 208 169 b 278 278 208 247 239 278 b 347 208 317 278 347 247 b 278 139 347 169 317 139 m 417 139 b 347 208 378 139 347 169 b 417 278 347 247 378 278 b 486 208 456 278 486 247 b 417 139 486 169 456 139 m 139 0 b 69 69 100 0 69 31 b 139 139 69 108 100 139 b 208 69 178 139 208 108 b 139 0 208 31 178 0 m 417 0 b 347 69 378 0 347 31 b 417 139 347 108 378 139 b 486 69 456 139 486 108 b 417 0 486 31 456 0 "},"æ":{"ha":833,"x_min":0,"x_max":0,"o":"m 139 417 b 69 486 100 417 69 447 b 139 556 69 525 100 556 b 208 486 178 556 208 525 b 139 417 208 447 178 417 m 278 417 b 208 486 239 417 208 447 b 278 556 208 525 239 556 b 347 486 317 556 347 525 b 278 417 347 447 317 417 m 625 486 b 556 417 625 447 594 417 b 486 486 517 417 486 447 b 556 556 486 525 517 556 b 625 486 594 556 625 525 m 486 347 b 417 278 486 308 456 278 b 347 347 378 278 347 308 b 417 417 347 386 378 417 b 486 347 456 417 486 386 m 556 278 b 486 347 517 278 486 308 b 556 417 486 386 517 417 b 625 347 594 417 625 386 b 556 278 625 308 594 278 m 694 278 b 625 347 656 278 625 308 b 694 417 625 386 656 417 b 764 347 733 417 764 386 b 694 278 764 308 733 278 m 139 278 b 208 208 178 278 208 247 b 139 139 208 169 178 139 b 69 208 100 139 69 169 b 139 278 69 247 100 278 m 278 278 b 347 208 317 278 347 247 b 278 139 347 169 317 139 b 208 208 239 139 208 169 b 278 278 208 247 239 278 m 486 208 b 417 139 486 169 456 139 b 347 208 378 139 347 169 b 417 278 347 247 378 278 b 486 208 456 278 486 247 m 69 69 b 139 139 69 108 100 139 b 208 69 178 139 208 108 b 139 0 208 31 178 0 b 69 69 100 0 69 31 m 417 139 b 486 69 456 139 486 108 b 417 0 486 31 456 0 b 347 69 378 0 347 31 b 417 139 347 108 378 139 m 556 139 b 625 69 594 139 625 108 b 556 0 625 31 594 0 b 486 69 517 0 486 31 b 556 139 486 108 517 139 m 694 139 b 764 69 733 139 764 108 b 694 0 764 31 733 0 b 625 69 656 0 625 31 b 694 139 625 108 656 139 "},"b":{"ha":556,"x_min":0,"x_max":0,"o":"m 139 556 b 69 625 100 556 69 586 b 139 694 69 664 100 694 b 208 625 178 694 208 664 b 139 556 208 586 178 556 m 139 417 b 69 486 100 417 69 447 b 139 556 69 525 100 556 b 208 486 178 556 208 525 b 139 417 208 447 178 417 m 278 417 b 208 486 239 417 208 447 b 278 556 208 525 239 556 b 347 486 317 556 347 525 b 278 417 347 447 317 417 m 139 278 b 69 347 100 278 69 308 b 139 417 69 386 100 417 b 208 347 178 417 208 386 b 139 278 208 308 178 278 m 417 278 b 347 347 378 278 347 308 b 417 417 347 386 378 417 b 486 347 456 417 486 386 b 417 278 486 308 456 278 m 139 139 b 69 208 100 139 69 169 b 139 278 69 247 100 278 b 208 208 178 278 208 247 b 139 139 208 169 178 139 m 417 139 b 347 208 378 139 347 169 b 417 278 347 247 378 278 b 486 208 456 278 486 247 b 417 139 486 169 456 139 m 139 0 b 69 69 100 0 69 31 b 139 139 69 108 100 139 b 208 69 178 139 208 108 b 139 0 208 31 178 0 m 278 0 b 208 69 239 0 208 31 b 278 139 208 108 239 139 b 347 69 317 139 347 108 b 278 0 347 31 317 0 "},"c":{"ha":556,"x_min":0,"x_max":0,"o":"m 278 417 b 208 486 239 417 208 447 b 278 556 208 525 239 556 b 347 486 317 556 347 525 b 278 417 347 447 317 417 m 139 278 b 69 347 100 278 69 308 b 139 417 69 386 100 417 b 208 347 178 417 208 386 b 139 278 208 308 178 278 m 417 278 b 347 347 378 278 347 308 b 417 417 347 386 378 417 b 486 347 456 417 486 386 b 417 278 486 308 456 278 m 139 139 b 69 208 100 139 69 169 b 139 278 69 247 100 278 b 208 208 178 278 208 247 b 139 139 208 169 178 139 m 278 0 b 208 69 239 0 208 31 b 278 139 208 108 239 139 b 347 69 317 139 347 108 b 278 0 347 31 317 0 m 417 0 b 347 69 378 0 347 31 b 417 139 347 108 378 139 b 486 69 456 139 486 108 b 417 0 486 31 456 0 "},"ć":{"ha":556,"x_min":0,"x_max":0,"o":"m 417 833 b 347 903 378 833 347 864 b 417 972 347 942 378 972 b 486 903 456 972 486 942 b 417 833 486 864 456 833 m 278 694 b 208 764 239 694 208 725 b 278 833 208 803 239 833 b 347 764 317 833 347 803 b 278 694 347 725 317 694 m 278 417 b 208 486 239 417 208 447 b 278 556 208 525 239 556 b 347 486 317 556 347 525 b 278 417 347 447 317 417 m 139 278 b 69 347 100 278 69 308 b 139 417 69 386 100 417 b 208 347 178 417 208 386 b 139 278 208 308 178 278 m 417 278 b 347 347 378 278 347 308 b 417 417 347 386 378 417 b 486 347 456 417 486 386 b 417 278 486 308 456 278 m 139 139 b 69 208 100 139 69 169 b 139 278 69 247 100 278 b 208 208 178 278 208 247 b 139 139 208 169 178 139 m 278 0 b 208 69 239 0 208 31 b 278 139 208 108 239 139 b 347 69 317 139 347 108 b 278 0 347 31 317 0 m 417 0 b 347 69 378 0 347 31 b 417 139 347 108 378 139 b 486 69 456 139 486 108 b 417 0 486 31 456 0 "},"č":{"ha":556,"x_min":0,"x_max":0,"o":"m 139 833 b 69 903 100 833 69 864 b 139 972 69 942 100 972 b 208 903 178 972 208 942 b 139 833 208 864 178 833 m 417 833 b 347 903 378 833 347 864 b 417 972 347 942 378 972 b 486 903 456 972 486 942 b 417 833 486 864 456 833 m 278 694 b 208 764 239 694 208 725 b 278 833 208 803 239 833 b 347 764 317 833 347 803 b 278 694 347 725 317 694 m 278 417 b 208 486 239 417 208 447 b 278 556 208 525 239 556 b 347 486 317 556 347 525 b 278 417 347 447 317 417 m 139 278 b 69 347 100 278 69 308 b 139 417 69 386 100 417 b 208 347 178 417 208 386 b 139 278 208 308 178 278 m 417 278 b 347 347 378 278 347 308 b 417 417 347 386 378 417 b 486 347 456 417 486 386 b 417 278 486 308 456 278 m 139 139 b 69 208 100 139 69 169 b 139 278 69 247 100 278 b 208 208 178 278 208 247 b 139 139 208 169 178 139 m 278 0 b 208 69 239 0 208 31 b 278 139 208 108 239 139 b 347 69 317 139 347 108 b 278 0 347 31 317 0 m 417 0 b 347 69 378 0 347 31 b 417 139 347 108 378 139 b 486 69 456 139 486 108 b 417 0 486 31 456 0 "},"ç":{"ha":556,"x_min":0,"x_max":0,"o":"m 278 417 b 208 486 239 417 208 447 b 278 556 208 525 239 556 b 347 486 317 556 347 525 b 278 417 347 447 317 417 m 139 278 b 69 347 100 278 69 308 b 139 417 69 386 100 417 b 208 347 178 417 208 386 b 139 278 208 308 178 278 m 417 278 b 347 347 378 278 347 308 b 417 417 347 386 378 417 b 486 347 456 417 486 386 b 417 278 486 308 456 278 m 139 139 b 69 208 100 139 69 169 b 139 278 69 247 100 278 b 208 208 178 278 208 247 b 139 139 208 169 178 139 m 278 0 b 208 69 239 0 208 31 b 278 139 208 108 239 139 b 347 69 317 139 347 108 b 278 0 347 31 317 0 m 417 0 b 347 69 378 0 347 31 b 417 139 347 108 378 139 b 486 69 456 139 486 108 b 417 0 486 31 456 0 m 278 -139 b 208 -69 239 -139 208 -108 b 278 0 208 -31 239 0 b 347 -69 317 0 347 -31 b 278 -139 347 -108 317 -139 m 139 -278 b 69 -208 100 -278 69 -247 b 139 -139 69 -169 100 -139 b 208 -208 178 -139 208 -169 b 139 -278 208 -247 178 -278 m 278 -278 b 208 -208 239 -278 208 -247 b 278 -139 208 -169 239 -139 b 347 -208 317 -139 347 -169 b 278 -278 347 -247 317 -278 "},"ċ":{"ha":556,"x_min":0,"x_max":0,"o":"m 278 694 b 208 764 239 694 208 725 b 278 833 208 803 239 833 b 347 764 317 833 347 803 b 278 694 347 725 317 694 m 278 417 b 208 486 239 417 208 447 b 278 556 208 525 239 556 b 347 486 317 556 347 525 b 278 417 347 447 317 417 m 139 278 b 69 347 100 278 69 308 b 139 417 69 386 100 417 b 208 347 178 417 208 386 b 139 278 208 308 178 278 m 417 278 b 347 347 378 278 347 308 b 417 417 347 386 378 417 b 486 347 456 417 486 386 b 417 278 486 308 456 278 m 139 139 b 69 208 100 139 69 169 b 139 278 69 247 100 278 b 208 208 178 278 208 247 b 139 139 208 169 178 139 m 278 0 b 208 69 239 0 208 31 b 278 139 208 108 239 139 b 347 69 317 139 347 108 b 278 0 347 31 317 0 m 417 0 b 347 69 378 0 347 31 b 417 139 347 108 378 139 b 486 69 456 139 486 108 b 417 0 486 31 456 0 "},"d":{"ha":556,"x_min":0,"x_max":0,"o":"m 417 556 b 347 625 378 556 347 586 b 417 694 347 664 378 694 b 486 625 456 694 486 664 b 417 556 486 586 456 556 m 278 417 b 208 486 239 417 208 447 b 278 556 208 525 239 556 b 347 486 317 556 347 525 b 278 417 347 447 317 417 m 417 417 b 347 486 378 417 347 447 b 417 556 347 525 378 556 b 486 486 456 556 486 525 b 417 417 486 447 456 417 m 139 278 b 69 347 100 278 69 308 b 139 417 69 386 100 417 b 208 347 178 417 208 386 b 139 278 208 308 178 278 m 417 278 b 347 347 378 278 347 308 b 417 417 347 386 378 417 b 486 347 456 417 486 386 b 417 278 486 308 456 278 m 139 139 b 69 208 100 139 69 169 b 139 278 69 247 100 278 b 208 208 178 278 208 247 b 139 139 208 169 178 139 m 417 139 b 347 208 378 139 347 169 b 417 278 347 247 378 278 b 486 208 456 278 486 247 b 417 139 486 169 456 139 m 278 0 b 208 69 239 0 208 31 b 278 139 208 108 239 139 b 347 69 317 139 347 108 b 278 0 347 31 317 0 m 417 0 b 347 69 378 0 347 31 b 417 139 347 108 378 139 b 486 69 456 139 486 108 b 417 0 486 31 456 0 "},"ð":{"ha":556,"x_min":0,"x_max":0,"o":"m 139 833 b 69 903 100 833 69 864 b 139 972 69 942 100 972 b 208 903 178 972 208 942 b 139 833 208 864 178 833 m 417 833 b 347 903 378 833 347 864 b 417 972 347 942 378 972 b 486 903 456 972 486 942 b 417 833 486 864 456 833 m 278 694 b 208 764 239 694 208 725 b 278 833 208 803 239 833 b 347 764 317 833 347 803 b 278 694 347 725 317 694 m 139 556 b 69 625 100 556 69 586 b 139 694 69 664 100 694 b 208 625 178 694 208 664 b 139 556 208 586 178 556 m 417 556 b 347 625 378 556 347 586 b 417 694 347 664 378 694 b 486 625 456 694 486 664 b 417 556 486 586 456 556 m 417 417 b 347 486 378 417 347 447 b 417 556 347 525 378 556 b 486 486 456 556 486 525 b 417 417 486 447 456 417 m 278 278 b 208 347 239 278 208 308 b 278 417 208 386 239 417 b 347 347 317 417 347 386 b 278 278 347 308 317 278 m 417 278 b 347 347 378 278 347 308 b 417 417 347 386 378 417 b 486 347 456 417 486 386 b 417 278 486 308 456 278 m 139 139 b 69 208 100 139 69 169 b 139 278 69 247 100 278 b 208 208 178 278 208 247 b 139 139 208 169 178 139 m 417 139 b 347 208 378 139 347 169 b 417 278 347 247 378 278 b 486 208 456 278 486 247 b 417 139 486 169 456 139 m 278 0 b 208 69 239 0 208 31 b 278 139 208 108 239 139 b 347 69 317 139 347 108 b 278 0 347 31 317 0 m 417 0 b 347 69 378 0 347 31 b 417 139 347 108 378 139 b 486 69 456 139 486 108 b 417 0 486 31 456 0 "},"ď":{"ha":972,"x_min":0,"x_max":0,"o":"m 417 556 b 347 625 378 556 347 586 b 417 694 347 664 378 694 b 486 625 456 694 486 664 b 417 556 486 586 456 556 m 694 556 b 625 625 656 556 625 586 b 694 694 625 664 656 694 b 764 625 733 694 764 664 b 694 556 764 586 733 556 m 833 556 b 764 625 794 556 764 586 b 833 694 764 664 794 694 b 903 625 872 694 903 664 b 833 556 903 586 872 556 m 278 417 b 208 486 239 417 208 447 b 278 556 208 525 239 556 b 347 486 317 556 347 525 b 278 417 347 447 317 417 m 417 417 b 347 486 378 417 347 447 b 417 556 347 525 378 556 b 486 486 456 556 486 525 b 417 417 486 447 456 417 m 833 417 b 764 486 794 417 764 447 b 833 556 764 525 794 556 b 903 486 872 556 903 525 b 833 417 903 447 872 417 m 139 278 b 69 347 100 278 69 308 b 139 417 69 386 100 417 b 208 347 178 417 208 386 b 139 278 208 308 178 278 m 417 278 b 347 347 378 278 347 308 b 417 417 347 386 378 417 b 486 347 456 417 486 386 b 417 278 486 308 456 278 m 694 278 b 625 347 656 278 625 308 b 694 417 625 386 656 417 b 764 347 733 417 764 386 b 694 278 764 308 733 278 m 139 139 b 69 208 100 139 69 169 b 139 278 69 247 100 278 b 208 208 178 278 208 247 b 139 139 208 169 178 139 m 417 139 b 347 208 378 139 347 169 b 417 278 347 247 378 278 b 486 208 456 278 486 247 b 417 139 486 169 456 139 m 278 0 b 208 69 239 0 208 31 b 278 139 208 108 239 139 b 347 69 317 139 347 108 b 278 0 347 31 317 0 m 417 0 b 347 69 378 0 347 31 b 417 139 347 108 378 139 b 486 69 456 139 486 108 b 417 0 486 31 456 0 "},"đ":{"ha":694,"x_min":0,"x_max":0,"o":"m 278 556 b 208 625 239 556 208 586 b 278 694 208 664 239 694 b 347 625 317 694 347 664 b 278 556 347 586 317 556 m 417 556 b 347 625 378 556 347 586 b 417 694 347 664 378 694 b 486 625 456 694 486 664 b 417 556 486 586 456 556 m 417 417 b 347 486 378 417 347 447 b 417 556 347 525 378 556 b 486 486 456 556 486 525 b 417 417 486 447 456 417 m 556 417 b 486 486 517 417 486 447 b 556 556 486 525 517 556 b 625 486 594 556 625 525 b 556 417 625 447 594 417 m 278 278 b 208 347 239 278 208 308 b 278 417 208 386 239 417 b 347 347 317 417 347 386 b 278 278 347 308 317 278 m 417 278 b 347 347 378 278 347 308 b 417 417 347 386 378 417 b 486 347 456 417 486 386 b 417 278 486 308 456 278 m 139 139 b 69 208 100 139 69 169 b 139 278 69 247 100 278 b 208 208 178 278 208 247 b 139 139 208 169 178 139 m 417 139 b 347 208 378 139 347 169 b 417 278 347 247 378 278 b 486 208 456 278 486 247 b 417 139 486 169 456 139 m 278 0 b 208 69 239 0 208 31 b 278 139 208 108 239 139 b 347 69 317 139 347 108 b 278 0 347 31 317 0 m 417 0 b 347 69 378 0 347 31 b 417 139 347 108 378 139 b 486 69 456 139 486 108 b 417 0 486 31 456 0 "},"e":{"ha":556,"x_min":0,"x_max":0,"o":"m 278 417 b 208 486 239 417 208 447 b 278 556 208 525 239 556 b 347 486 317 556 347 525 b 278 417 347 447 317 417 m 139 278 b 69 347 100 278 69 308 b 139 417 69 386 100 417 b 208 347 178 417 208 386 b 139 278 208 308 178 278 m 278 278 b 208 347 239 278 208 308 b 278 417 208 386 239 417 b 347 347 317 417 347 386 b 278 278 347 308 317 278 m 417 278 b 347 347 378 278 347 308 b 417 417 347 386 378 417 b 486 347 456 417 486 386 b 417 278 486 308 456 278 m 139 139 b 69 208 100 139 69 169 b 139 278 69 247 100 278 b 208 208 178 278 208 247 b 139 139 208 169 178 139 m 278 0 b 208 69 239 0 208 31 b 278 139 208 108 239 139 b 347 69 317 139 347 108 b 278 0 347 31 317 0 m 417 0 b 347 69 378 0 347 31 b 417 139 347 108 378 139 b 486 69 456 139 486 108 b 417 0 486 31 456 0 "},"é":{"ha":556,"x_min":0,"x_max":0,"o":"m 417 833 b 347 903 378 833 347 864 b 417 972 347 942 378 972 b 486 903 456 972 486 942 b 417 833 486 864 456 833 m 278 694 b 208 764 239 694 208 725 b 278 833 208 803 239 833 b 347 764 317 833 347 803 b 278 694 347 725 317 694 m 278 417 b 208 486 239 417 208 447 b 278 556 208 525 239 556 b 347 486 317 556 347 525 b 278 417 347 447 317 417 m 139 278 b 69 347 100 278 69 308 b 139 417 69 386 100 417 b 208 347 178 417 208 386 b 139 278 208 308 178 278 m 278 278 b 208 347 239 278 208 308 b 278 417 208 386 239 417 b 347 347 317 417 347 386 b 278 278 347 308 317 278 m 417 278 b 347 347 378 278 347 308 b 417 417 347 386 378 417 b 486 347 456 417 486 386 b 417 278 486 308 456 278 m 139 139 b 69 208 100 139 69 169 b 139 278 69 247 100 278 b 208 208 178 278 208 247 b 139 139 208 169 178 139 m 278 0 b 208 69 239 0 208 31 b 278 139 208 108 239 139 b 347 69 317 139 347 108 b 278 0 347 31 317 0 m 417 0 b 347 69 378 0 347 31 b 417 139 347 108 378 139 b 486 69 456 139 486 108 b 417 0 486 31 456 0 "},"ě":{"ha":556,"x_min":0,"x_max":0,"o":"m 139 833 b 69 903 100 833 69 864 b 139 972 69 942 100 972 b 208 903 178 972 208 942 b 139 833 208 864 178 833 m 417 833 b 347 903 378 833 347 864 b 417 972 347 942 378 972 b 486 903 456 972 486 942 b 417 833 486 864 456 833 m 278 694 b 208 764 239 694 208 725 b 278 833 208 803 239 833 b 347 764 317 833 347 803 b 278 694 347 725 317 694 m 278 417 b 208 486 239 417 208 447 b 278 556 208 525 239 556 b 347 486 317 556 347 525 b 278 417 347 447 317 417 m 139 278 b 69 347 100 278 69 308 b 139 417 69 386 100 417 b 208 347 178 417 208 386 b 139 278 208 308 178 278 m 278 278 b 208 347 239 278 208 308 b 278 417 208 386 239 417 b 347 347 317 417 347 386 b 278 278 347 308 317 278 m 417 278 b 347 347 378 278 347 308 b 417 417 347 386 378 417 b 486 347 456 417 486 386 b 417 278 486 308 456 278 m 139 139 b 69 208 100 139 69 169 b 139 278 69 247 100 278 b 208 208 178 278 208 247 b 139 139 208 169 178 139 m 278 0 b 208 69 239 0 208 31 b 278 139 208 108 239 139 b 347 69 317 139 347 108 b 278 0 347 31 317 0 m 417 0 b 347 69 378 0 347 31 b 417 139 347 108 378 139 b 486 69 456 139 486 108 b 417 0 486 31 456 0 "},"ê":{"ha":556,"x_min":0,"x_max":0,"o":"m 278 833 b 208 903 239 833 208 864 b 278 972 208 942 239 972 b 347 903 317 972 347 942 b 278 833 347 864 317 833 m 139 694 b 69 764 100 694 69 725 b 139 833 69 803 100 833 b 208 764 178 833 208 803 b 139 694 208 725 178 694 m 417 694 b 347 764 378 694 347 725 b 417 833 347 803 378 833 b 486 764 456 833 486 803 b 417 694 486 725 456 694 m 278 417 b 208 486 239 417 208 447 b 278 556 208 525 239 556 b 347 486 317 556 347 525 b 278 417 347 447 317 417 m 139 278 b 69 347 100 278 69 308 b 139 417 69 386 100 417 b 208 347 178 417 208 386 b 139 278 208 308 178 278 m 278 278 b 208 347 239 278 208 308 b 278 417 208 386 239 417 b 347 347 317 417 347 386 b 278 278 347 308 317 278 m 417 278 b 347 347 378 278 347 308 b 417 417 347 386 378 417 b 486 347 456 417 486 386 b 417 278 486 308 456 278 m 139 139 b 69 208 100 139 69 169 b 139 278 69 247 100 278 b 208 208 178 278 208 247 b 139 139 208 169 178 139 m 278 0 b 208 69 239 0 208 31 b 278 139 208 108 239 139 b 347 69 317 139 347 108 b 278 0 347 31 317 0 m 417 0 b 347 69 378 0 347 31 b 417 139 347 108 378 139 b 486 69 456 139 486 108 b 417 0 486 31 456 0 "},"ë":{"ha":556,"x_min":0,"x_max":0,"o":"m 139 694 b 69 764 100 694 69 725 b 139 833 69 803 100 833 b 208 764 178 833 208 803 b 139 694 208 725 178 694 m 417 694 b 347 764 378 694 347 725 b 417 833 347 803 378 833 b 486 764 456 833 486 803 b 417 694 486 725 456 694 m 278 417 b 208 486 239 417 208 447 b 278 556 208 525 239 556 b 347 486 317 556 347 525 b 278 417 347 447 317 417 m 139 278 b 69 347 100 278 69 308 b 139 417 69 386 100 417 b 208 347 178 417 208 386 b 139 278 208 308 178 278 m 278 278 b 208 347 239 278 208 308 b 278 417 208 386 239 417 b 347 347 317 417 347 386 b 278 278 347 308 317 278 m 417 278 b 347 347 378 278 347 308 b 417 417 347 386 378 417 b 486 347 456 417 486 386 b 417 278 486 308 456 278 m 139 139 b 69 208 100 139 69 169 b 139 278 69 247 100 278 b 208 208 178 278 208 247 b 139 139 208 169 178 139 m 278 0 b 208 69 239 0 208 31 b 278 139 208 108 239 139 b 347 69 317 139 347 108 b 278 0 347 31 317 0 m 417 0 b 347 69 378 0 347 31 b 417 139 347 108 378 139 b 486 69 456 139 486 108 b 417 0 486 31 456 0 "},"ė":{"ha":556,"x_min":0,"x_max":0,"o":"m 278 694 b 208 764 239 694 208 725 b 278 833 208 803 239 833 b 347 764 317 833 347 803 b 278 694 347 725 317 694 m 278 417 b 208 486 239 417 208 447 b 278 556 208 525 239 556 b 347 486 317 556 347 525 b 278 417 347 447 317 417 m 139 278 b 69 347 100 278 69 308 b 139 417 69 386 100 417 b 208 347 178 417 208 386 b 139 278 208 308 178 278 m 278 278 b 208 347 239 278 208 308 b 278 417 208 386 239 417 b 347 347 317 417 347 386 b 278 278 347 308 317 278 m 417 278 b 347 347 378 278 347 308 b 417 417 347 386 378 417 b 486 347 456 417 486 386 b 417 278 486 308 456 278 m 139 139 b 69 208 100 139 69 169 b 139 278 69 247 100 278 b 208 208 178 278 208 247 b 139 139 208 169 178 139 m 278 0 b 208 69 239 0 208 31 b 278 139 208 108 239 139 b 347 69 317 139 347 108 b 278 0 347 31 317 0 m 417 0 b 347 69 378 0 347 31 b 417 139 347 108 378 139 b 486 69 456 139 486 108 b 417 0 486 31 456 0 "},"è":{"ha":556,"x_min":0,"x_max":0,"o":"m 139 833 b 69 903 100 833 69 864 b 139 972 69 942 100 972 b 208 903 178 972 208 942 b 139 833 208 864 178 833 m 278 694 b 208 764 239 694 208 725 b 278 833 208 803 239 833 b 347 764 317 833 347 803 b 278 694 347 725 317 694 m 278 417 b 208 486 239 417 208 447 b 278 556 208 525 239 556 b 347 486 317 556 347 525 b 278 417 347 447 317 417 m 139 278 b 69 347 100 278 69 308 b 139 417 69 386 100 417 b 208 347 178 417 208 386 b 139 278 208 308 178 278 m 278 278 b 208 347 239 278 208 308 b 278 417 208 386 239 417 b 347 347 317 417 347 386 b 278 278 347 308 317 278 m 417 278 b 347 347 378 278 347 308 b 417 417 347 386 378 417 b 486 347 456 417 486 386 b 417 278 486 308 456 278 m 139 139 b 69 208 100 139 69 169 b 139 278 69 247 100 278 b 208 208 178 278 208 247 b 139 139 208 169 178 139 m 278 0 b 208 69 239 0 208 31 b 278 139 208 108 239 139 b 347 69 317 139 347 108 b 278 0 347 31 317 0 m 417 0 b 347 69 378 0 347 31 b 417 139 347 108 378 139 b 486 69 456 139 486 108 b 417 0 486 31 456 0 "},"ē":{"ha":556,"x_min":0,"x_max":0,"o":"m 139 694 b 69 764 100 694 69 725 b 139 833 69 803 100 833 b 208 764 178 833 208 803 b 139 694 208 725 178 694 m 278 694 b 208 764 239 694 208 725 b 278 833 208 803 239 833 b 347 764 317 833 347 803 b 278 694 347 725 317 694 m 417 694 b 347 764 378 694 347 725 b 417 833 347 803 378 833 b 486 764 456 833 486 803 b 417 694 486 725 456 694 m 278 417 b 208 486 239 417 208 447 b 278 556 208 525 239 556 b 347 486 317 556 347 525 b 278 417 347 447 317 417 m 139 278 b 69 347 100 278 69 308 b 139 417 69 386 100 417 b 208 347 178 417 208 386 b 139 278 208 308 178 278 m 278 278 b 208 347 239 278 208 308 b 278 417 208 386 239 417 b 347 347 317 417 347 386 b 278 278 347 308 317 278 m 417 278 b 347 347 378 278 347 308 b 417 417 347 386 378 417 b 486 347 456 417 486 386 b 417 278 486 308 456 278 m 139 139 b 69 208 100 139 69 169 b 139 278 69 247 100 278 b 208 208 178 278 208 247 b 139 139 208 169 178 139 m 278 0 b 208 69 239 0 208 31 b 278 139 208 108 239 139 b 347 69 317 139 347 108 b 278 0 347 31 317 0 m 417 0 b 347 69 378 0 347 31 b 417 139 347 108 378 139 b 486 69 456 139 486 108 b 417 0 486 31 456 0 "},"ę":{"ha":556,"x_min":0,"x_max":0,"o":"m 278 417 b 208 486 239 417 208 447 b 278 556 208 525 239 556 b 347 486 317 556 347 525 b 278 417 347 447 317 417 m 139 278 b 69 347 100 278 69 308 b 139 417 69 386 100 417 b 208 347 178 417 208 386 b 139 278 208 308 178 278 m 278 278 b 208 347 239 278 208 308 b 278 417 208 386 239 417 b 347 347 317 417 347 386 b 278 278 347 308 317 278 m 417 278 b 347 347 378 278 347 308 b 417 417 347 386 378 417 b 486 347 456 417 486 386 b 417 278 486 308 456 278 m 139 139 b 69 208 100 139 69 169 b 139 278 69 247 100 278 b 208 208 178 278 208 247 b 139 139 208 169 178 139 m 278 0 b 208 69 239 0 208 31 b 278 139 208 108 239 139 b 347 69 317 139 347 108 b 278 0 347 31 317 0 m 417 0 b 347 69 378 0 347 31 b 417 139 347 108 378 139 b 486 69 456 139 486 108 b 417 0 486 31 456 0 m 278 -139 b 208 -69 239 -139 208 -108 b 278 0 208 -31 239 0 b 347 -69 317 0 347 -31 b 278 -139 347 -108 317 -139 m 278 -278 b 208 -208 239 -278 208 -247 b 278 -139 208 -169 239 -139 b 347 -208 317 -139 347 -169 b 278 -278 347 -247 317 -278 m 417 -278 b 347 -208 378 -278 347 -247 b 417 -139 347 -169 378 -139 b 486 -208 456 -139 486 -169 b 417 -278 486 -247 456 -278 "},"f":{"ha":417,"x_min":0,"x_max":0,"o":"m 278 556 b 208 625 239 556 208 586 b 278 694 208 664 239 694 b 347 625 317 694 347 664 b 278 556 347 586 317 556 m 139 417 b 69 486 100 417 69 447 b 139 556 69 525 100 556 b 208 486 178 556 208 525 b 139 417 208 447 178 417 m 139 278 b 69 347 100 278 69 308 b 139 417 69 386 100 417 b 208 347 178 417 208 386 b 139 278 208 308 178 278 m 278 278 b 208 347 239 278 208 308 b 278 417 208 386 239 417 b 347 347 317 417 347 386 b 278 278 347 308 317 278 m 139 139 b 69 208 100 139 69 169 b 139 278 69 247 100 278 b 208 208 178 278 208 247 b 139 139 208 169 178 139 m 139 0 b 69 69 100 0 69 31 b 139 139 69 108 100 139 b 208 69 178 139 208 108 b 139 0 208 31 178 0 "},"g":{"ha":556,"x_min":0,"x_max":0,"o":"m 139 417 b 69 486 100 417 69 447 b 139 556 69 525 100 556 b 208 486 178 556 208 525 b 139 417 208 447 178 417 m 278 417 b 208 486 239 417 208 447 b 278 556 208 525 239 556 b 347 486 317 556 347 525 b 278 417 347 447 317 417 m 139 278 b 69 347 100 278 69 308 b 139 417 69 386 100 417 b 208 347 178 417 208 386 b 139 278 208 308 178 278 m 278 278 b 208 347 239 278 208 308 b 278 417 208 386 239 417 b 347 347 317 417 347 386 b 278 278 347 308 317 278 m 417 278 b 347 347 378 278 347 308 b 417 417 347 386 378 417 b 486 347 456 417 486 386 b 417 278 486 308 456 278 m 417 139 b 347 208 378 139 347 169 b 417 278 347 247 378 278 b 486 208 456 278 486 247 b 417 139 486 169 456 139 m 139 0 b 69 69 100 0 69 31 b 139 139 69 108 100 139 b 208 69 178 139 208 108 b 139 0 208 31 178 0 m 278 0 b 208 69 239 0 208 31 b 278 139 208 108 239 139 b 347 69 317 139 347 108 b 278 0 347 31 317 0 "},"ğ":{"ha":556,"x_min":0,"x_max":0,"o":"m 139 833 b 69 903 100 833 69 864 b 139 972 69 942 100 972 b 208 903 178 972 208 942 b 139 833 208 864 178 833 m 417 833 b 347 903 378 833 347 864 b 417 972 347 942 378 972 b 486 903 456 972 486 942 b 417 833 486 864 456 833 m 139 694 b 69 764 100 694 69 725 b 139 833 69 803 100 833 b 208 764 178 833 208 803 b 139 694 208 725 178 694 m 278 694 b 208 764 239 694 208 725 b 278 833 208 803 239 833 b 347 764 317 833 347 803 b 278 694 347 725 317 694 m 417 694 b 347 764 378 694 347 725 b 417 833 347 803 378 833 b 486 764 456 833 486 803 b 417 694 486 725 456 694 m 139 417 b 69 486 100 417 69 447 b 139 556 69 525 100 556 b 208 486 178 556 208 525 b 139 417 208 447 178 417 m 278 417 b 208 486 239 417 208 447 b 278 556 208 525 239 556 b 347 486 317 556 347 525 b 278 417 347 447 317 417 m 139 278 b 69 347 100 278 69 308 b 139 417 69 386 100 417 b 208 347 178 417 208 386 b 139 278 208 308 178 278 m 278 278 b 208 347 239 278 208 308 b 278 417 208 386 239 417 b 347 347 317 417 347 386 b 278 278 347 308 317 278 m 417 278 b 347 347 378 278 347 308 b 417 417 347 386 378 417 b 486 347 456 417 486 386 b 417 278 486 308 456 278 m 417 139 b 347 208 378 139 347 169 b 417 278 347 247 378 278 b 486 208 456 278 486 247 b 417 139 486 169 456 139 m 139 0 b 69 69 100 0 69 31 b 139 139 69 108 100 139 b 208 69 178 139 208 108 b 139 0 208 31 178 0 m 278 0 b 208 69 239 0 208 31 b 278 139 208 108 239 139 b 347 69 317 139 347 108 b 278 0 347 31 317 0 "},"ģ":{"ha":556,"x_min":0,"x_max":0,"o":"m 417 972 b 347 1042 378 972 347 1003 b 417 1111 347 1081 378 1111 b 486 1042 456 1111 486 1081 b 417 972 486 1003 456 972 m 278 833 b 208 903 239 833 208 864 b 278 972 208 942 239 972 b 347 903 317 972 347 942 b 278 833 347 864 317 833 m 278 694 b 208 764 239 694 208 725 b 278 833 208 803 239 833 b 347 764 317 833 347 803 b 278 694 347 725 317 694 m 417 694 b 347 764 378 694 347 725 b 417 833 347 803 378 833 b 486 764 456 833 486 803 b 417 694 486 725 456 694 m 139 417 b 69 486 100 417 69 447 b 139 556 69 525 100 556 b 208 486 178 556 208 525 b 139 417 208 447 178 417 m 278 417 b 208 486 239 417 208 447 b 278 556 208 525 239 556 b 347 486 317 556 347 525 b 278 417 347 447 317 417 m 139 278 b 69 347 100 278 69 308 b 139 417 69 386 100 417 b 208 347 178 417 208 386 b 139 278 208 308 178 278 m 278 278 b 208 347 239 278 208 308 b 278 417 208 386 239 417 b 347 347 317 417 347 386 b 278 278 347 308 317 278 m 417 278 b 347 347 378 278 347 308 b 417 417 347 386 378 417 b 486 347 456 417 486 386 b 417 278 486 308 456 278 m 417 139 b 347 208 378 139 347 169 b 417 278 347 247 378 278 b 486 208 456 278 486 247 b 417 139 486 169 456 139 m 139 0 b 69 69 100 0 69 31 b 139 139 69 108 100 139 b 208 69 178 139 208 108 b 139 0 208 31 178 0 m 278 0 b 208 69 239 0 208 31 b 278 139 208 108 239 139 b 347 69 317 139 347 108 b 278 0 347 31 317 0 "},"ġ":{"ha":556,"x_min":0,"x_max":0,"o":"m 278 694 b 208 764 239 694 208 725 b 278 833 208 803 239 833 b 347 764 317 833 347 803 b 278 694 347 725 317 694 m 139 417 b 69 486 100 417 69 447 b 139 556 69 525 100 556 b 208 486 178 556 208 525 b 139 417 208 447 178 417 m 278 417 b 208 486 239 417 208 447 b 278 556 208 525 239 556 b 347 486 317 556 347 525 b 278 417 347 447 317 417 m 139 278 b 69 347 100 278 69 308 b 139 417 69 386 100 417 b 208 347 178 417 208 386 b 139 278 208 308 178 278 m 278 278 b 208 347 239 278 208 308 b 278 417 208 386 239 417 b 347 347 317 417 347 386 b 278 278 347 308 317 278 m 417 278 b 347 347 378 278 347 308 b 417 417 347 386 378 417 b 486 347 456 417 486 386 b 417 278 486 308 456 278 m 417 139 b 347 208 378 139 347 169 b 417 278 347 247 378 278 b 486 208 456 278 486 247 b 417 139 486 169 456 139 m 139 0 b 69 69 100 0 69 31 b 139 139 69 108 100 139 b 208 69 178 139 208 108 b 139 0 208 31 178 0 m 278 0 b 208 69 239 0 208 31 b 278 139 208 108 239 139 b 347 69 317 139 347 108 b 278 0 347 31 317 0 "},"h":{"ha":556,"x_min":0,"x_max":0,"o":"m 139 556 b 69 625 100 556 69 586 b 139 694 69 664 100 694 b 208 625 178 694 208 664 b 139 556 208 586 178 556 m 139 417 b 69 486 100 417 69 447 b 139 556 69 525 100 556 b 208 486 178 556 208 525 b 139 417 208 447 178 417 m 278 417 b 208 486 239 417 208 447 b 278 556 208 525 239 556 b 347 486 317 556 347 525 b 278 417 347 447 317 417 m 139 278 b 69 347 100 278 69 308 b 139 417 69 386 100 417 b 208 347 178 417 208 386 b 139 278 208 308 178 278 m 417 278 b 347 347 378 278 347 308 b 417 417 347 386 378 417 b 486 347 456 417 486 386 b 417 278 486 308 456 278 m 139 139 b 69 208 100 139 69 169 b 139 278 69 247 100 278 b 208 208 178 278 208 247 b 139 139 208 169 178 139 m 417 139 b 347 208 378 139 347 169 b 417 278 347 247 378 278 b 486 208 456 278 486 247 b 417 139 486 169 456 139 m 139 0 b 69 69 100 0 69 31 b 139 139 69 108 100 139 b 208 69 178 139 208 108 b 139 0 208 31 178 0 m 417 0 b 347 69 378 0 347 31 b 417 139 347 108 378 139 b 486 69 456 139 486 108 b 417 0 486 31 456 0 "},"ħ":{"ha":694,"x_min":0,"x_max":0,"o":"m 278 556 b 208 625 239 556 208 586 b 278 694 208 664 239 694 b 347 625 317 694 347 664 b 278 556 347 586 317 556 m 417 556 b 347 625 378 556 347 586 b 417 694 347 664 378 694 b 486 625 456 694 486 664 b 417 556 486 586 456 556 m 139 417 b 69 486 100 417 69 447 b 139 556 69 525 100 556 b 208 486 178 556 208 525 b 139 417 208 447 178 417 m 278 417 b 208 486 239 417 208 447 b 278 556 208 525 239 556 b 347 486 317 556 347 525 b 278 417 347 447 317 417 m 278 278 b 208 347 239 278 208 308 b 278 417 208 386 239 417 b 347 347 317 417 347 386 b 278 278 347 308 317 278 m 417 278 b 347 347 378 278 347 308 b 417 417 347 386 378 417 b 486 347 456 417 486 386 b 417 278 486 308 456 278 m 278 139 b 208 208 239 139 208 169 b 278 278 208 247 239 278 b 347 208 317 278 347 247 b 278 139 347 169 317 139 m 556 139 b 486 208 517 139 486 169 b 556 278 486 247 517 278 b 625 208 594 278 625 247 b 556 139 625 169 594 139 m 278 0 b 208 69 239 0 208 31 b 278 139 208 108 239 139 b 347 69 317 139 347 108 b 278 0 347 31 317 0 m 556 0 b 486 69 517 0 486 31 b 556 139 486 108 517 139 b 625 69 594 139 625 108 b 556 0 625 31 594 0 "},"i":{"ha":278,"x_min":0,"x_max":0,"o":"m 139 556 b 69 625 100 556 69 586 b 139 694 69 664 100 694 b 208 625 178 694 208 664 b 139 556 208 586 178 556 m 139 278 b 69 347 100 278 69 308 b 139 417 69 386 100 417 b 208 347 178 417 208 386 b 139 278 208 308 178 278 m 139 139 b 69 208 100 139 69 169 b 139 278 69 247 100 278 b 208 208 178 278 208 247 b 139 139 208 169 178 139 m 139 0 b 69 69 100 0 69 31 b 139 139 69 108 100 139 b 208 69 178 139 208 108 b 139 0 208 31 178 0 "},"ı":{"ha":278,"x_min":0,"x_max":0,"o":"m 139 417 b 69 486 100 417 69 447 b 139 556 69 525 100 556 b 208 486 178 556 208 525 b 139 417 208 447 178 417 m 139 278 b 69 347 100 278 69 308 b 139 417 69 386 100 417 b 208 347 178 417 208 386 b 139 278 208 308 178 278 m 139 139 b 69 208 100 139 69 169 b 139 278 69 247 100 278 b 208 208 178 278 208 247 b 139 139 208 169 178 139 m 139 0 b 69 69 100 0 69 31 b 139 139 69 108 100 139 b 208 69 178 139 208 108 b 139 0 208 31 178 0 "},"í":{"ha":278,"x_min":0,"x_max":0,"o":"m 278 833 b 208 903 239 833 208 864 b 278 972 208 942 239 972 b 347 903 317 972 347 942 b 278 833 347 864 317 833 m 139 694 b 69 764 100 694 69 725 b 139 833 69 803 100 833 b 208 764 178 833 208 803 b 139 694 208 725 178 694 m 139 417 b 69 486 100 417 69 447 b 139 556 69 525 100 556 b 208 486 178 556 208 525 b 139 417 208 447 178 417 m 139 278 b 69 347 100 278 69 308 b 139 417 69 386 100 417 b 208 347 178 417 208 386 b 139 278 208 308 178 278 m 139 139 b 69 208 100 139 69 169 b 139 278 69 247 100 278 b 208 208 178 278 208 247 b 139 139 208 169 178 139 m 139 0 b 69 69 100 0 69 31 b 139 139 69 108 100 139 b 208 69 178 139 208 108 b 139 0 208 31 178 0 "},"î":{"ha":278,"x_min":0,"x_max":0,"o":"m 139 833 b 69 903 100 833 69 864 b 139 972 69 942 100 972 b 208 903 178 972 208 942 b 139 833 208 864 178 833 m 0 694 b -69 764 -39 694 -69 725 b 0 833 -69 803 -39 833 b 69 764 39 833 69 803 b 0 694 69 725 39 694 m 278 694 b 208 764 239 694 208 725 b 278 833 208 803 239 833 b 347 764 317 833 347 803 b 278 694 347 725 317 694 m 139 417 b 69 486 100 417 69 447 b 139 556 69 525 100 556 b 208 486 178 556 208 525 b 139 417 208 447 178 417 m 139 278 b 69 347 100 278 69 308 b 139 417 69 386 100 417 b 208 347 178 417 208 386 b 139 278 208 308 178 278 m 139 139 b 69 208 100 139 69 169 b 139 278 69 247 100 278 b 208 208 178 278 208 247 b 139 139 208 169 178 139 m 139 0 b 69 69 100 0 69 31 b 139 139 69 108 100 139 b 208 69 178 139 208 108 b 139 0 208 31 178 0 "},"ï":{"ha":278,"x_min":0,"x_max":0,"o":"m 0 694 b -69 764 -39 694 -69 725 b 0 833 -69 803 -39 833 b 69 764 39 833 69 803 b 0 694 69 725 39 694 m 278 694 b 208 764 239 694 208 725 b 278 833 208 803 239 833 b 347 764 317 833 347 803 b 278 694 347 725 317 694 m 139 417 b 69 486 100 417 69 447 b 139 556 69 525 100 556 b 208 486 178 556 208 525 b 139 417 208 447 178 417 m 139 278 b 69 347 100 278 69 308 b 139 417 69 386 100 417 b 208 347 178 417 208 386 b 139 278 208 308 178 278 m 139 139 b 69 208 100 139 69 169 b 139 278 69 247 100 278 b 208 208 178 278 208 247 b 139 139 208 169 178 139 m 139 0 b 69 69 100 0 69 31 b 139 139 69 108 100 139 b 208 69 178 139 208 108 b 139 0 208 31 178 0 "},"ì":{"ha":278,"x_min":0,"x_max":0,"o":"m 0 833 b -69 903 -39 833 -69 864 b 0 972 -69 942 -39 972 b 69 903 39 972 69 942 b 0 833 69 864 39 833 m 139 694 b 69 764 100 694 69 725 b 139 833 69 803 100 833 b 208 764 178 833 208 803 b 139 694 208 725 178 694 m 139 417 b 69 486 100 417 69 447 b 139 556 69 525 100 556 b 208 486 178 556 208 525 b 139 417 208 447 178 417 m 139 278 b 69 347 100 278 69 308 b 139 417 69 386 100 417 b 208 347 178 417 208 386 b 139 278 208 308 178 278 m 139 139 b 69 208 100 139 69 169 b 139 278 69 247 100 278 b 208 208 178 278 208 247 b 139 139 208 169 178 139 m 139 0 b 69 69 100 0 69 31 b 139 139 69 108 100 139 b 208 69 178 139 208 108 b 139 0 208 31 178 0 "},"ī":{"ha":278,"x_min":0,"x_max":0,"o":"m 0 694 b -69 764 -39 694 -69 725 b 0 833 -69 803 -39 833 b 69 764 39 833 69 803 b 0 694 69 725 39 694 m 139 694 b 69 764 100 694 69 725 b 139 833 69 803 100 833 b 208 764 178 833 208 803 b 139 694 208 725 178 694 m 278 694 b 208 764 239 694 208 725 b 278 833 208 803 239 833 b 347 764 317 833 347 803 b 278 694 347 725 317 694 m 139 417 b 69 486 100 417 69 447 b 139 556 69 525 100 556 b 208 486 178 556 208 525 b 139 417 208 447 178 417 m 139 278 b 69 347 100 278 69 308 b 139 417 69 386 100 417 b 208 347 178 417 208 386 b 139 278 208 308 178 278 m 139 139 b 69 208 100 139 69 169 b 139 278 69 247 100 278 b 208 208 178 278 208 247 b 139 139 208 169 178 139 m 139 0 b 69 69 100 0 69 31 b 139 139 69 108 100 139 b 208 69 178 139 208 108 b 139 0 208 31 178 0 "},"į":{"ha":278,"x_min":0,"x_max":0,"o":"m 139 694 b 69 764 100 694 69 725 b 139 833 69 803 100 833 b 208 764 178 833 208 803 b 139 694 208 725 178 694 m 139 417 b 69 486 100 417 69 447 b 139 556 69 525 100 556 b 208 486 178 556 208 525 b 139 417 208 447 178 417 m 139 278 b 69 347 100 278 69 308 b 139 417 69 386 100 417 b 208 347 178 417 208 386 b 139 278 208 308 178 278 m 139 139 b 69 208 100 139 69 169 b 139 278 69 247 100 278 b 208 208 178 278 208 247 b 139 139 208 169 178 139 m 139 0 b 69 69 100 0 69 31 b 139 139 69 108 100 139 b 208 69 178 139 208 108 b 139 0 208 31 178 0 m 0 -139 b -69 -69 -39 -139 -69 -108 b 0 0 -69 -31 -39 0 b 69 -69 39 0 69 -31 b 0 -139 69 -108 39 -139 m 0 -278 b -69 -208 -39 -278 -69 -247 b 0 -139 -69 -169 -39 -139 b 69 -208 39 -139 69 -169 b 0 -278 69 -247 39 -278 m 139 -278 b 69 -208 100 -278 69 -247 b 139 -139 69 -169 100 -139 b 208 -208 178 -139 208 -169 b 139 -278 208 -247 178 -278 "},"j":{"ha":556,"x_min":0,"x_max":0,"o":"m 278 417 b 208 486 239 417 208 447 b 278 556 208 525 239 556 b 347 486 317 556 347 525 b 278 417 347 447 317 417 m 417 417 b 347 486 378 417 347 447 b 417 556 347 525 378 556 b 486 486 456 556 486 525 b 417 417 486 447 456 417 m 417 278 b 347 347 378 278 347 308 b 417 417 347 386 378 417 b 486 347 456 417 486 386 b 417 278 486 308 456 278 m 139 139 b 69 208 100 139 69 169 b 139 278 69 247 100 278 b 208 208 178 278 208 247 b 139 139 208 169 178 139 m 417 139 b 347 208 378 139 347 169 b 417 278 347 247 378 278 b 486 208 456 278 486 247 b 417 139 486 169 456 139 m 278 0 b 208 69 239 0 208 31 b 278 139 208 108 239 139 b 347 69 317 139 347 108 b 278 0 347 31 317 0 "},"k":{"ha":556,"x_min":0,"x_max":0,"o":"m 139 556 b 69 625 100 556 69 586 b 139 694 69 664 100 694 b 208 625 178 694 208 664 b 139 556 208 586 178 556 m 139 417 b 69 486 100 417 69 447 b 139 556 69 525 100 556 b 208 486 178 556 208 525 b 139 417 208 447 178 417 m 417 417 b 347 486 378 417 347 447 b 417 556 347 525 378 556 b 486 486 456 556 486 525 b 417 417 486 447 456 417 m 139 278 b 69 347 100 278 69 308 b 139 417 69 386 100 417 b 208 347 178 417 208 386 b 139 278 208 308 178 278 m 278 278 b 208 347 239 278 208 308 b 278 417 208 386 239 417 b 347 347 317 417 347 386 b 278 278 347 308 317 278 m 139 139 b 69 208 100 139 69 169 b 139 278 69 247 100 278 b 208 208 178 278 208 247 b 139 139 208 169 178 139 m 278 139 b 208 208 239 139 208 169 b 278 278 208 247 239 278 b 347 208 317 278 347 247 b 278 139 347 169 317 139 m 139 0 b 69 69 100 0 69 31 b 139 139 69 108 100 139 b 208 69 178 139 208 108 b 139 0 208 31 178 0 m 417 0 b 347 69 378 0 347 31 b 417 139 347 108 378 139 b 486 69 456 139 486 108 b 417 0 486 31 456 0 "},"ķ":{"ha":556,"x_min":0,"x_max":0,"o":"m 139 556 b 69 625 100 556 69 586 b 139 694 69 664 100 694 b 208 625 178 694 208 664 b 139 556 208 586 178 556 m 139 417 b 69 486 100 417 69 447 b 139 556 69 525 100 556 b 208 486 178 556 208 525 b 139 417 208 447 178 417 m 417 417 b 347 486 378 417 347 447 b 417 556 347 525 378 556 b 486 486 456 556 486 525 b 417 417 486 447 456 417 m 139 278 b 69 347 100 278 69 308 b 139 417 69 386 100 417 b 208 347 178 417 208 386 b 139 278 208 308 178 278 m 278 278 b 208 347 239 278 208 308 b 278 417 208 386 239 417 b 347 347 317 417 347 386 b 278 278 347 308 317 278 m 139 139 b 69 208 100 139 69 169 b 139 278 69 247 100 278 b 208 208 178 278 208 247 b 139 139 208 169 178 139 m 278 139 b 208 208 239 139 208 169 b 278 278 208 247 239 278 b 347 208 317 278 347 247 b 278 139 347 169 317 139 m 139 0 b 69 69 100 0 69 31 b 139 139 69 108 100 139 b 208 69 178 139 208 108 b 139 0 208 31 178 0 m 417 0 b 347 69 378 0 347 31 b 417 139 347 108 378 139 b 486 69 456 139 486 108 b 417 0 486 31 456 0 m 139 -278 b 69 -208 100 -278 69 -247 b 139 -139 69 -169 100 -139 b 208 -208 178 -139 208 -169 b 139 -278 208 -247 178 -278 m 278 -278 b 208 -208 239 -278 208 -247 b 278 -139 208 -169 239 -139 b 347 -208 317 -139 347 -169 b 278 -278 347 -247 317 -278 m 278 -417 b 208 -347 239 -417 208 -386 b 278 -278 208 -308 239 -278 b 347 -347 317 -278 347 -308 b 278 -417 347 -386 317 -417 m 139 -556 b 69 -486 100 -556 69 -525 b 139 -417 69 -447 100 -417 b 208 -486 178 -417 208 -447 b 139 -556 208 -525 178 -556 "}}}
